<svg width="247" height="64" viewBox="0 0 247 64" fill="none" xmlns="http://www.w3.org/2000/svg">
<ellipse cx="36.3682" cy="6.85714" rx="6.88705" ry="6.85714" fill="#FFB906"/>
<path fill-rule="evenodd" clip-rule="evenodd" d="M33.5199 50.0992C31.4963 51.216 28.3258 51.9352 24.7617 51.9352C21.1976 51.9352 18.0271 51.216 16.0035 50.0992C14.5583 50.8971 13.698 51.8979 13.698 52.9843C13.698 55.5919 18.6514 57.7053 24.7617 57.7053C30.872 57.7053 35.8254 55.5919 35.8254 52.9843C35.8254 51.8979 34.965 50.8971 33.5199 50.0992Z" fill="#FFB906"/>
<path d="M14.4162 59.1888C13.9757 59.3839 13.4531 59.5382 12.8778 59.6441C12.3025 59.7496 11.6861 59.8036 11.0634 59.8036C10.4406 59.8036 9.82422 59.7496 9.24891 59.6441C8.6736 59.5382 8.15097 59.3839 7.71053 59.1888C7.27009 58.9942 6.9208 58.7629 6.68266 58.5085C6.44453 58.2535 6.32178 57.9808 6.32178 57.7054C6.32178 57.43 6.44453 57.1572 6.68266 56.9023C6.9208 56.6479 7.27009 56.4165 7.71053 56.2219L11.0634 57.7054L14.4162 59.1888Z" fill="#FFB906"/>
<path d="M29.5029 61.9017C29.5029 62.4583 29.0035 62.9918 28.1142 63.3852C27.2249 63.7791 26.0189 64 24.7614 64C23.5038 64 22.2978 63.7791 21.4085 63.3852C20.5192 62.9918 20.0198 62.4583 20.0198 61.9017H24.7614H29.5029Z" fill="#FFB906"/>
<path d="M0 47.2142C0 46.5942 0.286182 45.9803 0.842159 45.4075C1.39824 44.8347 2.21326 44.3143 3.24061 43.8759C4.26795 43.4375 5.48759 43.0898 6.82998 42.8525C8.17185 42.6153 9.61065 42.4932 11.0637 42.4932C12.5167 42.4932 13.9555 42.6153 15.2974 42.8525C16.6398 43.0898 17.8594 43.4375 18.8868 43.8759C19.9141 44.3143 20.7291 44.8347 21.2849 45.4075C21.8413 45.9803 22.1274 46.5942 22.1274 47.2142H11.0637H0Z" fill="#915F29"/>
<path d="M23.9095 39.3459H25.6133L28.4493 45.6406H21.0735L23.9095 39.3459Z" fill="#915F29"/>
<path d="M23.9095 33.0513H25.6133L28.4493 39.3459H21.0735L23.9095 33.0513Z" fill="#915F29"/>
<path d="M23.9095 26.7566H25.6133L28.4493 33.0512H21.0735L23.9095 26.7566Z" fill="#915F29"/>
<path d="M23.9095 20.4619H25.6133L28.4493 26.7566H21.0735L23.9095 20.4619Z" fill="#915F29"/>
<path d="M24.7616 45.6405H20.5469V47.2142H24.7616V45.6405Z" fill="#915F29"/>
<path d="M10.2883 5.84712C10.0796 5.93792 10.0343 5.89574 15.8802 11.0509C17.0239 12.0594 18.4501 13.3182 19.0502 13.8484C19.6497 14.3785 20.7192 15.3184 21.4267 15.9369C22.1343 16.5554 22.717 17.0913 22.7217 17.1277C22.7259 17.1642 22.3213 16.9887 21.8224 16.7379C20.8072 16.2274 19.2836 15.7176 17.918 15.4314C16.7004 15.176 13.4525 15.1791 11.7602 15.4371C8.7288 15.8992 5.97078 16.955 3.82969 18.4728C3.46196 18.7334 3.16113 18.9803 3.16113 19.0215C3.16113 19.0626 7.33583 19.0901 12.4378 19.0824C17.5397 19.0749 21.9067 19.0945 22.1417 19.1265C22.5494 19.1816 22.5331 19.1906 21.7866 19.3188C20.2914 19.5758 18.4322 20.3234 16.9844 21.2501C16.6767 21.4469 15.9934 21.9955 15.4661 22.4692C13.2876 24.4254 11.8904 26.6709 11.2302 29.2768C10.9684 30.3108 10.7661 32.0021 10.9047 32.0021C10.9826 32.0021 11.4884 31.552 15.7774 27.6645C21.4231 22.5479 23.747 20.4617 23.7749 20.4861H25.7242H25.8001L27.3548 21.9032C29.115 23.5076 32.9077 26.9445 34.0667 27.9858C34.4603 28.3393 35.6104 29.3755 36.6219 30.2885C37.634 31.2016 38.5133 31.9668 38.5765 31.989C38.8905 32.0997 38.3194 29.1331 37.7536 27.717C36.8047 25.3419 35.2074 23.2785 33.0405 21.6302C31.6601 20.5799 29.1434 19.5132 27.5455 19.3009C27.2515 19.2618 27.0345 19.1928 27.0624 19.1474C27.0903 19.1019 31.4441 19.0718 36.7378 19.0805C42.031 19.0893 46.3622 19.0633 46.3622 19.0229C46.3622 18.9127 44.4898 17.6802 43.768 17.3151C40.98 15.9055 38.1519 15.2749 34.5462 15.2589C32.7133 15.2508 32.2518 15.2833 31.3182 15.4867C30.0011 15.7736 28.6397 16.2445 27.4886 16.8113L26.633 17.2325L27.3237 16.6115C28.1856 15.8369 33.7422 10.9183 36.9786 8.06562C38.8747 6.39439 39.3673 5.90818 39.2224 5.85074C38.9411 5.73906 37.1008 5.75286 36.2568 5.87303C32.9356 6.34597 30.2292 7.88674 28.1166 10.5072C26.7563 12.1948 25.4924 14.3731 25.014 15.8558C24.9044 16.194 24.7912 16.471 24.7617 16.4712C24.7322 16.4714 24.5462 16.0501 24.3481 15.5348C23.885 14.3314 23.1859 13.015 22.3998 11.867C19.6803 7.89556 16.3327 5.94878 11.9831 5.80909C11.1597 5.78276 10.3968 5.79975 10.2883 5.84712Z" fill="#84B95A"/>
<path fill-rule="evenodd" clip-rule="evenodd" d="M16.0027 50.0992C18.0263 51.216 21.1969 51.9352 24.761 51.9352C28.325 51.9352 31.4956 51.216 33.5192 50.0992C34.9643 50.8971 35.8246 51.8979 35.8246 52.9843C35.8246 55.5919 30.8713 57.7053 24.761 57.7053C18.6506 57.7053 13.6973 55.5919 13.6973 52.9843C13.6973 51.8979 14.5576 50.8971 16.0027 50.0992Z" fill="#FFB906"/>
<path d="M35.1062 59.1888C35.5466 59.3839 36.0693 59.5382 36.6446 59.6441C37.2199 59.7496 37.8363 59.8036 38.459 59.8036C39.0818 59.8036 39.6982 59.7496 40.2735 59.6441C40.8488 59.5382 41.3714 59.3839 41.8118 59.1888C42.2523 58.9942 42.6016 58.7629 42.8397 58.5085C43.0778 58.2535 43.2006 57.9808 43.2006 57.7054C43.2006 57.43 43.0778 57.1572 42.8397 56.9023C42.6016 56.6479 42.2523 56.4165 41.8118 56.2219L38.459 57.7054L35.1062 59.1888Z" fill="#FFB906"/>
<path d="M20.0195 61.9017C20.0195 62.4583 20.519 62.9918 21.4083 63.3852C22.2976 63.7791 23.5035 64 24.7611 64C26.0187 64 27.2246 63.7791 28.1139 63.3852C29.0032 62.9918 29.5027 62.4583 29.5027 61.9017H24.7611H20.0195Z" fill="#FFB906"/>
<path d="M49.5224 47.2142C49.5224 46.5942 49.2363 45.9803 48.68 45.4075C48.1241 44.8347 47.3091 44.3143 46.2818 43.8759C45.2544 43.4375 44.0348 43.0898 42.6924 42.8525C41.3505 42.6153 39.9117 42.4932 38.4587 42.4932C37.0057 42.4932 35.5669 42.6153 34.225 42.8525C32.8826 43.0898 31.663 43.4375 30.6356 43.8759C29.6083 44.3143 28.7933 44.8347 28.2374 45.4075C27.6811 45.9803 27.395 46.5942 27.395 47.2142H38.4587H49.5224Z" fill="#915F29"/>
<path d="M25.6128 39.3459H23.909L21.073 45.6406H28.4488L25.6128 39.3459Z" fill="#915F29"/>
<path d="M25.6128 33.0513H23.909L21.073 39.3459H28.4488L25.6128 33.0513Z" fill="#915F29"/>
<path d="M25.6128 26.7566H23.909L21.073 33.0512H28.4488L25.6128 26.7566Z" fill="#915F29"/>
<path d="M25.6128 20.4619H23.909L21.073 26.7566H28.4488L25.6128 20.4619Z" fill="#915F29"/>
<path d="M24.7608 45.6406H28.9756V47.2143H24.7608V45.6406Z" fill="#915F29"/>
<path d="M39.2345 5.84712C39.4431 5.93792 39.4884 5.89574 33.6426 11.0509C32.4988 12.0594 31.0726 13.3182 30.4725 13.8484C29.873 14.3785 28.8035 15.3184 28.096 15.9369C27.3884 16.5554 26.8057 17.0913 26.801 17.1277C26.7968 17.1642 27.2014 16.9887 27.7003 16.7379C28.7155 16.2274 30.2392 15.7176 31.6047 15.4314C32.8223 15.176 36.0702 15.1791 37.7625 15.4371C40.7939 15.8992 43.5519 16.955 45.693 18.4728C46.0607 18.7334 46.3616 18.9803 46.3616 19.0215C46.3616 19.0626 42.1869 19.0901 37.0849 19.0824C31.983 19.0749 27.616 19.0945 27.381 19.1265C26.9733 19.1816 26.9896 19.1906 27.7361 19.3188C29.2313 19.5758 31.0905 20.3234 32.5383 21.2501C32.846 21.4469 33.5293 21.9955 34.0567 22.4692C36.2351 24.4254 37.6323 26.6709 38.2925 29.2768C38.5543 30.3108 38.7566 32.0021 38.6181 32.0021C38.5401 32.0021 38.0343 31.552 33.7453 27.6645C28.0996 22.5479 25.7757 20.4617 25.7478 20.4861H23.7985H23.7226L22.1679 21.9032C20.4078 23.5076 16.615 26.9445 15.456 27.9858C15.0624 28.3393 13.9123 29.3755 12.9008 30.2885C11.8887 31.2016 11.0094 31.9668 10.9462 31.989C10.6322 32.0997 11.2033 29.1331 11.7691 27.717C12.718 25.3419 14.3153 23.2785 16.4823 21.6302C17.8626 20.5799 20.3793 19.5132 21.9772 19.3009C22.2712 19.2618 22.4883 19.1928 22.4603 19.1474C22.4324 19.1019 18.0786 19.0718 12.7849 19.0805C7.49169 19.0893 3.16052 19.0633 3.16052 19.0229C3.16052 18.9127 5.03292 17.6802 5.75469 17.3151C8.54274 15.9055 11.3708 15.2749 14.9765 15.2589C16.8094 15.2508 17.2709 15.2833 18.2045 15.4867C19.5216 15.7736 20.883 16.2445 22.0341 16.8113L22.8897 17.2325L22.199 16.6115C21.3371 15.8369 15.7805 10.9183 12.5441 8.06562C10.648 6.39439 10.1554 5.90818 10.3003 5.85074C10.5816 5.73906 12.4219 5.75286 13.2659 5.87303C16.5871 6.34597 19.2935 7.88674 21.4061 10.5072C22.7664 12.1948 24.0303 14.3731 24.5087 15.8558C24.6183 16.194 24.7315 16.471 24.761 16.4712C24.7906 16.4714 24.9765 16.0501 25.1746 15.5348C25.6377 14.3314 26.3368 13.015 27.1229 11.867C29.8424 7.89556 33.19 5.94878 37.5396 5.80909C38.3631 5.78276 39.1259 5.79975 39.2345 5.84712Z" fill="#84B95A"/>
<path d="M96.3318 35.7371H90.1408V35.2922C90.3535 35.2922 90.5308 35.2922 90.6727 35.2922C90.8145 35.2781 90.928 35.264 91.0131 35.2499C91.1123 35.2216 91.1974 35.2004 91.2684 35.1863C91.3393 35.1581 91.4102 35.1228 91.4811 35.0804C91.5946 35.0098 91.6797 34.9251 91.7364 34.8262C91.8073 34.7132 91.8428 34.6003 91.8428 34.4873C91.8428 34.0919 91.6868 33.5411 91.3747 32.8351L90.3535 30.5262H84.0136L82.8861 33.3434C82.8293 33.4988 82.7797 33.6612 82.7372 33.8306C82.7088 33.986 82.6946 34.1413 82.6946 34.2966C82.6946 34.6214 82.8223 34.8686 83.0776 35.038C83.3329 35.2075 83.7583 35.2922 84.354 35.2922V35.7371H79.5247V35.2922C79.8225 35.2781 80.0778 35.2287 80.2906 35.1439C80.5033 35.0592 80.716 34.8827 80.9288 34.6144C81.1415 34.332 81.3685 33.9365 81.6096 33.4282C81.8649 32.9057 82.184 32.1996 82.567 31.3099L87.6091 19.4478H88.0771L94.1405 33.174C94.339 33.6259 94.5092 33.986 94.651 34.2543C94.8071 34.5226 94.9631 34.7344 95.1191 34.8898C95.2751 35.031 95.4453 35.1298 95.6297 35.1863C95.8283 35.2428 96.0623 35.2781 96.3318 35.2922V35.7371ZM90.0344 29.5518L87.2261 22.8793L84.4179 29.5518H90.0344Z" fill="#1D1D1F"/>
<path d="M110.948 36.0124L100.204 22.7099V32.1784C100.204 32.7998 100.232 33.3081 100.289 33.7035C100.36 34.0848 100.48 34.3884 100.651 34.6144C100.821 34.8403 101.055 35.0027 101.353 35.1016C101.65 35.2004 102.033 35.264 102.501 35.2922V35.7371H96.7998V35.2922C97.2962 35.2499 97.6933 35.1863 97.9912 35.1016C98.3032 35.0027 98.5372 34.8403 98.6933 34.6144C98.8635 34.3884 98.9769 34.0848 99.0337 33.7035C99.0904 33.3081 99.1188 32.7998 99.1188 32.1784V21.5448C98.8776 21.2624 98.672 21.0364 98.5018 20.867C98.3316 20.6834 98.1614 20.5492 97.9912 20.4645C97.821 20.3657 97.6437 20.3021 97.4593 20.2739C97.2749 20.2315 97.0551 20.2103 96.7998 20.2103V19.7231H100.948L110.288 31.437V23.2818C110.288 21.8131 110.054 20.9093 109.586 20.5704C109.402 20.4575 109.196 20.3798 108.969 20.3374C108.756 20.2809 108.423 20.2386 107.969 20.2103V19.7231H113.649V20.2103C113.196 20.2386 112.855 20.288 112.628 20.3586C112.416 20.4292 112.231 20.521 112.075 20.634C111.593 20.9447 111.352 21.8273 111.352 23.2818V36.0124H110.948Z" fill="#1D1D1F"/>
<path d="M116.543 22.3709C116.543 21.919 116.522 21.5589 116.479 21.2906C116.436 21.0223 116.337 20.8176 116.181 20.6763C116.039 20.521 115.827 20.4151 115.543 20.3586C115.273 20.3021 114.898 20.2527 114.415 20.2103V19.7231H120.968C122.486 19.7231 123.847 19.9067 125.053 20.2739C126.258 20.6269 127.272 21.1424 128.095 21.8202C128.932 22.498 129.57 23.3312 130.01 24.3197C130.449 25.3082 130.669 26.4238 130.669 27.6665C130.669 28.8951 130.435 30.039 129.967 31.0981C129.499 32.1572 128.84 33.0469 127.989 33.7671C127.237 34.3884 126.265 34.8756 125.074 35.2287C123.897 35.5676 122.635 35.7371 121.287 35.7371H114.415V35.2922C114.883 35.264 115.252 35.2216 115.522 35.1651C115.805 35.0945 116.018 34.9815 116.16 34.8262C116.316 34.6567 116.415 34.4379 116.458 34.1696C116.514 33.9012 116.543 33.5553 116.543 33.1316V22.3709ZM119.011 33.8518C119.011 34.2472 119.096 34.5155 119.266 34.6567C119.45 34.7838 119.777 34.8474 120.245 34.8474C121.337 34.8474 122.252 34.7768 122.989 34.6356C123.741 34.4802 124.429 34.219 125.053 33.8518C127.038 32.7221 128.031 30.7168 128.031 27.836C128.031 26.5086 127.776 25.3294 127.265 24.2985C126.769 23.2677 126.031 22.4274 125.053 21.7778C124.457 21.3824 123.769 21.0929 122.989 20.9093C122.223 20.7258 121.308 20.634 120.245 20.634C119.762 20.634 119.436 20.6975 119.266 20.8246C119.096 20.9517 119.011 21.1988 119.011 21.566V33.8518Z" fill="#1D1D1F"/>
<path d="M148.647 20.2103C148.32 20.2244 148.03 20.2739 147.774 20.3586C147.533 20.4433 147.285 20.5916 147.03 20.8034C146.789 21.0011 146.526 21.2765 146.242 21.6296C145.973 21.9685 145.654 22.4062 145.285 22.9429L141.69 28.4079V33.1316C141.69 33.5835 141.718 33.9507 141.775 34.2331C141.831 34.5014 141.945 34.7132 142.115 34.8686C142.3 35.0239 142.555 35.1298 142.881 35.1863C143.207 35.2428 143.64 35.2781 144.179 35.2922V35.7371H136.754V35.2922C137.307 35.264 137.747 35.2216 138.073 35.1651C138.399 35.0945 138.64 34.9745 138.796 34.805C138.966 34.6356 139.073 34.3955 139.115 34.0848C139.172 33.7741 139.201 33.3576 139.201 32.8351V28.6409L136.031 24.002C135.421 23.1406 134.924 22.4627 134.541 21.9685C134.173 21.4601 133.853 21.0788 133.584 20.8246C133.314 20.5704 133.066 20.408 132.839 20.3374C132.627 20.2527 132.378 20.2103 132.095 20.2103V19.7231H138.881V20.2103H138.286C137.534 20.2527 137.158 20.4786 137.158 20.8882C137.158 21.213 137.3 21.5801 137.584 21.9897L141.179 27.3488L144.647 21.8837C144.874 21.5589 144.987 21.2624 144.987 20.9941C144.987 20.7116 144.867 20.5139 144.626 20.401C144.384 20.2739 143.945 20.2103 143.307 20.2103V19.7231H148.647V20.2103Z" fill="#1D1D1F"/>
<path d="M166.858 24.5527H166.262C166.163 24.1997 166.063 23.889 165.964 23.6207C165.879 23.3524 165.773 23.1123 165.645 22.9005C165.532 22.6746 165.404 22.4768 165.262 22.3074C165.12 22.1238 164.957 21.9332 164.773 21.7355C163.922 20.8458 162.929 20.401 161.794 20.401C161.043 20.401 160.433 20.5987 159.965 20.9941C159.511 21.3895 159.284 21.9261 159.284 22.6039C159.284 23.2677 159.561 23.889 160.114 24.468C160.667 25.047 161.575 25.6825 162.837 26.3744C164.454 27.25 165.617 28.1043 166.326 28.9375C167.049 29.7707 167.411 30.6815 167.411 31.67C167.411 32.2914 167.283 32.8704 167.028 33.407C166.773 33.9436 166.425 34.4096 165.985 34.805C165.546 35.2004 165.021 35.5111 164.411 35.7371C163.801 35.963 163.149 36.076 162.454 36.076C161.957 36.076 161.468 36.0336 160.986 35.9489C160.504 35.8641 160.036 35.7229 159.582 35.5252C159.341 35.4405 159.121 35.377 158.922 35.3346C158.724 35.2781 158.561 35.2499 158.433 35.2499C158.249 35.2499 158.093 35.3275 157.965 35.4829C157.837 35.6382 157.766 35.8288 157.752 36.0548H157.22L156.497 30.9286H157.05C157.66 32.4114 158.355 33.4988 159.135 34.1907C159.915 34.8686 160.858 35.2075 161.965 35.2075C162.858 35.2075 163.574 34.9604 164.113 34.4661C164.666 33.9718 164.943 33.3223 164.943 32.5173C164.943 32.2066 164.908 31.9313 164.837 31.6912C164.78 31.4511 164.695 31.2464 164.581 31.0769C164.298 30.625 163.844 30.159 163.22 29.6789C162.61 29.1987 161.872 28.7186 161.007 28.2385C160.326 27.8854 159.745 27.5324 159.263 27.1793C158.78 26.8263 158.383 26.4591 158.071 26.0779C157.773 25.6966 157.554 25.3012 157.412 24.8916C157.27 24.4821 157.199 24.0373 157.199 23.5572C157.199 22.2156 157.667 21.1706 158.603 20.4222C159 20.0974 159.44 19.8502 159.922 19.6808C160.404 19.4972 160.88 19.4054 161.348 19.4054C161.773 19.4054 162.199 19.4548 162.624 19.5537C163.064 19.6384 163.511 19.7655 163.964 19.935C164.191 20.0338 164.397 20.1044 164.581 20.1468C164.766 20.1891 164.922 20.2103 165.049 20.2103C165.447 20.2103 165.702 19.942 165.815 19.4054H166.326L166.858 24.5527Z" fill="#1D1D1F"/>
<path d="M181.431 27.0734V22.3709C181.431 21.9332 181.403 21.5872 181.346 21.333C181.303 21.0647 181.204 20.8529 181.048 20.6975C180.906 20.5422 180.693 20.4363 180.41 20.3798C180.126 20.3092 179.75 20.2527 179.282 20.2103V19.7231H186.026V20.2103C185.558 20.2527 185.182 20.3092 184.899 20.3798C184.615 20.4363 184.395 20.5422 184.239 20.6975C184.097 20.8529 184.005 21.0647 183.963 21.333C183.92 21.5872 183.899 21.9332 183.899 22.3709V33.1316C183.899 33.5553 183.92 33.9012 183.963 34.1696C184.019 34.4237 184.126 34.6285 184.282 34.7838C184.438 34.9392 184.651 35.0522 184.92 35.1228C185.204 35.1934 185.572 35.2499 186.026 35.2922V35.7371H179.282V35.2922C179.75 35.264 180.126 35.2216 180.41 35.1651C180.693 35.0945 180.906 34.9745 181.048 34.805C181.204 34.6214 181.303 34.3743 181.346 34.0636C181.403 33.753 181.431 33.3434 181.431 32.8351V28.1326H174.049V33.1316C174.049 33.5553 174.07 33.9012 174.112 34.1696C174.169 34.4237 174.276 34.6285 174.432 34.7838C174.588 34.9392 174.807 35.0522 175.091 35.1228C175.375 35.1934 175.744 35.2499 176.197 35.2922V35.7371H169.432V35.2922C169.914 35.264 170.297 35.2216 170.581 35.1651C170.865 35.0945 171.077 34.9745 171.219 34.805C171.375 34.6214 171.474 34.3743 171.517 34.0636C171.559 33.753 171.581 33.3434 171.581 32.8351V22.3709C171.581 21.9332 171.552 21.5872 171.496 21.333C171.453 21.0647 171.354 20.8529 171.198 20.6975C171.056 20.5422 170.843 20.4363 170.56 20.3798C170.276 20.3092 169.9 20.2527 169.432 20.2103V19.7231H176.197V20.2103C175.729 20.2527 175.354 20.3092 175.07 20.3798C174.786 20.4363 174.566 20.5422 174.41 20.6975C174.268 20.8529 174.169 21.0647 174.112 21.333C174.07 21.5872 174.049 21.9332 174.049 22.3709V27.0734H181.431Z" fill="#1D1D1F"/>
<path d="M195.409 19.4054C196.557 19.4054 197.649 19.6455 198.685 20.1256C199.734 20.6057 200.621 21.2694 201.344 22.1167C201.94 22.8369 202.401 23.6772 202.727 24.6375C203.053 25.5977 203.216 26.6286 203.216 27.7301C203.216 28.9587 203.018 30.0884 202.621 31.1193C202.238 32.136 201.692 33.0116 200.983 33.7459C200.288 34.4802 199.451 35.0522 198.472 35.4617C197.508 35.8712 196.444 36.076 195.281 36.076C194.104 36.076 193.026 35.8712 192.047 35.4617C191.068 35.0522 190.232 34.4802 189.537 33.7459C188.842 32.9975 188.303 32.1078 187.92 31.0769C187.537 30.046 187.345 28.9092 187.345 27.6665C187.345 26.4521 187.544 25.3365 187.941 24.3197C188.338 23.303 188.891 22.4345 189.601 21.7143C190.31 20.98 191.154 20.4151 192.132 20.0197C193.125 19.6102 194.217 19.4054 195.409 19.4054ZM195.196 20.2527C194.529 20.2527 193.891 20.408 193.281 20.7187C192.671 21.0153 192.139 21.4318 191.685 21.9685C191.444 22.2509 191.224 22.6039 191.026 23.0276C190.842 23.4512 190.678 23.9173 190.537 24.4256C190.395 24.9199 190.288 25.4495 190.217 26.0143C190.147 26.5792 190.111 27.144 190.111 27.7089C190.111 29.1634 190.303 30.4556 190.686 31.5853C191.068 32.715 191.6 33.5623 192.281 34.1272C193.132 34.8474 194.139 35.2075 195.302 35.2075C195.912 35.2075 196.486 35.0945 197.025 34.8686C197.579 34.6426 198.061 34.3249 198.472 33.9154C199.791 32.6303 200.451 30.5262 200.451 27.603C200.451 26.205 200.252 24.9623 199.855 23.8749C199.472 22.7875 198.933 21.9473 198.238 21.3542C197.345 20.6199 196.33 20.2527 195.196 20.2527Z" fill="#1D1D1F"/>
<path d="M220.045 35.7371H216.13L210.343 28.2808L209.003 28.3444V33.1316C209.003 33.5553 209.024 33.9012 209.067 34.1696C209.124 34.4379 209.23 34.6567 209.386 34.8262C209.542 34.9815 209.762 35.0945 210.046 35.1651C210.329 35.2216 210.705 35.264 211.173 35.2922V35.7371H204.45V35.2922C204.904 35.2499 205.266 35.1934 205.535 35.1228C205.819 35.0522 206.032 34.9321 206.174 34.7627C206.315 34.5932 206.408 34.3602 206.45 34.0636C206.493 33.753 206.514 33.3434 206.514 32.8351V22.3709C206.514 21.9473 206.493 21.6084 206.45 21.3542C206.408 21.0859 206.315 20.874 206.174 20.7187C206.032 20.5634 205.819 20.4504 205.535 20.3798C205.266 20.3092 204.904 20.2527 204.45 20.2103V19.7231H211.152C212.343 19.7231 213.407 19.8855 214.343 20.2103C215.293 20.521 215.995 20.9447 216.449 21.4813C216.747 21.8061 216.967 22.1874 217.109 22.6251C217.251 23.0488 217.322 23.5077 217.322 24.002C217.322 25.1035 216.974 25.972 216.279 26.6074C215.598 27.2429 214.485 27.716 212.939 28.0266L217.939 34.1696C218.279 34.565 218.598 34.8403 218.896 34.9957C219.208 35.151 219.591 35.2499 220.045 35.2922V35.7371ZM209.003 27.4547C209.57 27.4406 210.06 27.4194 210.471 27.3912C210.897 27.3629 211.265 27.3206 211.577 27.2641C211.904 27.1935 212.201 27.1087 212.471 27.0099C212.74 26.911 213.017 26.7839 213.301 26.6286C213.74 26.3885 214.081 26.0355 214.322 25.5695C214.563 25.0893 214.684 24.5457 214.684 23.9384C214.684 22.7946 214.322 21.9614 213.599 21.4389C212.889 20.9023 211.755 20.634 210.195 20.634C209.712 20.634 209.393 20.6975 209.237 20.8246C209.081 20.9376 209.003 21.1635 209.003 21.5025V27.4547Z" fill="#1D1D1F"/>
<path d="M233.639 35.7371H220.534V35.2922C220.974 35.264 221.328 35.2146 221.598 35.1439C221.882 35.0733 222.094 34.9604 222.236 34.805C222.392 34.6497 222.498 34.4379 222.555 34.1696C222.612 33.9012 222.64 33.5553 222.64 33.1316V22.3709C222.64 21.9473 222.612 21.6013 222.555 21.333C222.513 21.0647 222.413 20.8529 222.257 20.6975C222.101 20.5422 221.882 20.4292 221.598 20.3586C221.328 20.288 220.974 20.2386 220.534 20.2103V19.7231H233.427L233.469 23.1971H232.895C232.781 22.6463 232.654 22.2085 232.512 21.8837C232.37 21.5448 232.164 21.2836 231.895 21.1C231.64 20.9164 231.292 20.7964 230.852 20.7399C230.427 20.6834 229.874 20.6552 229.193 20.6552H225.917C225.59 20.6552 225.371 20.7046 225.257 20.8034C225.158 20.9023 225.108 21.1282 225.108 21.4813V26.8404H228.831C229.328 26.8404 229.732 26.8122 230.044 26.7557C230.356 26.6992 230.604 26.5933 230.789 26.438C230.987 26.2685 231.136 26.0355 231.235 25.7389C231.335 25.4424 231.427 25.047 231.512 24.5527H232.086V30.1661H231.512C231.427 29.6577 231.335 29.2552 231.235 28.9587C231.136 28.648 230.994 28.415 230.81 28.2597C230.625 28.0902 230.377 27.9772 230.065 27.9207C229.753 27.8642 229.342 27.836 228.831 27.836H225.108V33.8095C225.108 34.0495 225.122 34.226 225.151 34.339C225.179 34.452 225.229 34.5367 225.3 34.5932C225.413 34.6638 225.683 34.7274 226.108 34.7838C226.548 34.8262 227.065 34.8474 227.661 34.8474H228.342C229.207 34.8474 229.93 34.805 230.512 34.7203C231.108 34.6356 231.611 34.4732 232.023 34.2331C232.448 33.993 232.817 33.6682 233.129 33.2587C233.441 32.8492 233.746 32.3126 234.044 31.6488H234.746L233.639 35.7371Z" fill="#1D1D1F"/>
<path d="M246.447 24.5527H245.851C245.752 24.1997 245.653 23.889 245.553 23.6207C245.468 23.3524 245.362 23.1123 245.234 22.9005C245.121 22.6746 244.993 22.4768 244.851 22.3074C244.709 22.1238 244.546 21.9332 244.362 21.7355C243.511 20.8458 242.518 20.401 241.383 20.401C240.632 20.401 240.022 20.5987 239.554 20.9941C239.1 21.3895 238.873 21.9261 238.873 22.6039C238.873 23.2677 239.15 23.889 239.703 24.468C240.256 25.047 241.164 25.6825 242.426 26.3744C244.043 27.25 245.206 28.1043 245.915 28.9375C246.638 29.7707 247 30.6815 247 31.67C247 32.2914 246.872 32.8704 246.617 33.407C246.362 33.9436 246.014 34.4096 245.575 34.805C245.135 35.2004 244.61 35.5111 244 35.7371C243.39 35.963 242.738 36.076 242.043 36.076C241.547 36.076 241.057 36.0336 240.575 35.9489C240.093 35.8641 239.625 35.7229 239.171 35.5252C238.93 35.4405 238.71 35.377 238.511 35.3346C238.313 35.2781 238.15 35.2499 238.022 35.2499C237.838 35.2499 237.682 35.3275 237.554 35.4829C237.426 35.6382 237.355 35.8288 237.341 36.0548H236.809L236.086 30.9286H236.639C237.249 32.4114 237.944 33.4988 238.724 34.1907C239.504 34.8686 240.447 35.2075 241.554 35.2075C242.447 35.2075 243.163 34.9604 243.702 34.4661C244.256 33.9718 244.532 33.3223 244.532 32.5173C244.532 32.2066 244.497 31.9313 244.426 31.6912C244.369 31.4511 244.284 31.2464 244.17 31.0769C243.887 30.625 243.433 30.159 242.809 29.6789C242.199 29.1987 241.461 28.7186 240.596 28.2385C239.915 27.8854 239.334 27.5324 238.852 27.1793C238.369 26.8263 237.972 26.4591 237.66 26.0779C237.362 25.6966 237.143 25.3012 237.001 24.8916C236.859 24.4821 236.788 24.0373 236.788 23.5572C236.788 22.2156 237.256 21.1706 238.192 20.4222C238.589 20.0974 239.029 19.8502 239.511 19.6808C239.993 19.4972 240.469 19.4054 240.937 19.4054C241.362 19.4054 241.788 19.4548 242.213 19.5537C242.653 19.6384 243.1 19.7655 243.553 19.935C243.78 20.0338 243.986 20.1044 244.17 20.1468C244.355 20.1891 244.511 20.2103 244.638 20.2103C245.036 20.2103 245.291 19.942 245.404 19.4054H245.915L246.447 24.5527Z" fill="#1D1D1F"/>
<path d="M77.0887 21.2435H76.365C76.2444 20.7994 76.1238 20.4087 76.0031 20.0712C75.8997 19.7337 75.7705 19.4318 75.6154 19.1653C75.4776 18.8811 75.3225 18.6325 75.1502 18.4193C74.9779 18.1884 74.7797 17.9486 74.5557 17.7C73.5218 16.581 72.3156 16.0215 70.9371 16.0215C70.0239 16.0215 69.2829 16.2702 68.7143 16.7675C68.1629 17.2648 67.8872 17.9398 67.8872 18.7923C67.8872 19.6271 68.2232 20.4087 68.8952 21.1369C69.5672 21.8651 70.67 22.6644 72.2036 23.5347C74.168 24.636 75.581 25.7105 76.4425 26.7585C77.3213 27.8064 77.7607 28.9521 77.7607 30.1954C77.7607 30.9769 77.6057 31.7051 77.2955 32.3801C76.9853 33.055 76.5632 33.6412 76.029 34.1385C75.4948 34.6358 74.8573 35.0266 74.1163 35.3108C73.3754 35.595 72.5827 35.7371 71.7384 35.7371C71.1353 35.7371 70.5408 35.6838 69.9549 35.5772C69.3691 35.4706 68.8004 35.293 68.249 35.0444C67.9561 34.9378 67.689 34.8579 67.4478 34.8046C67.2065 34.7335 67.0084 34.698 66.8533 34.698C66.6293 34.698 66.4397 34.7957 66.2847 34.9911C66.1296 35.1865 66.0434 35.4262 66.0262 35.7104H65.38L64.5012 29.2629H65.1732C65.9142 31.1279 66.7585 32.4956 67.7062 33.3659C68.654 34.2184 69.7999 34.6447 71.1439 34.6447C72.2295 34.6447 73.0997 34.3339 73.7544 33.7122C74.4265 33.0906 74.7625 32.2735 74.7625 31.2611C74.7625 30.8703 74.7194 30.524 74.6332 30.222C74.5643 29.9201 74.4609 29.6625 74.3231 29.4494C73.9785 28.881 73.4271 28.2949 72.6689 27.691C71.9279 27.0871 71.0319 26.4832 69.9808 25.8793C69.1537 25.4352 68.4472 24.9912 67.8613 24.5472C67.2755 24.1031 66.793 23.6413 66.4139 23.1617C66.052 22.6822 65.785 22.1848 65.6126 21.6697C65.4403 21.1546 65.3542 20.5952 65.3542 19.9913C65.3542 18.3039 65.9228 16.9895 67.0601 16.0481C67.5426 15.6396 68.0767 15.3288 68.6626 15.1156C69.2485 14.8847 69.8257 14.7693 70.3943 14.7693C70.9113 14.7693 71.4282 14.8315 71.9452 14.9558C72.4793 15.0624 73.0221 15.2222 73.5735 15.4354C73.8492 15.5597 74.0991 15.6485 74.3231 15.7018C74.5471 15.7551 74.7366 15.7817 74.8917 15.7817C75.3742 15.7817 75.6844 15.4442 75.8222 14.7693H76.4425L77.0887 21.2435Z" fill="#1D1D1F"/>
<path d="M64.22 41.2012H69.407V41.9889H67.221V47.355H66.4059V41.9889H64.22V41.2012Z" fill="#6E6E73"/>
<path d="M72.8456 46.3581L74.8463 41.2012H75.7108L73.0679 47.9212C72.8209 48.5447 72.4751 49.0247 72.0305 49.3612C71.5941 49.7058 71.1083 49.8576 70.5732 49.8165V49.0535C71.3142 49.1437 71.8782 48.7171 72.2651 47.7735L72.4257 47.3919L69.6593 41.2012H70.5238L72.8456 46.3581Z" fill="#6E6E73"/>
<path d="M80.0057 41.0535C80.8866 41.0535 81.6359 41.3653 82.2534 41.9889C82.8791 42.6124 83.192 43.3755 83.192 44.2781C83.192 45.1806 82.8791 45.9437 82.2534 46.5673C81.6359 47.1909 80.8866 47.5027 80.0057 47.5027C78.9106 47.5027 78.0791 47.0514 77.511 46.1489V49.8165H76.6959V41.2012H77.511V42.4073C78.0791 41.5047 78.9106 41.0535 80.0057 41.0535ZM78.2149 46.0135C78.6842 46.4812 79.2606 46.715 79.9439 46.715C80.6273 46.715 81.2036 46.4812 81.6729 46.0135C82.1422 45.5294 82.3769 44.9509 82.3769 44.2781C82.3769 43.5971 82.1422 43.0227 81.6729 42.555C81.2036 42.0791 80.6273 41.8412 79.9439 41.8412C79.2606 41.8412 78.6842 42.0791 78.2149 42.555C77.7456 43.0227 77.511 43.5971 77.511 44.2781C77.511 44.9509 77.7456 45.5294 78.2149 46.0135Z" fill="#6E6E73"/>
<path d="M85.3624 45.9396L89.0427 41.2012H89.7343V47.355H88.9192V42.6165L85.2389 47.355H84.5473V41.2012H85.3624V45.9396Z" fill="#6E6E73"/>
<path d="M94.3355 47.5027C93.4052 47.5027 92.6312 47.195 92.0137 46.5796C91.3962 45.9478 91.0875 45.1806 91.0875 44.2781C91.0875 43.3673 91.3962 42.6042 92.0137 41.9889C92.6312 41.3653 93.4052 41.0535 94.3355 41.0535C94.9448 41.0535 95.4923 41.2012 95.9781 41.4965C96.4639 41.7837 96.8179 42.1735 97.0402 42.6658L96.3733 43.0473C96.2086 42.6781 95.941 42.3868 95.5705 42.1735C95.2083 41.9519 94.7966 41.8412 94.3355 41.8412C93.6522 41.8412 93.0758 42.0791 92.6065 42.555C92.1372 43.0227 91.9026 43.5971 91.9026 44.2781C91.9026 44.9509 92.1372 45.5294 92.6065 46.0135C93.0758 46.4812 93.6522 46.715 94.3355 46.715C94.7884 46.715 95.1959 46.6083 95.5582 46.395C95.9287 46.1817 96.2169 45.8863 96.4227 45.5089L97.1019 45.9027C96.8467 46.395 96.4721 46.7847 95.9781 47.0719C95.4841 47.3591 94.9366 47.5027 94.3355 47.5027Z" fill="#6E6E73"/>
<path d="M97.4106 41.2012H102.598V41.9889H100.412V47.355H99.5965V41.9889H97.4106V41.2012Z" fill="#6E6E73"/>
<path d="M104.406 45.9396L108.086 41.2012H108.778V47.355H107.963V42.6165L104.283 47.355H103.591V41.2012H104.406V45.9396Z" fill="#6E6E73"/>
<path d="M114.503 44.2658V41.2012H115.318V47.355H114.503V45.0165C114.025 45.2627 113.437 45.3858 112.737 45.3858C111.922 45.3858 111.304 45.2012 110.884 44.8319C110.465 44.4545 110.255 43.9006 110.255 43.1704V41.2012H111.07V43.1704C111.07 43.6791 111.201 44.0483 111.465 44.2781C111.737 44.5078 112.152 44.6227 112.712 44.6227C113.338 44.6227 113.935 44.5037 114.503 44.2658Z" fill="#6E6E73"/>
<path d="M119.903 41.0535C120.825 41.0535 121.562 41.3776 122.114 42.0258C122.682 42.6658 122.966 43.4247 122.966 44.3027C122.966 44.3437 122.958 44.4709 122.941 44.6842H117.52C117.602 45.2996 117.866 45.7919 118.31 46.1612C118.755 46.5304 119.311 46.715 119.977 46.715C120.916 46.715 121.579 46.3663 121.966 45.6689L122.682 46.0873C122.41 46.5304 122.036 46.8791 121.558 47.1335C121.089 47.3796 120.558 47.5027 119.965 47.5027C118.994 47.5027 118.203 47.1991 117.594 46.5919C116.985 45.9847 116.68 45.2135 116.68 44.2781C116.68 43.3509 116.98 42.5837 117.582 41.9765C118.183 41.3612 118.956 41.0535 119.903 41.0535ZM119.903 41.8412C119.261 41.8412 118.722 42.0299 118.285 42.4073C117.857 42.7847 117.602 43.2812 117.52 43.8965H122.126C122.036 43.2401 121.785 42.7355 121.373 42.3827C120.945 42.0217 120.455 41.8412 119.903 41.8412Z" fill="#6E6E73"/>
<path d="M127.14 47.5027C126.21 47.5027 125.436 47.195 124.818 46.5796C124.201 45.9478 123.892 45.1806 123.892 44.2781C123.892 43.3673 124.201 42.6042 124.818 41.9889C125.436 41.3653 126.21 41.0535 127.14 41.0535C127.749 41.0535 128.297 41.2012 128.783 41.4965C129.269 41.7837 129.623 42.1735 129.845 42.6658L129.178 43.0473C129.013 42.6781 128.746 42.3868 128.375 42.1735C128.013 41.9519 127.601 41.8412 127.14 41.8412C126.457 41.8412 125.881 42.0791 125.411 42.555C124.942 43.0227 124.707 43.5971 124.707 44.2781C124.707 44.9509 124.942 45.5294 125.411 46.0135C125.881 46.4812 126.457 46.715 127.14 46.715C127.593 46.715 128.001 46.6083 128.363 46.395C128.733 46.1817 129.022 45.8863 129.227 45.5089L129.907 45.9027C129.651 46.395 129.277 46.7847 128.783 47.0719C128.289 47.3591 127.741 47.5027 127.14 47.5027Z" fill="#6E6E73"/>
<path d="M132.756 44.155L136.066 47.355H134.979L131.892 44.3889V47.355H131.077V41.2012H131.892V43.9212L134.831 41.2012H135.943L132.756 44.155Z" fill="#6E6E73"/>
<path d="M141.739 46.5796C141.105 47.195 140.339 47.5027 139.442 47.5027C138.528 47.5027 137.758 47.195 137.133 46.5796C136.507 45.956 136.194 45.1889 136.194 44.2781C136.194 43.3673 136.507 42.6042 137.133 41.9889C137.758 41.3653 138.528 41.0535 139.442 41.0535C140.348 41.0535 141.113 41.3653 141.739 41.9889C142.373 42.6042 142.69 43.3673 142.69 44.2781C142.69 45.1806 142.373 45.9478 141.739 46.5796ZM137.713 46.0135C138.182 46.4812 138.759 46.715 139.442 46.715C140.125 46.715 140.702 46.4812 141.171 46.0135C141.64 45.5294 141.875 44.9509 141.875 44.2781C141.875 43.5971 141.64 43.0227 141.171 42.555C140.702 42.0791 140.125 41.8412 139.442 41.8412C138.759 41.8412 138.182 42.0791 137.713 42.555C137.244 43.0227 137.009 43.5971 137.009 44.2781C137.009 44.9509 137.244 45.5294 137.713 46.0135Z" fill="#6E6E73"/>
<path d="M146.907 41.0535C147.829 41.0535 148.566 41.3776 149.118 42.0258C149.686 42.6658 149.97 43.4247 149.97 44.3027C149.97 44.3437 149.961 44.4709 149.945 44.6842H144.523C144.606 45.2996 144.869 45.7919 145.314 46.1612C145.758 46.5304 146.314 46.715 146.981 46.715C147.92 46.715 148.582 46.3663 148.969 45.6689L149.686 46.0873C149.414 46.5304 149.039 46.8791 148.562 47.1335C148.092 47.3796 147.561 47.5027 146.969 47.5027C145.997 47.5027 145.207 47.1991 144.597 46.5919C143.988 45.9847 143.684 45.2135 143.684 44.2781C143.684 43.3509 143.984 42.5837 144.585 41.9765C145.186 41.3612 145.96 41.0535 146.907 41.0535ZM146.907 41.8412C146.265 41.8412 145.725 42.0299 145.289 42.4073C144.861 42.7847 144.606 43.2812 144.523 43.8965H149.13C149.039 43.2401 148.788 42.7355 148.377 42.3827C147.948 42.0217 147.459 41.8412 146.907 41.8412Z" fill="#6E6E73"/>
<path d="M159.664 42.4073V41.2012H160.479V47.355H159.664V46.1489C159.096 47.0514 158.265 47.5027 157.17 47.5027C156.289 47.5027 155.535 47.1909 154.909 46.5673C154.292 45.9437 153.983 45.1806 153.983 44.2781C153.983 43.3755 154.292 42.6124 154.909 41.9889C155.535 41.3653 156.289 41.0535 157.17 41.0535C158.265 41.0535 159.096 41.5047 159.664 42.4073ZM155.502 46.0135C155.972 46.4812 156.548 46.715 157.231 46.715C157.915 46.715 158.491 46.4812 158.96 46.0135C159.43 45.5294 159.664 44.9509 159.664 44.2781C159.664 43.5971 159.43 43.0227 158.96 42.555C158.491 42.0791 157.915 41.8412 157.231 41.8412C156.548 41.8412 155.972 42.0791 155.502 42.555C155.033 43.0227 154.798 43.5971 154.798 44.2781C154.798 44.9509 155.033 45.5294 155.502 46.0135Z" fill="#6E6E73"/>
<path d="M162.205 41.2012H166.157V41.9889H163.02V47.355H162.205V41.2012Z" fill="#6E6E73"/>
<path d="M169.762 41.0535C170.684 41.0535 171.421 41.3776 171.972 42.0258C172.54 42.6658 172.824 43.4247 172.824 44.3027C172.824 44.3437 172.816 44.4709 172.8 44.6842H167.378C167.46 45.2996 167.724 45.7919 168.168 46.1612C168.613 46.5304 169.169 46.715 169.836 46.715C170.774 46.715 171.437 46.3663 171.824 45.6689L172.54 46.0873C172.269 46.5304 171.894 46.8791 171.417 47.1335C170.947 47.3796 170.416 47.5027 169.823 47.5027C168.852 47.5027 168.061 47.1991 167.452 46.5919C166.843 45.9847 166.538 45.2135 166.538 44.2781C166.538 43.3509 166.839 42.5837 167.44 41.9765C168.041 41.3612 168.815 41.0535 169.762 41.0535ZM169.762 41.8412C169.119 41.8412 168.58 42.0299 168.144 42.4073C167.716 42.7847 167.46 43.2812 167.378 43.8965H171.985C171.894 43.2401 171.643 42.7355 171.231 42.3827C170.803 42.0217 170.313 41.8412 169.762 41.8412Z" fill="#6E6E73"/>
<path d="M178.493 43.8842V41.2012H179.308V47.355H178.493V44.6719H174.936V47.355H174.121V41.2012H174.936V43.8842H178.493Z" fill="#6E6E73"/>
<path d="M180.291 41.2012H185.478V41.9889H183.292V47.355H182.477V41.9889H180.291V41.2012Z" fill="#6E6E73"/>
<path d="M189.107 47.5027C188.177 47.5027 187.403 47.195 186.786 46.5796C186.168 45.9478 185.859 45.1806 185.859 44.2781C185.859 43.3673 186.168 42.6042 186.786 41.9889C187.403 41.3653 188.177 41.0535 189.107 41.0535C189.717 41.0535 190.264 41.2012 190.75 41.4965C191.236 41.7837 191.59 42.1735 191.812 42.6658L191.145 43.0473C190.98 42.6781 190.713 42.3868 190.342 42.1735C189.98 41.9519 189.568 41.8412 189.107 41.8412C188.424 41.8412 187.848 42.0791 187.378 42.555C186.909 43.0227 186.674 43.5971 186.674 44.2781C186.674 44.9509 186.909 45.5294 187.378 46.0135C187.848 46.4812 188.424 46.715 189.107 46.715C189.56 46.715 189.968 46.6083 190.33 46.395C190.7 46.1817 190.989 45.8863 191.194 45.5089L191.874 45.9027C191.618 46.395 191.244 46.7847 190.75 47.0719C190.256 47.3591 189.708 47.5027 189.107 47.5027Z" fill="#6E6E73"/>
<path d="M192.182 41.2012H197.369V41.9889H195.183V47.355H194.368V41.9889H192.182V41.2012Z" fill="#6E6E73"/>
<path d="M202.29 44.1919C202.965 44.4381 203.303 44.9181 203.303 45.6319C203.303 46.1406 203.13 46.555 202.784 46.875C202.446 47.195 201.973 47.355 201.364 47.355H198.363V41.2012H201.117C201.71 41.2012 202.171 41.353 202.5 41.6565C202.837 41.9601 203.006 42.3581 203.006 42.8504C203.006 43.4658 202.768 43.913 202.29 44.1919ZM201.117 41.9889H199.178V43.8596H201.117C201.833 43.8596 202.191 43.5396 202.191 42.8996C202.191 42.6124 202.096 42.3909 201.907 42.235C201.726 42.0709 201.463 41.9889 201.117 41.9889ZM199.178 46.5673H201.364C201.726 46.5673 202.002 46.4812 202.191 46.3089C202.389 46.1365 202.488 45.8945 202.488 45.5827C202.488 45.2873 202.389 45.0576 202.191 44.8935C202.002 44.7294 201.726 44.6473 201.364 44.6473H199.178V46.5673Z" fill="#6E6E73"/>
<path d="M209.712 46.5796C209.078 47.195 208.313 47.5027 207.415 47.5027C206.501 47.5027 205.731 47.195 205.106 46.5796C204.48 45.956 204.167 45.1889 204.167 44.2781C204.167 43.3673 204.48 42.6042 205.106 41.9889C205.731 41.3653 206.501 41.0535 207.415 41.0535C208.321 41.0535 209.087 41.3653 209.712 41.9889C210.346 42.6042 210.663 43.3673 210.663 44.2781C210.663 45.1806 210.346 45.9478 209.712 46.5796ZM205.686 46.0135C206.156 46.4812 206.732 46.715 207.415 46.715C208.099 46.715 208.675 46.4812 209.144 46.0135C209.614 45.5294 209.848 44.9509 209.848 44.2781C209.848 43.5971 209.614 43.0227 209.144 42.555C208.675 42.0791 208.099 41.8412 207.415 41.8412C206.732 41.8412 206.156 42.0791 205.686 42.555C205.217 43.0227 204.982 43.5971 204.982 44.2781C204.982 44.9509 205.217 45.5294 205.686 46.0135Z" fill="#6E6E73"/>
</svg>
