<svg width="90" height="20" viewBox="0 0 90 20" fill="none" xmlns="http://www.w3.org/2000/svg">
<ellipse cx="9.60414" cy="10" rx="9.60414" ry="10" fill="#38CB89"/>
<path fill-rule="evenodd" clip-rule="evenodd" d="M32.1754 3.81685C31.8253 3.97567 31.5223 4.48397 31.5214 4.91418C31.5198 5.58279 32.2077 6.1965 32.8268 6.07875C32.9394 6.05733 33.138 5.97543 33.2682 5.89673C33.5558 5.72291 33.8016 5.2594 33.7997 4.8946C33.7974 4.44795 33.4768 3.94587 33.099 3.79727C32.8804 3.71121 32.3851 3.72172 32.1754 3.81685ZM68.8261 3.81507C68.5995 3.92457 68.3683 4.1873 68.2592 4.45923C68.0007 5.10356 68.3774 5.86172 69.0526 6.05578C69.7117 6.24528 70.4506 5.63026 70.4506 4.89234C70.4506 4.57477 70.2489 4.17222 69.9771 3.947C69.7922 3.79383 69.7038 3.76475 69.3787 3.74985C69.139 3.73893 68.9335 3.7632 68.8261 3.81507ZM20.4192 4.87656L20.435 5.72225L21.7602 5.73816L23.0854 5.75412V10.026V14.2979H24.0258H24.9663V10.0249V5.75193H26.3057H27.6452V4.89139V4.03086H24.0243H20.4033L20.4192 4.87656ZM57.7971 5.70178C57.7971 7.28884 57.792 7.36807 57.6973 7.28012C57.6425 7.2292 57.4437 7.1073 57.2556 7.0092C55.4983 6.0927 53.3777 6.74516 52.3525 8.51786C52.0085 9.11276 51.855 9.71199 51.8525 10.47C51.8488 11.6043 52.1894 12.4909 52.9223 13.2545C53.6546 14.0176 54.405 14.3628 55.4225 14.4047C56.2001 14.4367 56.6806 14.326 57.3268 13.9659L57.7971 13.7039V14.0009V14.2979H58.7375H59.678V9.16439V4.03086H58.7375H57.7971V5.70178ZM37.9693 6.67424C37.5882 6.76035 36.9878 7.02801 36.7042 7.23828L36.5368 7.36237V7.03044V6.69851L35.6106 6.71484L34.6844 6.73116V11.6273V16.5234L35.6106 16.5398L36.5368 16.5561V15.1303C36.5368 14.3461 36.5465 13.7044 36.5585 13.7044C36.5703 13.7044 36.7306 13.7989 36.9147 13.9143C37.4323 14.239 37.896 14.3714 38.6227 14.4021C39.1488 14.4243 39.3305 14.4073 39.7031 14.3009C42.5478 13.4883 43.4666 9.85127 41.3708 7.69923C40.5016 6.80665 39.1654 6.40397 37.9693 6.67424ZM46.2874 6.64736C44.7956 6.95205 43.6104 8.13626 43.2882 9.6438C43.1511 10.2861 43.1951 11.1445 43.3971 11.7625C43.8105 13.0279 44.8489 14.0148 46.0969 14.3285C46.4091 14.4069 46.6574 14.425 47.1228 14.4031C47.8174 14.3704 48.2763 14.2358 48.8097 13.9082C48.9923 13.7961 49.1525 13.7044 49.166 13.7044C49.1794 13.7044 49.1904 13.838 49.1904 14.0012V14.2979H50.1023H51.0143V10.4997V6.70148H50.1023H49.1904V6.99822C49.1904 7.30433 49.1064 7.38665 48.9694 7.21472C48.8602 7.07774 48.1384 6.76142 47.7286 6.67104C47.3013 6.57679 46.6828 6.56659 46.2874 6.64736ZM73.1295 6.67578C72.3156 6.85929 71.6632 7.34926 71.3722 7.99549C71.1528 8.48285 71.1555 9.14308 71.3787 9.61816C71.6986 10.299 72.2325 10.6439 73.5285 11.0069C74.4426 11.2628 74.7664 11.4185 74.9392 11.6846C75.1724 12.044 75.0453 12.5223 74.6617 12.7288C74.4164 12.8609 73.8811 12.9061 73.6208 12.8166C73.2117 12.676 72.9015 12.2791 72.9015 11.8963V11.746H71.9895H71.0775L71.0782 11.9685C71.0801 12.572 71.3578 13.169 71.8592 13.6469C72.4153 14.177 73.0769 14.4166 73.9844 14.4166C75.2196 14.4166 76.1757 13.8823 76.6192 12.9444C76.7942 12.5743 76.8058 12.5107 76.8058 11.9253C76.8058 11.3454 76.7939 11.2785 76.6384 10.9861C76.5463 10.813 76.3741 10.5803 76.2557 10.4689C75.8786 10.1142 75.6024 9.99798 74.0699 9.54938C73.2624 9.31294 73.0155 9.12914 73.0155 8.76439C73.0155 8.44682 73.0984 8.31276 73.3763 8.18142C74.0182 7.87798 74.8953 8.24831 74.8962 8.82314C74.8964 8.95573 74.9025 8.95667 75.7593 8.95667H76.6222L76.5909 8.59721C76.4668 7.17264 74.8663 6.28415 73.1295 6.67578ZM80.4896 6.64552C79.5148 6.82712 78.4936 7.57264 77.9594 8.49258C77.5999 9.11151 77.445 9.70397 77.4423 10.47C77.4396 11.2225 77.5374 11.675 77.8325 12.275C78.225 13.0729 78.7893 13.6528 79.5426 14.0321C80.0735 14.2995 80.5717 14.4148 81.1947 14.4148C82.2588 14.4148 83.0272 14.0824 83.7929 13.2906C84.5837 12.4728 84.8706 11.8039 84.9145 10.6762C84.9465 9.85394 84.8664 9.45721 84.5193 8.72C84.3322 8.32267 84.1848 8.11572 83.8214 7.73994C83.0953 6.98926 82.3655 6.65418 81.3657 6.61234C81.0522 6.59923 80.6579 6.61418 80.4896 6.64552ZM26.7142 6.74107C26.6933 6.76279 26.6762 8.47199 26.6762 10.5393V14.2979H27.6167H28.5571V12.016C28.5571 9.41495 28.5784 9.21774 28.8939 8.88902C29.1646 8.60688 29.4133 8.54196 30.2243 8.5416L30.8941 8.54124V7.62136V6.70148H30.363C29.4545 6.70148 28.9885 6.93958 28.7056 7.54813L28.5613 7.85875L28.5593 7.28012L28.5571 6.70148H27.6547C27.1583 6.70148 26.7351 6.71929 26.7142 6.74107ZM31.7188 6.77418C31.7035 6.81578 31.6976 8.51899 31.7058 10.559L31.7205 14.2682H32.6571H33.5938L33.5943 10.4997L33.595 6.73116L32.6707 6.71484C31.9627 6.70237 31.74 6.7162 31.7188 6.77418ZM60.362 6.76433C60.362 6.82564 60.5539 7.41881 62.0413 11.9537C62.4375 13.1614 62.7723 14.183 62.7854 14.2237C62.8035 14.2798 63.0883 14.2979 63.951 14.2979C64.579 14.2979 65.0928 14.2888 65.0928 14.2776C65.0928 14.2663 65.1937 13.9526 65.3169 13.5802C65.4402 13.2079 65.7841 12.1688 66.0811 11.2712C66.3781 10.3736 66.8402 8.97822 67.1078 8.17032L67.5944 6.70148H66.6122H65.63L65.4513 7.28012C65.353 7.5984 65.1318 8.32611 64.9597 8.89733C64.1017 11.7446 63.9664 12.1727 63.9394 12.1245C63.9234 12.0958 63.7252 11.4582 63.499 10.7074C63.2728 9.95668 62.9343 8.83501 62.7467 8.21483C62.5591 7.59466 62.3798 7.00047 62.3483 6.89436L62.291 6.70148H61.3265C60.6854 6.70148 60.362 6.72255 60.362 6.76433ZM68.3853 10.4982L68.3702 14.2979H69.3106H70.2511V10.5145V6.73116L69.3257 6.71484L68.4003 6.69857L68.3853 10.4982ZM85.84 10.4982V14.2979H86.7805H87.7209L87.7222 11.8498C87.7236 9.05525 87.7238 9.05424 88.1824 8.73804C88.414 8.5784 88.46 8.57003 89.2128 8.55038L90.0008 8.52985V7.61567V6.70148H89.4684C88.5871 6.70148 88.1382 6.92119 87.8685 7.48463L87.7255 7.78338L87.709 7.25727L87.6924 6.73116L86.7662 6.71484L85.84 6.69851V10.4982ZM39.3493 8.54285C39.7899 8.71448 40.196 9.11246 40.4252 9.59727C40.5924 9.95098 40.6121 10.0462 40.6116 10.4985C40.611 10.9452 40.5899 11.0491 40.43 11.3899C40.3305 11.6021 40.1897 11.8427 40.1171 11.9247C39.3482 12.7935 38.068 12.8708 37.2554 12.0976C36.694 11.5633 36.4512 10.8316 36.5948 10.107C36.8598 8.77044 38.1104 8.06024 39.3493 8.54285ZM47.8224 8.51021C48.3827 8.71032 48.919 9.31525 49.0866 9.9359C49.1219 10.0665 49.1491 10.3469 49.1471 10.559C49.1395 11.3604 48.716 12.0474 48.0052 12.4118C47.661 12.5882 47.5771 12.6065 47.1111 12.6065C46.6584 12.6065 46.5565 12.5858 46.2581 12.4333C45.8265 12.2126 45.4611 11.8321 45.2672 11.4015C45.1358 11.1096 45.115 10.9867 45.115 10.4997C45.115 9.99394 45.1322 9.90059 45.282 9.59282C45.5597 9.02219 46.1367 8.54623 46.7021 8.42154C47.0058 8.3546 47.4952 8.39329 47.8224 8.51021ZM56.584 8.56961C57.0104 8.77228 57.409 9.18469 57.6044 9.62528C57.7473 9.94736 57.7684 10.0644 57.7672 10.5294C57.7661 10.9811 57.7425 11.1159 57.6144 11.403C57.4276 11.8216 57.0427 12.2199 56.6125 12.4399C56.3287 12.585 56.2204 12.6065 55.7736 12.6065C55.3373 12.6065 55.2123 12.583 54.9372 12.4487C53.7145 11.8519 53.3472 10.3514 54.1443 9.20961C54.666 8.46237 55.7566 8.17632 56.584 8.56961ZM81.9964 8.5651C82.4068 8.76071 82.8397 9.19424 83.0318 9.60202C83.1699 9.89519 83.1891 10.0047 83.1894 10.4997C83.1895 10.987 83.169 11.1094 83.0374 11.4015C82.8433 11.8328 82.4465 12.2459 82.0323 12.4481C81.7557 12.5831 81.6316 12.6065 81.1935 12.6065C80.7276 12.6065 80.6436 12.5882 80.2995 12.4118C79.5841 12.0452 79.167 11.3649 79.1646 10.561C79.1632 10.1018 79.202 9.90552 79.3585 9.57982C79.5376 9.20736 79.7234 8.98374 80.0435 8.75561C80.6233 8.34243 81.3754 8.26902 81.9964 8.5651Z" fill="black"/>
<path fill-rule="evenodd" clip-rule="evenodd" d="M8.86319 5.27972C7.69764 5.38156 6.34491 5.85485 5.37264 6.50096L5.07397 6.69942L3.79089 6.71538L2.50781 6.73135L3.08013 7.37206L3.65239 8.01271L3.36774 8.34518C2.65692 9.17568 2.36081 10.3905 2.59223 11.5275C2.85162 12.8023 3.83421 13.9039 5.06622 14.3011C5.49655 14.4399 6.39421 14.4689 6.86228 14.3592C7.24285 14.2699 7.89457 13.947 8.22002 13.6864C8.47196 13.4846 8.49344 13.4778 8.56201 13.5782C8.73409 13.8299 9.55303 14.7122 9.61516 14.7128C9.65261 14.7132 9.71673 14.6641 9.75766 14.6038C9.8993 14.3949 10.6846 13.5266 10.7319 13.5266C10.758 13.5266 10.874 13.6052 10.9897 13.7013C11.5535 14.1695 12.3071 14.4225 13.138 14.4225C14.1554 14.4225 14.8868 14.1067 15.6234 13.3492C16.4947 12.4531 16.8603 11.2165 16.615 9.99544C16.5066 9.45639 16.1438 8.69509 15.8121 8.31099L15.5495 8.00684L16.0964 7.39182C16.3973 7.0536 16.6434 6.75989 16.6434 6.73924C16.6434 6.71859 16.0824 6.70167 15.3967 6.70167H14.1499L13.7055 6.42357C12.6825 5.78334 11.4692 5.38429 10.2259 5.27918C9.82782 5.24553 9.47375 5.22179 9.43915 5.22648C9.4045 5.23111 9.14533 5.25509 8.86319 5.27972ZM11.7419 6.85372C11.4838 6.7688 11.0511 6.66156 10.7804 6.61538C10.2183 6.5196 9.53901 6.47069 9.20518 6.50209C8.55779 6.56292 8.01124 6.67081 7.52374 6.8339L6.98226 7.01503L7.21749 7.11989C7.96251 7.45194 8.80853 8.2485 9.1773 8.96506C9.28417 9.17271 9.42895 9.54292 9.49906 9.78773C9.56916 10.0325 9.62844 10.1661 9.63084 10.0845C9.63825 9.8247 9.90158 9.13918 10.1396 8.75989C10.5614 8.08761 11.2332 7.47995 11.9218 7.14779L12.2113 7.00808L11.7419 6.85372ZM7.06992 8.52334C8.08517 9.04423 8.62613 10.2259 8.35511 11.3308C7.96935 12.9032 6.36577 13.6589 4.97274 12.9249C3.57082 12.1861 3.27295 10.1479 4.39991 9.005C4.91871 8.47889 5.36369 8.30268 6.12889 8.32043C6.64267 8.33236 6.7378 8.35289 7.06992 8.52334ZM5.38062 11.85C4.5664 11.2791 4.612 10.0614 5.46498 9.59746C6.02327 9.29378 6.6193 9.41164 7.02575 9.90607C7.44599 10.4173 7.4257 11.1777 6.97895 11.6567C6.71152 11.9434 6.46489 12.0429 6.02156 12.0429C5.70323 12.0429 5.61995 12.0179 5.38062 11.85ZM14.7961 12.4854C15.9506 11.3117 15.6217 9.28423 14.1548 8.53224C13.8092 8.35515 13.7154 8.33432 13.1983 8.31978C12.7234 8.30642 12.5712 8.32547 12.3116 8.43058C11.6895 8.6825 11.2492 9.11722 10.9575 9.76779C10.8195 10.0754 10.8021 10.1838 10.8016 10.7373C10.8012 11.3162 10.8141 11.389 10.984 11.7624C11.7006 13.3376 13.6028 13.6984 14.7961 12.4854ZM12.7105 9.47479C12.4277 9.5866 12.1189 9.88381 11.9929 10.1656C11.7025 10.8149 11.8923 11.4878 12.4739 11.8719C12.6924 12.0162 12.7922 12.0429 13.1117 12.0429C13.764 12.0429 14.2073 11.6833 14.3735 11.0192C14.5707 10.2316 13.9276 9.42429 13.1126 9.43633C12.9385 9.43889 12.7576 9.45621 12.7105 9.47479Z" fill="black"/>
</svg>
