<svg width="345" height="782" viewBox="0 0 345 782" fill="none" xmlns="http://www.w3.org/2000/svg">
<path fill-rule="evenodd" clip-rule="evenodd" d="M188.625 69.0018L188.559 68.8788C188.529 68.7908 188.508 68.8128 188.496 68.9478L188.324 68.8758C188.954 69.7438 189.759 70.4918 190.508 71.2548C191.263 72.0248 192.028 72.7878 192.796 73.5458C194.34 75.0688 195.921 76.5518 197.528 78.0088C200.707 80.8898 203.992 83.6548 207.33 86.3498C210.443 88.8608 213.633 91.2658 216.803 93.7018C219.22 95.5598 221.513 97.5808 223.772 99.6248C224.972 100.711 226.168 101.796 227.4 102.846C228.478 103.767 229.604 104.631 230.671 105.565C230.893 105.76 231.122 105.945 231.352 106.131C231.494 106.246 231.544 105.928 231.477 105.845C230.578 104.728 229.605 103.663 228.641 102.603C227.539 101.39 226.403 100.22 225.195 99.1128C222.879 96.9908 220.526 94.8988 218.068 92.9418C216.763 91.9038 215.413 90.9238 214.09 89.9098C212.399 88.6148 210.72 87.3028 209.055 85.9748C205.708 83.3028 202.433 80.5478 199.181 77.7628C195.947 74.9938 192.746 72.1788 189.61 69.2988C189.257 68.9748 188.884 68.6488 188.484 68.3838L188.315 68.4618C188.143 68.7908 188.256 69.0478 188.549 69.2368C188.656 69.3048 188.65 69.0458 188.625 69.0018Z" fill="#E4A709"/>
<path fill-rule="evenodd" clip-rule="evenodd" d="M188.225 68.6617C188.407 68.5387 188.489 68.3677 188.576 68.1707C188.708 67.8747 188.812 67.5667 188.907 67.2557C189.111 66.5837 189.336 65.9147 189.53 65.2407C190.129 63.1637 190.766 61.0967 191.436 59.0417C192.727 55.0777 194.259 51.2117 195.837 47.3557C196.65 45.3707 197.596 43.2337 197.356 41.0417C197.347 40.9577 197.233 40.8497 197.18 40.9677C196.446 42.6117 195.992 44.3697 195.326 46.0437C194.61 47.8467 193.853 49.6317 193.156 51.4417C191.619 55.4307 190.314 59.5197 189.229 63.6537C188.997 64.5377 188.733 65.4147 188.527 66.3057C188.439 66.6827 188.355 67.0617 188.263 67.4377C188.204 67.6787 188.142 68.0037 188.035 68.1527C187.954 68.2647 188.011 68.8087 188.225 68.6617Z" fill="#E4A709"/>
<path fill-rule="evenodd" clip-rule="evenodd" d="M197.907 41.6378L197.853 41.3758L197.521 41.5218L197.613 41.6678C197.7 41.7538 197.827 41.8228 197.925 41.8998C198.237 42.1428 198.591 42.2988 198.928 42.5008C199.668 42.9478 200.34 43.5048 200.991 44.0698C201.664 44.6528 202.323 45.2538 203.022 45.8058C203.786 46.4088 204.538 47.0258 205.286 47.6488C208.327 50.1848 211.227 52.8768 214.221 55.4668C216.999 57.8698 219.83 60.2098 222.686 62.5188C225.254 64.5938 227.841 66.6468 230.397 68.7358C231.726 69.8218 233.047 70.9168 234.355 72.0268C235.042 72.6098 235.725 73.1958 236.405 73.7868C237.1 74.3908 237.798 75.0078 238.588 75.4888C238.99 75.7338 239.388 75.9768 239.778 76.2418C239.986 76.3828 240.002 75.9618 239.906 75.8508C239.228 75.0698 238.613 74.2138 237.852 73.5108C237.184 72.8938 236.495 72.3008 235.805 71.7088C234.503 70.5908 233.188 69.4878 231.863 68.3968C229.34 66.3178 226.782 64.2828 224.235 62.2328C221.473 60.0118 218.73 57.7698 216.034 55.4708C213.056 52.9328 210.13 50.3348 207.141 47.8108C206.387 47.1738 205.627 46.5428 204.86 45.9218C204.156 45.3528 203.422 44.8198 202.72 44.2488C201.423 43.1928 200.154 41.9908 198.599 41.3218C198.32 41.2018 198.057 41.0468 197.789 40.9058L197.598 40.9518C197.75 40.8368 197.566 40.9568 197.535 40.9888C197.443 41.0838 197.425 41.2398 197.438 41.3648C197.461 41.5788 197.598 41.7098 197.752 41.8448C197.87 41.9478 197.924 41.7148 197.907 41.6378Z" fill="#E4A709"/>
<path fill-rule="evenodd" clip-rule="evenodd" d="M239.383 75.4058C239.004 76.4068 238.793 77.4618 238.539 78.5018C238.279 79.5678 238.041 80.6398 237.796 81.7098C237.31 83.8318 236.778 85.9398 236.24 88.0488C235.702 90.1518 235.132 92.2468 234.529 94.3318C234.229 95.3708 233.92 96.4068 233.601 97.4408C233.317 98.3608 232.996 99.2718 232.761 100.207C232.512 101.198 232.319 102.204 232.056 103.192C231.931 103.66 231.792 104.126 231.613 104.576C231.525 104.796 231.404 105.018 231.362 105.253C231.323 105.473 231.314 105.694 231.266 105.915C231.244 106.015 231.298 106.253 231.445 106.199C231.559 106.158 231.683 106.116 231.79 106.06C231.986 105.957 232.077 105.747 232.165 105.555C232.352 105.149 232.494 104.723 232.62 104.294C232.888 103.389 233.077 102.462 233.286 101.542C233.726 99.6058 234.413 97.7178 234.972 95.8108C236.222 91.5468 237.28 87.2368 238.252 82.9018C238.528 81.6758 238.785 80.4458 239.033 79.2138C239.281 77.9868 239.524 76.7448 239.594 75.4948C239.602 75.3518 239.45 75.2298 239.383 75.4058Z" fill="#E4A709"/>
<path fill-rule="evenodd" clip-rule="evenodd" d="M197.297 41.5167C197.481 41.3227 197.739 41.1667 197.957 41.0147C198.261 40.8037 198.613 40.6427 198.941 40.4727C199.623 40.1197 200.317 39.7857 200.974 39.3867C202.873 38.2307 204.766 37.0677 206.646 35.8807C208.558 34.6727 210.467 33.4607 212.402 32.2907C213.368 31.7067 214.34 31.1337 215.321 30.5757C216.203 30.0747 217.077 29.5837 217.908 28.9997C218.789 28.3797 219.641 27.7197 220.541 27.1287C221.001 26.8277 221.472 26.5447 221.939 26.2557C222.418 25.9587 222.853 25.5827 223.374 25.3617C223.494 25.3107 223.487 24.9457 223.334 24.9707C223.11 25.0067 222.894 25.0297 222.668 25.0507C222.431 25.0717 222.215 25.1467 221.985 25.2017C221.529 25.3117 221.088 25.5717 220.693 25.8187C219.864 26.3367 219.082 26.9257 218.291 27.4987C217.492 28.0797 216.679 28.6227 215.815 29.1047C214.814 29.6637 213.823 30.2397 212.838 30.8287C208.913 33.1787 205.096 35.7037 201.182 38.0737C200.401 38.5467 199.585 38.9737 198.824 39.4787C198.155 39.9227 197.363 40.4717 197.157 41.2937C197.141 41.3567 197.18 41.6407 197.297 41.5167Z" fill="#E4A709"/>
<path fill-rule="evenodd" clip-rule="evenodd" d="M239.984 75.7198C241.731 74.4758 243.764 73.7738 245.744 72.9938C246.739 72.6018 247.677 72.1448 248.617 71.6378C249.291 71.2748 249.971 70.9218 250.654 70.5758C254.017 68.8688 257.441 67.2718 260.891 65.7498C261.816 65.3418 262.745 64.9448 263.675 64.5498C264.098 64.3698 264.509 64.1838 264.888 63.9208C265.244 63.6718 265.644 63.4698 266.028 63.2638C266.156 63.1958 266.16 62.7608 265.98 62.8048C265.255 62.9828 264.508 63.0828 263.808 63.3468C262.981 63.6578 262.172 64.0298 261.362 64.3828C259.595 65.1528 257.839 65.9488 256.093 66.7648C254.39 67.5598 252.698 68.3768 251.019 69.2228C250.297 69.5868 249.577 69.9558 248.864 70.3358C248.005 70.7928 247.169 71.2648 246.27 71.6428C244.054 72.5728 241.459 73.2078 239.803 75.0648C239.697 75.1828 239.681 75.3698 239.723 75.5168C239.749 75.6038 239.858 75.8098 239.984 75.7198Z" fill="#E4A709"/>
<path fill-rule="evenodd" clip-rule="evenodd" d="M223.56 25.1317C224.169 25.8197 224.859 26.4307 225.535 27.0517C226.213 27.6747 226.896 28.2917 227.583 28.9037C228.998 30.1657 230.413 31.4277 231.827 32.6897C234.726 35.2767 237.659 37.8227 240.558 40.4087C243.495 43.0277 246.443 45.6357 249.366 48.2717C252.238 50.8627 255.089 53.4767 257.906 56.1287C258.54 56.7257 259.159 57.3407 259.816 57.9137C260.417 58.4377 261.042 58.9347 261.661 59.4377C262.928 60.4627 264.148 61.5077 265.208 62.7507C265.415 62.9927 265.631 63.1977 265.861 63.4167C265.973 63.5227 266.105 63.4547 266.175 63.3417C266.272 63.1857 266.251 62.9827 266.204 62.8147C266.095 62.4227 265.954 62.0797 265.724 61.7427C265.498 61.4127 265.224 61.1107 264.951 60.8207C264.388 60.2267 263.775 59.6817 263.15 59.1547C261.903 58.1037 260.597 57.1247 259.412 56.0017C256.605 53.3417 253.761 50.7227 250.894 48.1267C247.969 45.4787 245.03 42.8427 242.052 40.2537C239.109 37.6967 236.183 35.1197 233.214 32.5927C230.384 30.1847 227.574 27.7487 224.699 25.3937C224.366 25.1217 224.035 24.8717 223.674 24.6377C223.578 24.5747 223.504 24.7347 223.487 24.7967C223.457 24.9117 223.482 25.0427 223.56 25.1317Z" fill="#E4A709"/>
<path fill-rule="evenodd" clip-rule="evenodd" d="M223.413 24.7748L223.237 24.6108L223.124 24.5708C222.936 24.5428 223.155 24.5418 223.129 24.8098L223.038 25.0178C223.531 24.5298 223.888 23.9118 224.185 23.2898C224.538 22.5518 224.845 21.7928 225.129 21.0268C225.717 19.4428 226.209 17.8258 226.766 16.2308C227.951 12.8408 229.688 9.66278 231.089 6.35978C231.497 5.39878 231.91 4.43078 232.247 3.44078C232.6 2.40278 232.836 1.33178 232.98 0.245783C232.99 0.174783 232.899 -0.0372173 232.831 0.106783C232.437 0.944783 232.041 1.78578 231.704 2.65078C231.342 3.58178 230.99 4.51678 230.605 5.43978C229.837 7.28078 229.021 9.10378 228.202 10.9238C227.449 12.5968 226.697 14.2628 226.104 15.9998C225.527 17.6948 225.015 19.4128 224.372 21.0838C224.041 21.9428 223.651 22.7678 223.243 23.5918C223.145 23.7898 223.037 23.9808 222.933 24.1748C222.824 24.3778 222.695 24.5788 222.73 24.8178C222.751 24.9618 222.821 25.1518 222.989 25.1668C223.133 25.1808 223.222 25.0158 223.354 25.0358C223.467 25.0538 223.442 24.8268 223.413 24.7748Z" fill="#E4A709"/>
<path fill-rule="evenodd" clip-rule="evenodd" d="M233.12 0.410743C234.412 1.41674 235.656 2.49274 236.798 3.66774C238.008 4.91374 239.155 6.21574 240.341 7.48174C241.479 8.69574 242.687 9.83674 243.866 11.0097C245.145 12.2827 246.429 13.5517 247.715 14.8187C250.368 17.4307 253.033 20.0307 255.695 22.6337C258.367 25.2447 261.027 27.8667 263.707 30.4677C265.032 31.7517 266.365 33.0247 267.709 34.2877C268.355 34.8937 269.041 35.4587 269.688 36.0627C270.326 36.6587 271.008 37.2047 271.645 37.7997C271.961 38.0947 272.277 38.3817 272.612 38.6557C272.742 38.7617 272.761 38.4657 272.698 38.3917C272.11 37.6897 271.469 37.0337 270.862 36.3467C270.241 35.6437 269.6 34.9497 268.951 34.2717C267.667 32.9347 266.395 31.5917 265.075 30.2897C262.409 27.6617 259.715 25.0627 257.029 22.4547C254.352 19.8567 251.681 17.2537 249.017 14.6437C247.71 13.3617 246.405 12.0787 245.104 10.7917C244.472 10.1667 243.841 9.53974 243.208 8.91574C242.64 8.35574 242.042 7.82874 241.481 7.26074C240.295 6.06274 239.158 4.81674 237.966 3.62574C236.821 2.48274 235.59 1.31574 234.202 0.471743C233.891 0.282743 233.549 0.143743 233.213 0.00874317C233.03 -0.0632568 233.018 0.330743 233.12 0.410743Z" fill="#E4A709"/>
<path fill-rule="evenodd" clip-rule="evenodd" d="M266.044 63.1318L266.144 62.9728C266.254 62.9738 266.312 62.8577 266.345 62.7728C266.634 62.0198 266.932 61.2778 267.184 60.5118C267.439 59.7368 267.67 58.9558 267.899 58.1738C268.357 56.6108 268.778 55.0378 269.193 53.4628C270.027 50.2988 270.867 47.1278 271.598 43.9388C271.801 43.0568 271.972 42.1688 272.175 41.2878C272.383 40.3868 272.579 39.4738 272.754 38.5658C272.779 38.4378 272.64 38.2508 272.567 38.4408C272.281 39.1848 272.07 39.9538 271.79 40.6988C271.651 41.0688 271.53 41.4588 271.415 41.8358C271.299 42.2208 271.173 42.6028 271.061 42.9888C270.604 44.5638 270.212 46.1558 269.81 47.7448C268.997 50.9598 268.181 54.1748 267.287 57.3678C267.03 58.2858 266.768 59.2028 266.512 60.1208C266.382 60.5818 266.261 61.0428 266.146 61.5078C266.09 61.7348 266.035 61.9618 265.977 62.1888C265.944 62.3168 265.896 62.4488 265.899 62.5828C265.902 62.7358 265.932 62.8468 265.908 63.0048C265.897 63.0748 265.974 63.2568 266.044 63.1318Z" fill="#E4A709"/>
<path fill-rule="evenodd" clip-rule="evenodd" d="M221.64 90.7808C220.029 89.1038 218.154 87.6998 216.78 85.7978C216.238 85.0468 215.767 84.2468 215.459 83.3698C215.146 82.4778 215.061 81.5538 215.183 80.6168C215.412 78.8748 216.364 77.3298 217.825 76.3438C219.315 75.3378 221.124 75.0208 222.883 75.3388C226.134 75.9278 228.921 78.3138 230.602 81.0758C231.443 82.4588 232.06 83.9538 232.318 85.5128C232.348 85.6948 232.373 85.8778 232.394 86.0618C232.414 86.2418 232.385 85.9538 232.401 86.1338L232.409 86.2428C232.418 86.3518 232.425 86.4608 232.43 86.5698C232.437 86.7508 232.44 86.9308 232.437 87.1118C232.436 87.2108 232.432 87.3088 232.428 87.4068C232.423 87.5098 232.438 87.2748 232.426 87.4458L232.413 87.6058C232.396 87.7998 232.371 87.9928 232.34 88.1848L232.294 88.4448L232.25 88.6508L232.244 88.6708C232.155 89.0278 232.041 89.3778 231.899 89.7168C231.63 90.3608 231.173 91.0898 230.558 91.5548C229.868 92.0758 229.005 92.3458 228.154 92.4448C226.288 92.6628 224.275 92.1868 222.703 91.1588C222.53 91.0448 222.353 90.9388 222.18 90.8258C222.019 90.7218 221.819 90.6798 221.64 90.6068C221.371 90.4968 221.395 91.0248 221.465 91.1458C221.593 91.3648 221.721 91.6048 221.902 91.7848C222.093 91.9728 222.315 92.1348 222.543 92.2748C222.954 92.5258 223.39 92.7398 223.837 92.9218C224.79 93.3098 225.819 93.5448 226.846 93.6028C228.779 93.7138 230.817 93.1218 231.902 91.4148C233.812 88.4098 233.223 84.5138 231.715 81.4808C230.168 78.3698 227.346 75.5828 223.969 74.5728C222.183 74.0388 220.283 74.0448 218.577 74.8508C216.84 75.6708 215.537 77.2078 214.967 79.0378C214.345 81.0308 214.646 83.1708 215.622 84.9938C216.67 86.9498 218.372 88.5158 220.045 89.9338C220.531 90.3448 221.038 90.7258 221.575 91.0658C221.694 91.1418 221.696 90.8388 221.64 90.7808Z" fill="#E4A709"/>
<path fill-rule="evenodd" clip-rule="evenodd" d="M224.137 84.9698C223.644 84.3388 222.975 83.8398 222.372 83.3168C221.755 82.7808 221.147 82.2338 220.555 81.6688C219.363 80.5328 218.257 79.3098 217.224 78.0268C217.143 78.2768 217.061 78.5278 216.98 78.7788C218.505 79.5178 219.953 80.4078 221.355 81.3588C222.763 82.3148 224.099 83.3638 225.487 84.3458C225.868 84.6158 225.999 83.7748 225.741 83.5698C224.389 82.4958 222.965 81.4908 221.535 80.5248C220.113 79.5658 218.65 78.6618 217.103 77.9148C216.759 77.7478 216.728 78.5038 216.859 78.6668C217.899 79.9558 219.069 81.1278 220.271 82.2658C220.875 82.8368 221.495 83.3928 222.127 83.9328C222.434 84.1948 222.75 84.4468 223.068 84.6948C223.368 84.9278 223.674 85.1618 224.031 85.2948C224.185 85.3538 224.195 85.0458 224.137 84.9698Z" fill="#E4A709"/>
<path fill-rule="evenodd" clip-rule="evenodd" d="M223.881 85.5237C224.051 85.5897 224.193 85.7127 224.358 85.7937C224.508 85.8667 224.661 85.9297 224.813 85.9987C225.137 86.1447 225.454 86.3067 225.765 86.4777C226.391 86.8227 227.002 87.1927 227.603 87.5797C228.817 88.3597 230 89.1957 231.275 89.8727C231.386 89.9317 231.463 89.7747 231.482 89.6967C231.513 89.5657 231.486 89.4327 231.401 89.3277C230.42 88.1207 229.203 87.1367 228.122 86.0237C227.722 85.6117 227.357 85.1707 226.975 84.7427C226.804 84.5517 226.633 84.3597 226.457 84.1737C226.328 84.0357 226.2 83.8737 226.016 83.8107C225.683 83.6957 225.617 84.4877 225.908 84.5637C226.295 84.6657 226.592 85.0487 226.845 85.3327C227.232 85.7667 227.606 86.2097 228.015 86.6237C229.08 87.7037 230.27 88.6657 231.232 89.8437C231.274 89.6627 231.316 89.4807 231.358 89.2987C230.081 88.6267 228.898 87.7957 227.683 87.0217C227.083 86.6387 226.477 86.2577 225.843 85.9327C225.542 85.7767 225.235 85.6307 224.922 85.4997C224.759 85.4317 224.597 85.3637 224.426 85.3177C224.255 85.2727 224.09 85.2927 223.92 85.2537C223.795 85.2257 223.782 85.4837 223.881 85.5237Z" fill="#E4A709"/>
<path fill-rule="evenodd" clip-rule="evenodd" d="M226.164 83.9418C226.444 82.9388 226.675 81.9158 226.89 80.8968C227 80.3738 227.097 79.8468 227.159 79.3158C227.19 79.0428 227.212 78.7668 227.223 78.4918C227.233 78.2488 227.218 78.0598 227.05 77.8748L226.818 77.8798C225.979 78.8988 225.369 80.1258 224.949 81.3728C224.848 81.6688 224.753 81.9728 224.693 82.2798C224.662 82.4358 224.659 82.6768 224.801 82.7918L224.879 82.8318L225.151 82.5158L225.218 82.2628C225.393 81.6348 225.635 81.0238 225.917 80.4378C226.239 79.7718 226.601 79.1148 227.064 78.5368L226.832 78.5418L226.905 78.6038C226.866 78.4978 226.827 78.3928 226.788 78.2868C226.858 80.1568 226.079 81.9378 225.921 83.7788L226.002 84.0348L226.164 83.9418Z" fill="#E4A709"/>
<path fill-rule="evenodd" clip-rule="evenodd" d="M223.174 85.2068C223.054 85.5858 223.037 85.9988 222.968 86.3888C222.888 86.8448 222.797 87.2978 222.705 87.7518C222.521 88.6568 222.366 89.5708 222.316 90.4948C222.309 90.6218 222.479 91.0098 222.644 90.7958C223.192 90.0858 223.653 89.3178 224.085 88.5338C224.297 88.1478 224.503 87.7578 224.712 87.3698C224.935 86.9528 225.068 86.5208 225.23 86.0788C225.248 86.0278 225.207 85.8208 225.125 85.9118C224.858 86.2078 224.61 86.4758 224.42 86.8288C224.218 87.2028 224.02 87.5788 223.816 87.9518C223.393 88.7228 222.945 89.4808 222.415 90.1848C222.525 90.2858 222.634 90.3858 222.744 90.4858C222.784 89.5778 222.964 88.6858 223.114 87.7918C223.188 87.3468 223.265 86.9018 223.318 86.4548C223.365 86.0578 223.434 85.6388 223.355 85.2428C223.334 85.1328 223.217 85.0728 223.174 85.2068Z" fill="#E4A709"/>
<path fill-rule="evenodd" clip-rule="evenodd" d="M220.826 76.8797L220.842 76.9777L220.851 76.8097C220.757 77.0947 220.907 77.4397 221.02 77.7007C221.085 77.8487 221.149 77.9977 221.222 78.1427C221.295 78.2847 221.391 78.5007 221.565 78.5217L221.452 78.4737L221.443 78.4587L221.465 78.4887L221.518 78.5487L221.576 78.5867L221.55 78.5717L221.64 78.6577L221.617 78.6367L221.635 78.6627L221.66 78.6987L221.738 78.7787L221.856 78.6617L221.826 78.4247L221.825 78.4127L221.812 78.3057L221.805 78.2657L221.802 78.2647H221.803L221.797 78.2007L221.777 78.0927L221.776 78.2307L221.771 78.0237L221.715 77.8127C221.687 77.7157 221.645 77.6217 221.602 77.5307C221.515 77.3477 221.423 77.1697 221.317 76.9967C221.248 76.8837 221.118 76.6627 220.957 76.6947L221.023 76.7227L220.973 76.6837C220.855 76.5907 220.814 76.8037 220.826 76.8797Z" fill="#E4A709"/>
<path fill-rule="evenodd" clip-rule="evenodd" d="M217.697 85.9677L217.827 85.8947L217.994 85.8017C218.13 85.7257 218.276 85.6597 218.42 85.6017C218.579 85.5377 218.736 85.4787 218.885 85.3937L219.115 85.2337L219.206 85.1487L219.323 85.0537C219.379 85.0027 219.382 84.7917 219.275 84.7957L219.157 84.8057L219.035 84.7997C218.945 84.8007 218.858 84.8157 218.77 84.8337C218.583 84.8707 218.411 84.9487 218.243 85.0367C218.087 85.1197 217.943 85.2157 217.819 85.3427C217.688 85.4787 217.63 85.6567 217.591 85.8377L217.697 85.9677Z" fill="#E4A709"/>
<path fill-rule="evenodd" clip-rule="evenodd" d="M226.91 91.4038L226.915 91.3498L226.911 91.3358L226.928 91.1428C226.922 91.0448 226.903 90.9458 226.887 90.8488C226.856 90.6628 226.819 90.4818 226.774 90.2988C226.725 90.1008 226.674 89.9068 226.59 89.7208L226.485 89.4938L226.425 89.3738L226.37 89.2548L226.263 89.3048C226.247 89.3938 226.25 89.4898 226.246 89.5798L226.249 89.6698L226.252 89.6908L226.249 89.8678C226.262 90.1068 226.308 90.3278 226.374 90.5578C226.423 90.7268 226.479 90.8908 226.539 91.0558L226.618 91.2768L226.706 91.4298L226.74 91.4828C226.806 91.5878 226.902 91.4928 226.91 91.4038Z" fill="#E4A709"/>
<path fill-rule="evenodd" clip-rule="evenodd" d="M229.221 82.8388L229.267 82.8168L229.201 82.8048C229.305 82.8848 229.481 82.7818 229.591 82.7418C229.729 82.6908 229.868 82.6428 230.007 82.5928C230.156 82.5408 230.307 82.4998 230.453 82.4358L230.679 82.3098L230.908 82.1508C230.991 82.0908 231.009 81.8628 230.876 81.8468L230.752 81.8398L230.614 81.8218L230.375 81.8288C230.202 81.8528 230.038 81.9098 229.876 81.9738C229.724 82.0348 229.576 82.1228 229.449 82.2258L229.279 82.3948L229.189 82.5248L229.165 82.5948L229.143 82.6288C229.108 82.6788 229.122 82.8858 229.221 82.8388Z" fill="#E4A709"/>
<path fill-rule="evenodd" clip-rule="evenodd" d="M247.233 28.6088C246.694 28.4858 246.152 28.4268 245.604 28.3468C244.968 28.2528 244.332 28.1528 243.695 28.0668C242.334 27.8838 240.978 27.6188 239.659 27.2328C237.458 26.5888 234.769 25.4638 233.849 23.2308C233.389 22.1128 233.288 20.8638 233.498 19.6718C233.693 18.5618 234.28 17.4278 235.394 16.9578C236.615 16.4418 238.005 16.8228 239.071 17.5148C240.191 18.2408 241.077 19.3128 241.826 20.4018C242.188 20.9278 242.524 21.4718 242.842 22.0258C243.222 22.6878 243.63 23.3318 243.993 24.0048C244.794 25.4898 245.496 27.0448 246.411 28.4648C246.611 28.7758 246.816 28.9938 247.159 29.1268C247.327 29.1918 247.371 28.9018 247.346 28.7988C247.293 28.5878 247.259 28.3678 247.168 28.1688C247.071 27.9588 246.966 27.7538 246.848 27.5548C246.626 27.1788 246.406 26.8008 246.195 26.4178C245.771 25.6468 245.371 24.8638 244.965 24.0838C244.246 22.7078 243.475 21.3508 242.631 20.0458C241.855 18.8478 240.954 17.6728 239.818 16.7918C238.721 15.9418 237.322 15.3468 235.912 15.6208C232.875 16.2118 232.35 20.0748 232.883 22.5918C233.156 23.8828 233.753 25.0308 234.729 25.9298C235.715 26.8368 236.944 27.4658 238.189 27.9358C239.552 28.4498 240.977 28.7908 242.413 29.0198C243.738 29.2308 245.051 29.3298 246.391 29.2578C246.668 29.2428 246.93 29.2018 247.201 29.1448C247.388 29.1048 247.435 28.6548 247.233 28.6088Z" fill="#E4A709"/>
<path fill-rule="evenodd" clip-rule="evenodd" d="M236.585 24.3938C236.343 24.1668 236.145 23.8638 235.95 23.5938C235.756 23.3268 235.576 23.0528 235.43 22.7558C235.155 22.1968 234.925 21.6088 234.939 20.9758C234.969 19.7438 236.08 18.9948 237.233 18.9868C238.279 18.9788 239.27 19.6268 239.888 20.4398C240.204 20.8568 240.463 21.3638 240.566 21.8078C240.589 21.9098 240.622 22.0978 240.628 22.1468L240.637 22.2968C240.637 22.3208 240.629 22.5218 240.636 22.4238C240.614 22.7328 240.592 22.8598 240.49 23.1318C240.412 23.3388 240.232 23.6178 240.045 23.8228C239.831 24.0578 239.585 24.2578 239.303 24.4048C239.024 24.5498 238.726 24.6328 238.41 24.6088C238.075 24.5838 237.814 24.4008 237.554 24.2058C237.449 24.1278 237.35 24.1198 237.25 24.2128C237.146 24.3098 237.109 24.4608 237.113 24.5998C237.107 24.3818 237.141 24.2908 237.122 24.4728L237.111 24.6478C237.12 24.9428 237.306 25.1718 237.537 25.3368C237.845 25.5558 238.202 25.6848 238.582 25.6788C239.293 25.6678 239.952 25.2338 240.404 24.7108C241.382 23.5788 241.44 21.9838 240.822 20.6588C240.259 19.4508 239.185 18.3908 237.843 18.1298C237.534 18.0688 237.22 18.0528 236.907 18.0988C236.551 18.1498 236.261 18.2718 235.957 18.4588C235.288 18.8688 234.774 19.4168 234.581 20.1948C234.366 21.0588 234.533 21.9848 234.9 22.7838C235.086 23.1878 235.334 23.5488 235.629 23.8808C235.762 24.0298 235.909 24.1598 236.07 24.2788C236.223 24.3918 236.385 24.4488 236.552 24.5388L236.585 24.3938Z" fill="#E4A709"/>
<path fill-rule="evenodd" clip-rule="evenodd" d="M216.575 72.9378C216.643 72.8248 216.644 72.7048 216.651 72.5848C216.657 72.4728 216.66 72.3588 216.639 72.2488C216.597 72.0788 216.593 72.0808 216.63 72.2558L216.594 72.0268C216.501 71.6798 216.331 71.3568 216.184 71.0288C215.911 70.4218 215.599 69.8338 215.327 69.2258C215.056 68.6188 214.817 67.9998 214.58 67.3798C214.361 66.8078 214.106 66.2568 213.888 65.6858C213.841 65.5628 213.743 65.6268 213.722 65.7258C213.451 67.0458 213.806 68.3478 214.336 69.5698C214.597 70.1748 214.885 70.7708 215.189 71.3548C215.326 71.6158 215.453 71.8868 215.609 72.1358C215.764 72.3838 215.961 72.7228 216.23 72.8598L216.082 72.7218L216.296 72.9348L216.389 73.0238L216.575 72.9378Z" fill="#E4A709"/>
<path fill-rule="evenodd" clip-rule="evenodd" d="M213.784 63.2747L213.873 63.1077L213.913 62.8767L213.912 62.8577C213.928 62.6687 213.944 62.4837 213.948 62.2937C213.951 62.1337 213.945 61.9737 213.946 61.8137C213.946 61.6467 213.933 61.4627 213.961 61.2977C213.936 61.4467 213.963 61.2597 213.967 61.1747L213.973 61.0497C213.978 60.9307 213.968 61.1137 213.973 61.0367L213.982 60.9117C213.997 60.7077 214.002 60.5047 214.007 60.3007C214.01 60.1897 214.012 60.0747 213.992 59.9647C213.966 59.8237 213.996 60.0627 213.979 59.9027L213.963 59.7787C213.951 59.6047 213.94 59.4337 213.913 59.2607C213.898 59.1657 213.795 59.0677 213.727 59.1837C213.646 59.3237 213.598 59.4737 213.534 59.6207L213.514 59.6527L213.479 59.7367L213.447 59.8007C213.396 59.9177 213.373 60.0427 213.348 60.1677C213.269 60.5607 213.238 60.9617 213.229 61.3637C213.221 61.7517 213.227 62.1437 213.293 62.5277C213.311 62.6377 213.542 63.5327 213.784 63.2747Z" fill="#E4A709"/>
<path fill-rule="evenodd" clip-rule="evenodd" d="M216.03 53.0648C216.426 52.9958 216.661 52.6408 216.938 52.3788C217.198 52.1338 217.486 51.9618 217.837 51.8228C218.206 51.6758 218.588 51.6218 218.973 51.5128L219.159 51.4168L219.306 51.3708C219.411 51.3198 219.513 51.2518 219.62 51.2068C219.876 51.0998 220.131 50.9868 220.379 50.8578C220.465 50.8128 220.475 50.5918 220.372 50.5588C220.107 50.4718 219.839 50.4018 219.569 50.3358C219.332 50.2788 219.083 50.1768 218.836 50.1798C218.393 50.1848 217.937 50.3048 217.532 50.4808C216.613 50.8818 215.858 51.8598 215.917 52.8868L216.03 53.0648Z" fill="#E4A709"/>
<path fill-rule="evenodd" clip-rule="evenodd" d="M223.517 50.7978C224.191 50.9158 224.874 51.1428 225.522 51.3608C226.232 51.6018 226.922 51.9088 227.584 52.2588C228.237 52.6048 228.877 52.9658 229.536 53.2968C229.836 53.4478 230.153 53.5698 230.462 53.6998C230.735 53.8148 231.036 53.9938 231.331 54.0348C231.49 54.0558 231.433 53.7408 231.381 53.6788C231.154 53.4118 230.833 53.1958 230.567 52.9668C230.276 52.7168 229.986 52.4638 229.68 52.2318C229.049 51.7558 228.371 51.3458 227.661 50.9978C226.984 50.6658 226.287 50.3748 225.549 50.2108C224.825 50.0508 224.168 50.0898 223.47 50.3328C223.299 50.3928 223.349 50.7698 223.517 50.7978Z" fill="#E4A709"/>
<path fill-rule="evenodd" clip-rule="evenodd" d="M235.339 56.4327C235.438 56.5507 235.498 56.6957 235.599 56.8097C235.687 56.9087 235.8 56.9797 235.897 57.0667C236.069 57.2197 236.244 57.3427 236.438 57.4667C236.844 57.7267 237.264 57.9517 237.697 58.1637C238.103 58.3617 238.54 58.5627 238.985 58.6487C239.205 58.6917 239.426 58.7177 239.649 58.7007C239.89 58.6827 240.137 58.6957 240.377 58.6517C240.506 58.6287 240.514 58.3857 240.424 58.3147C240.214 58.1497 239.972 58.0257 239.768 57.8567C239.591 57.7107 239.39 57.5877 239.193 57.4727C238.783 57.2347 238.319 57.0657 237.881 56.8867C237.466 56.7157 237.057 56.5347 236.638 56.3757C236.426 56.2947 236.231 56.2357 236.01 56.1907C235.911 56.1697 235.799 56.1167 235.696 56.1237C235.587 56.1307 235.487 56.1817 235.374 56.1837C235.263 56.1867 235.297 56.3807 235.339 56.4327Z" fill="#E4A709"/>
<path fill-rule="evenodd" clip-rule="evenodd" d="M243.456 58.0217L243.504 58.0417L243.418 57.9377C243.463 58.0317 243.505 58.0967 243.587 58.1617L243.68 58.2247L243.855 58.3057C244.038 58.3377 244.2 58.3827 244.39 58.3707C244.77 58.3467 245.147 58.2317 245.502 58.0967C245.672 58.0327 245.84 57.9637 245.996 57.8697C246.199 57.7467 246.368 57.5957 246.531 57.4267L246.719 57.2107L246.886 56.9937C247.011 56.8547 247.127 56.6897 247.205 56.5177C247.233 56.4567 247.253 56.2237 247.129 56.2387L246.934 56.2907L246.733 56.3497L246.544 56.3947C246.445 56.3997 246.369 56.4187 246.27 56.4397C245.941 56.5107 245.61 56.6347 245.279 56.7587C244.952 56.8807 244.616 56.9737 244.285 57.0857C244.114 57.1447 243.966 57.2227 243.803 57.2937C243.712 57.3337 243.629 57.4177 243.573 57.4687C243.495 57.5397 243.453 57.6047 243.413 57.7047L243.494 57.5967L243.448 57.6187C243.321 57.6787 243.328 57.9667 243.456 58.0217Z" fill="#E4A709"/>
<path fill-rule="evenodd" clip-rule="evenodd" d="M249.597 53.5597L249.618 53.5417L249.463 53.5787L249.488 53.5897L249.675 53.5447L249.751 53.4607L249.827 53.3887L249.987 53.1537C250.104 52.9327 250.165 52.6817 250.215 52.4387C250.26 52.2167 250.285 51.9827 250.276 51.7557C250.264 51.4807 250.27 51.1567 250.071 50.9417L250.2 51.2047C250.157 50.9797 250.145 50.8627 250.036 50.6577L250.08 50.7757C250.052 50.6617 250.018 50.5617 249.965 50.4567C249.907 50.3417 249.819 50.4617 249.805 50.5317C249.78 50.6537 249.766 50.7477 249.747 50.8597L249.736 50.9437L249.721 50.9937L249.685 51.2157L249.802 50.9477C249.653 51.0947 249.63 51.3677 249.601 51.5627C249.577 51.7217 249.549 51.8817 249.525 52.0417L249.487 52.2617L249.463 52.3887L249.452 52.4427L249.46 52.4117C249.459 52.5137 249.41 52.6227 249.391 52.7247L249.389 52.7437C249.364 52.8517 249.348 52.9417 249.349 53.0547L249.382 52.8247L249.335 52.9797C249.298 53.1037 249.298 53.2187 249.317 53.3467L249.331 53.0857L249.32 53.1187C249.277 53.2377 249.289 53.4057 249.359 53.5137C249.418 53.6037 249.511 53.6307 249.597 53.5597Z" fill="#E4A709"/>
<path fill-rule="evenodd" clip-rule="evenodd" d="M251.003 45.3678C251.11 45.1858 251.107 44.9338 251.115 44.7278C251.125 44.4328 251.108 44.1428 251.07 43.8498C251 43.3018 250.895 42.7628 250.763 42.2278C250.632 41.6898 250.475 41.1548 250.23 40.6588C250.014 40.2208 249.782 39.6988 249.432 39.3508C249.317 39.2358 249.266 39.4898 249.278 39.5578C249.368 40.0848 249.546 40.6038 249.665 41.1258C249.784 41.6428 249.933 42.1498 250.07 42.6618C250.199 43.1448 250.312 43.6318 250.418 44.1198C250.474 44.3758 250.54 44.6298 250.621 44.8788C250.676 45.0458 250.73 45.2848 250.869 45.3998L251.003 45.3678Z" fill="#E4A709"/>
<path fill-rule="evenodd" clip-rule="evenodd" d="M249.056 35.8268C249.077 35.4758 248.965 35.0968 248.893 34.7548C248.823 34.4238 248.767 34.0928 248.726 33.7568L248.727 33.7668L248.714 33.6168C248.704 33.4978 248.695 33.3788 248.681 33.2598L248.655 33.0188L248.613 32.8388C248.628 32.9408 248.62 32.8298 248.617 32.8098C248.573 32.4798 248.526 32.2148 248.449 31.8868C248.422 31.7728 248.309 31.7108 248.261 31.8498C248.151 32.1608 248.077 32.4658 248.036 32.8218L248.04 32.8508C248.026 32.9638 248.004 33.0668 247.998 33.1808L247.99 33.4318C247.991 33.6508 248.017 33.8728 248.041 34.0898C248.082 34.4688 248.155 34.8478 248.273 35.2108C248.334 35.3978 248.417 35.5788 248.518 35.7478C248.59 35.8668 248.716 36.0508 248.86 36.0878C249.013 36.1268 249.05 35.9378 249.056 35.8268Z" fill="#E4A709"/>
<path fill-rule="evenodd" clip-rule="evenodd" d="M249.028 29.3618L249.024 29.3598L249.195 29.5198L249.084 29.3738L249.029 29.3358L248.973 29.2988L248.856 29.2748H248.85L248.828 29.2728L248.949 29.2968L248.932 29.2908L249.042 29.3648L249.037 29.3598L249.133 29.4778L249.125 29.4658L249.201 29.6198L249.197 29.6098L249.248 29.7928L249.244 29.7748L249.265 29.9788V29.9338L249.253 30.1408C249.259 30.0488 249.264 29.9568 249.27 29.8648C249.039 30.0948 248.808 30.3248 248.577 30.5558L248.661 30.6448L248.714 30.6938L248.851 30.7858L249.123 30.7888L249.325 30.5838L249.415 30.3318C249.444 30.2338 249.455 30.1338 249.449 30.0318C249.447 29.8978 249.423 29.7678 249.377 29.6418C249.343 29.5268 249.27 29.4258 249.186 29.3438L249.158 29.3198L249.106 29.2758L249.023 29.1938C248.956 29.1278 248.876 29.0938 248.783 29.0918C248.69 29.0978 248.612 29.1348 248.549 29.2038C248.473 29.2858 248.419 29.3808 248.386 29.4878C248.346 29.6168 248.327 29.7498 248.33 29.8848L248.343 30.0508L248.36 30.1958L248.387 30.2948L248.413 30.3918L248.456 30.4798L248.498 30.5638L248.596 30.6838C248.626 30.7138 248.833 30.8028 248.709 30.7608L248.833 30.7858H248.836L248.962 30.7548L248.97 30.7508L249.077 30.6708L249.081 30.6668L249.09 30.6578L249.183 30.5328L249.192 30.5208L249.259 30.3678L249.301 30.1878L249.261 30.3618L249.301 30.1858L249.311 29.9678C249.277 30.1188 249.243 30.2708 249.208 30.4218L249.216 30.4088C249.264 30.3208 249.294 30.2278 249.307 30.1288C249.323 30.0178 249.321 29.9058 249.3 29.7948C249.268 29.6268 249.191 29.4408 249.028 29.3618Z" fill="#E4A709"/>
<path fill-rule="evenodd" clip-rule="evenodd" d="M262.308 31.8598C262.991 32.4568 263.689 33.0388 264.342 33.6698C265.012 34.3178 265.654 34.9938 266.293 35.6718C267.513 36.9648 268.727 38.4088 270.316 39.2608C270.419 39.3158 270.419 39.0748 270.369 39.0278C269.024 37.7408 267.68 36.4608 266.385 35.1218C265.754 34.4688 265.121 33.8168 264.449 33.2068C263.803 32.6208 263.136 32.0498 262.356 31.6498C262.264 31.6038 262.26 31.8168 262.308 31.8598Z" fill="#E4A709"/>
<path fill-rule="evenodd" clip-rule="evenodd" d="M263.254 34.4008C263.605 35.0458 264.226 35.5908 264.753 36.0928C265.312 36.6248 265.888 37.1378 266.468 37.6468C267.6 38.6398 268.738 39.6218 269.962 40.4998C270.053 40.5638 270.057 40.3758 270.018 40.3288C269.025 39.1168 267.83 38.1278 266.64 37.1188C266.069 36.6338 265.501 36.1438 264.949 35.6368C264.675 35.3848 264.398 35.1338 264.127 34.8778C263.874 34.6378 263.629 34.3628 263.322 34.1928C263.222 34.1378 263.232 34.3608 263.254 34.4008Z" fill="#E4A709"/>
<path fill-rule="evenodd" clip-rule="evenodd" d="M263.894 36.9397C264.116 37.4787 264.636 37.9467 265.036 38.3567C265.477 38.8087 265.944 39.2357 266.408 39.6627C266.862 40.0817 267.319 40.4957 267.786 40.8977C268.262 41.3067 268.743 41.7447 269.246 42.1167L269.314 41.9617C268.609 40.8917 267.618 39.9977 266.669 39.1487C266.213 38.7417 265.76 38.3317 265.319 37.9077C265.091 37.6877 264.861 37.4697 264.638 37.2437C264.453 37.0567 264.248 36.7937 264.005 36.6867C263.879 36.6307 263.868 36.8757 263.894 36.9397Z" fill="#E4A709"/>
<path fill-rule="evenodd" clip-rule="evenodd" d="M267.882 44.2517C268.071 43.6877 268.288 43.1437 268.446 42.5677C268.609 41.9727 268.749 41.3697 268.892 40.7697C269.18 39.5627 269.497 38.3627 269.632 37.1257C269.638 37.0687 269.574 36.9017 269.512 37.0147C268.938 38.0637 268.707 39.2607 268.447 40.4157C268.309 41.0247 268.177 41.6377 268.055 42.2497C267.929 42.8837 267.863 43.5257 267.744 44.1597C267.727 44.2517 267.834 44.3947 267.882 44.2517Z" fill="#E4A709"/>
<path fill-rule="evenodd" clip-rule="evenodd" d="M266.923 41.7498C267.165 41.3938 267.305 40.9658 267.46 40.5678C267.625 40.1458 267.79 39.7238 267.953 39.3008C268.282 38.4518 268.572 37.5688 268.661 36.6588C268.668 36.5938 268.586 36.3868 268.519 36.5258C268.138 37.3128 267.82 38.1308 267.52 38.9518C267.206 39.8128 266.805 40.7158 266.758 41.6418C266.753 41.7348 266.846 41.8618 266.923 41.7498Z" fill="#E4A709"/>
<path fill-rule="evenodd" clip-rule="evenodd" d="M200.736 41.2657C201.271 41.8617 201.943 42.3337 202.573 42.8247C203.197 43.3127 203.816 43.8057 204.436 44.2977C205.055 44.7897 205.675 45.2767 206.305 45.7527C206.902 46.2027 207.541 46.5827 208.173 46.9797L208.218 46.7827C207.602 46.2637 207.014 45.7167 206.383 45.2157C205.763 44.7247 205.141 44.2367 204.517 43.7497C203.895 43.2657 203.273 42.7807 202.646 42.3017C202.064 41.8567 201.465 41.3447 200.781 41.0677C200.683 41.0287 200.7 41.2257 200.736 41.2657Z" fill="#E4A709"/>
<path fill-rule="evenodd" clip-rule="evenodd" d="M202.04 40.7747C202.283 40.9577 202.518 41.1457 202.766 41.3207C202.999 41.4847 203.228 41.6517 203.454 41.8257C203.897 42.1657 204.373 42.5417 204.917 42.6967C205.034 42.7297 205.02 42.5157 204.971 42.4637C204.551 42.0257 204.063 41.6457 203.565 41.2987C203.339 41.1417 203.113 40.9817 202.877 40.8407C202.762 40.7717 202.641 40.7137 202.52 40.6567C202.381 40.5907 202.247 40.5607 202.098 40.5247C201.981 40.4967 201.971 40.7227 202.04 40.7747Z" fill="#E4A709"/>
<path fill-rule="evenodd" clip-rule="evenodd" d="M209.258 48.0247C209.357 48.1187 209.44 48.2297 209.547 48.3187C209.643 48.3997 209.748 48.4707 209.845 48.5497C210.023 48.6947 210.194 48.8497 210.369 48.9987C210.538 49.1427 210.706 49.2857 210.892 49.4087C211.078 49.5317 211.286 49.6237 211.497 49.6977C211.588 49.7297 211.573 49.5547 211.539 49.5167C211.362 49.3197 211.192 49.1137 211.002 48.9297C210.839 48.7707 210.664 48.6257 210.487 48.4827C210.315 48.3437 210.133 48.2177 209.949 48.0967C209.851 48.0317 209.749 47.9547 209.642 47.9047L209.502 47.8547L209.305 47.8207C209.205 47.7977 209.208 47.9777 209.258 48.0247Z" fill="#E4A709"/>
<path fill-rule="evenodd" clip-rule="evenodd" d="M201.66 42.6937C201.912 42.5937 202.144 42.4847 202.382 42.3547C202.639 42.2137 202.895 42.0697 203.16 41.9427C203.432 41.8127 203.698 41.6737 203.964 41.5337C204.216 41.4007 204.484 41.2277 204.694 41.0347C204.758 40.9767 204.752 40.7797 204.645 40.7707C204.371 40.7477 204.048 40.8197 203.788 40.9077C203.505 41.0037 203.236 41.1227 202.976 41.2697C202.713 41.4177 202.456 41.5757 202.218 41.7617C201.955 41.9687 201.759 42.2007 201.582 42.4837C201.548 42.5367 201.557 42.7337 201.66 42.6937Z" fill="#E4A709"/>
<path fill-rule="evenodd" clip-rule="evenodd" d="M191.331 67.6047C191.936 68.1027 192.597 68.5417 193.224 69.0127C193.867 69.4967 194.491 70.0087 195.102 70.5327C196.33 71.5827 197.461 72.7297 198.641 73.8307C199.265 74.4137 199.904 74.9717 200.588 75.4827C200.697 75.5637 200.73 75.3337 200.68 75.2717C199.668 74.0047 198.549 72.8577 197.362 71.7547C196.171 70.6467 194.946 69.5667 193.612 68.6327C192.929 68.1547 192.18 67.6447 191.38 67.3897C191.279 67.3567 191.277 67.5607 191.331 67.6047Z" fill="#E4A709"/>
<path fill-rule="evenodd" clip-rule="evenodd" d="M191.785 65.2837C192.142 65.6807 192.596 65.9947 193.001 66.3407C193.413 66.6927 193.825 67.0457 194.233 67.4017C194.977 68.0507 195.767 68.8357 196.731 69.1407C196.836 69.1737 196.821 68.9767 196.779 68.9317C196.043 68.1417 195.164 67.4797 194.339 66.7867C193.941 66.4527 193.545 66.1147 193.129 65.8027C192.742 65.5117 192.318 65.1527 191.847 65.0157C191.71 64.9767 191.731 65.2237 191.785 65.2837Z" fill="#E4A709"/>
<path fill-rule="evenodd" clip-rule="evenodd" d="M192.078 63.5007C192.381 63.8597 192.771 64.1237 193.123 64.4307C193.459 64.7237 193.796 65.0157 194.126 65.3157C194.735 65.8697 195.427 66.4287 196.188 66.7567C196.292 66.8017 196.287 66.5807 196.239 66.5357C195.562 65.9037 194.916 65.2327 194.219 64.6217C193.877 64.3217 193.535 64.0217 193.164 63.7567C192.844 63.5277 192.518 63.2757 192.116 63.2347C191.995 63.2227 192.037 63.4537 192.078 63.5007Z" fill="#E4A709"/>
<path fill-rule="evenodd" clip-rule="evenodd" d="M192.013 69.8777C192.294 69.2557 192.464 68.5747 192.661 67.9227C192.879 67.1997 193.116 66.4827 193.331 65.7597C193.758 64.3277 194.189 62.8907 194.223 61.3857C194.224 61.2917 194.111 61.1877 194.073 61.3217C193.67 62.7277 193.334 64.1497 192.938 65.5577C192.735 66.2797 192.531 67.0027 192.336 67.7277C192.153 68.4107 191.968 69.1167 191.933 69.8257L192.013 69.8777Z" fill="#E4A709"/>
<path fill-rule="evenodd" clip-rule="evenodd" d="M193.603 70.4317C193.744 70.1707 193.81 69.8787 193.892 69.5967C193.985 69.2757 194.073 68.9557 194.16 68.6327C194.248 68.3037 194.316 67.9727 194.383 67.6397C194.451 67.2967 194.521 66.9397 194.552 66.5927C194.556 66.5427 194.495 66.3827 194.441 66.4897C194.297 66.7767 194.192 67.0987 194.083 67.4007C193.973 67.7087 193.879 68.0197 193.801 68.3377C193.721 68.6627 193.646 68.9867 193.58 69.3147C193.514 69.6487 193.438 69.9827 193.442 70.3247C193.443 70.4047 193.536 70.5557 193.603 70.4317Z" fill="#E4A709"/>
<path fill-rule="evenodd" clip-rule="evenodd" d="M256.151 57.5737C256.308 57.7427 256.525 57.8437 256.713 57.9757C256.918 58.1197 257.121 58.2687 257.317 58.4267C257.768 58.7917 258.193 59.1917 258.612 59.5937C259.388 60.3367 260.139 61.1247 260.99 61.7837C261.102 61.8707 261.114 61.6257 261.062 61.5637C260.321 60.6777 259.57 59.8007 258.736 58.9997C258.315 58.5957 257.875 58.2117 257.401 57.8707C257.207 57.7297 257.01 57.5947 256.798 57.4847C256.618 57.3907 256.4 57.2617 256.189 57.3007C256.076 57.3227 256.09 57.5077 256.151 57.5737Z" fill="#E4A709"/>
<path fill-rule="evenodd" clip-rule="evenodd" d="M257.176 60.0248C257.393 60.3348 257.75 60.5838 258.033 60.8338C258.323 61.0908 258.609 61.3528 258.891 61.6188C259.442 62.1358 259.978 62.6438 260.582 63.0998L260.648 62.9488C260.189 62.2638 259.663 61.6738 259.055 61.1188C258.753 60.8428 258.442 60.5798 258.118 60.3308C257.867 60.1378 257.543 59.8508 257.227 59.7968C257.133 59.7808 257.145 59.9808 257.176 60.0248Z" fill="#E4A709"/>
<path fill-rule="evenodd" clip-rule="evenodd" d="M257.798 62.8218C257.868 62.7278 258.003 62.6678 258.104 62.6108C258.232 62.5388 258.367 62.4828 258.496 62.4148C258.791 62.2598 259.104 62.1258 259.413 62.0028C260.013 61.7628 260.576 61.4568 261.151 61.1668C261.239 61.1228 261.232 60.9058 261.122 60.8938C260.464 60.8208 259.785 60.9238 259.19 61.2208C258.857 61.3878 258.546 61.5828 258.267 61.8318C258.003 62.0668 257.863 62.3708 257.706 62.6758C257.673 62.7408 257.721 62.9258 257.798 62.8218Z" fill="#E4A709"/>
<path fill-rule="evenodd" clip-rule="evenodd" d="M3.87981 340.497C7.8813 337.231 13.4834 337.185 18.3807 337.749C23.633 338.355 28.7428 339.958 33.6939 341.74C46.3279 346.289 58.4803 352.122 70.3852 358.265C82.9654 364.758 95.3222 371.668 107.96 378.055C114.209 381.214 120.531 384.238 126.971 386.999C130.219 388.392 133.498 389.718 136.81 390.958C140.081 392.184 143.397 393.449 146.765 394.391C148.241 394.803 149.943 394.783 151.471 394.778C152.876 394.774 154.278 394.662 155.669 394.456C158.248 394.078 160.773 393.275 163.099 392.109C165.461 390.926 167.596 389.395 169.567 387.655C171.661 385.808 173.39 383.607 175.09 381.413C175.986 380.255 176.782 379.013 177.625 377.816C178.061 377.199 177.306 377.141 176.957 377.571C175.09 379.859 173.03 381.983 170.923 384.053C169.138 385.808 167.159 387.447 165.045 388.801C160.596 391.654 155.373 392.582 150.135 392.189C148.41 392.06 146.836 391.464 145.204 390.917C143.542 390.362 141.886 389.781 140.238 389.181C136.959 387.984 133.712 386.706 130.496 385.356C124.035 382.646 117.694 379.66 111.43 376.529C98.822 370.224 86.5297 363.329 74.0088 356.86C61.8846 350.596 49.5331 344.678 36.7028 339.943C31.8566 338.153 26.8827 336.659 21.7554 335.901C16.7693 335.162 10.8498 335.09 6.36948 337.724C5.32976 338.335 4.35057 339.031 3.45612 339.837C2.99612 340.251 3.29472 340.975 3.87981 340.497Z" fill="#E4A709"/>
<path fill-rule="evenodd" clip-rule="evenodd" d="M176.627 378.349C178.196 379.652 180.2 380.433 182.089 381.166C183.22 381.604 184.355 382.028 185.485 382.468C186.459 382.846 187.641 383.473 188.68 383.113C188.993 383.004 189.438 382.668 189.401 382.282C189.34 381.683 189.052 381.497 188.534 381.219C188.06 380.966 187.554 380.758 187.051 380.568C185.916 380.138 184.771 379.734 183.633 379.313C181.708 378.602 179.597 378.003 177.826 376.956C177.278 376.631 176.086 377.9 176.627 378.349Z" fill="#E4A709"/>
<path fill-rule="evenodd" clip-rule="evenodd" d="M187.638 383.492C186.851 384.49 185.998 385.433 185.258 386.473C184.466 387.585 183.681 388.702 182.894 389.817C181.195 392.222 179.492 394.623 177.783 397.022C174.203 402.042 170.562 407.02 167.053 412.087C166.135 413.414 165.198 414.734 164.339 416.099C163.895 416.807 163.434 417.555 163.216 418.357C163.128 418.676 163.13 418.815 162.964 419.134C162.796 419.458 162.654 419.746 162.582 420.105C162.491 420.552 162.995 420.384 163.19 420.215C163.637 419.83 163.934 419.327 164.363 418.938C164.991 418.368 165.567 417.799 166.062 417.109C166.907 415.931 167.71 414.724 168.535 413.532C170.268 411.032 172.027 408.548 173.789 406.067C177.3 401.122 180.892 396.224 184.237 391.168C185.071 389.907 185.877 388.629 186.667 387.342C187.398 386.148 187.94 384.913 188.504 383.64C188.829 382.905 187.932 383.117 187.638 383.492Z" fill="#E4A709"/>
<path fill-rule="evenodd" clip-rule="evenodd" d="M3.51021 339.89C0.405862 342.8 -0.92707 346.824 0.6937 350.852C2.52699 355.414 6.64146 358.981 10.4614 361.919C15.5443 365.828 21.1262 369.094 26.8049 372.078C32.2429 374.938 37.8221 377.517 43.4821 379.912C47.1083 381.448 50.7627 382.927 54.467 384.265C60.9191 386.594 67.421 388.795 73.8853 391.088C82.3886 394.104 90.9121 397.067 99.4262 400.053C107.881 403.017 116.337 405.978 124.802 408.917C131.995 411.414 139.192 413.902 146.41 416.329C149.107 417.236 151.805 418.143 154.518 419.001C155.614 419.348 156.745 419.604 157.857 419.899C158.399 420.042 158.906 420.125 159.469 420.146C159.693 420.154 159.919 420.162 160.144 420.17L160.444 420.179L160.611 420.185C161.127 420.154 160.537 420.143 160.671 420.163C161.293 420.256 162.02 420.42 162.58 420.558C163.111 420.689 163.96 419.599 163.38 419.455C162.788 419.308 162.149 419.078 161.589 418.841C161.79 418.926 161.632 418.864 161.515 418.773L161.279 418.615C161.112 418.505 160.946 418.393 160.78 418.281C160.351 417.991 159.946 417.789 159.457 417.613C157.189 416.803 154.924 416.005 152.635 415.251C146.026 413.074 139.445 410.82 132.867 408.556C124.716 405.751 116.575 402.917 108.437 400.078C99.8943 397.098 91.356 394.109 82.8137 391.127C75.1308 388.443 67.4278 385.816 59.7301 383.172C56.268 381.983 52.8395 380.737 49.4406 379.381C44.2084 377.295 39.0515 375.036 33.9605 372.636C28.1513 369.898 22.4147 366.935 16.9902 363.507C12.3915 360.601 7.71614 357.305 4.33068 353.015C2.02394 350.09 0.374926 346.303 2.17593 342.737C2.62921 341.841 3.25869 341.052 3.95945 340.332C4.40601 339.874 3.97963 339.449 3.51021 339.89Z" fill="#E4A709"/>
<path fill-rule="evenodd" clip-rule="evenodd" d="M45.3221 380.662C46.495 385.161 48.5731 389.447 50.4279 393.704C52.3984 398.225 54.3662 402.747 56.3299 407.271C60.1808 416.145 63.9966 425.032 67.6995 433.967C68.598 436.137 69.4898 438.309 70.3694 440.487C70.7837 441.511 71.1939 442.536 71.6028 443.562C71.7871 444.026 71.9714 444.491 72.1529 444.956C72.3735 445.516 72.5847 445.871 73.0339 446.281C73.7118 446.903 74.8228 445.645 74.8242 445.007C74.8255 444.484 74.8148 444.053 74.6197 443.56C74.4382 443.099 74.2552 442.638 74.0723 442.177C73.7266 441.307 73.3769 440.439 73.0272 439.57C72.2471 437.641 71.4576 435.714 70.6599 433.789C68.8953 429.524 67.0996 425.271 65.2879 421.024C61.3684 411.839 57.3844 402.681 53.3332 393.553C52.2571 391.128 51.1986 388.695 50.058 386.299C48.9752 384.028 47.918 381.76 46.5071 379.667C46.1426 379.125 45.2078 380.225 45.3221 380.662Z" fill="#E4A709"/>
<path fill-rule="evenodd" clip-rule="evenodd" d="M73.1843 445.054C74.0922 446.025 75.0822 446.901 76.2214 447.585C77.596 448.41 79.0568 449.086 80.5672 449.629C83.9446 450.846 87.4202 451.779 90.8769 452.745C91.8534 453.017 92.8273 453.309 93.8145 453.541C94.3256 453.662 94.904 453.763 95.4299 453.774C95.7056 453.779 95.9464 453.662 96.21 453.638C96.5032 453.613 96.8301 453.636 97.1287 453.633C97.3762 453.632 98.003 453.123 97.6869 452.868C97.5456 452.754 97.4071 452.634 97.2686 452.519C97.1058 452.382 97.0534 452.317 96.9296 452.139C96.7131 451.827 96.2194 451.63 95.8765 451.466C95.0815 451.086 94.1454 450.9 93.298 450.669C91.5629 450.196 89.8265 449.734 88.0968 449.248C84.8283 448.33 81.5747 447.31 78.4232 446.051C76.9988 445.481 75.479 444.93 74.2348 444.017C73.7533 443.663 72.762 444.601 73.1843 445.054Z" fill="#E4A709"/>
<path fill-rule="evenodd" clip-rule="evenodd" d="M86.3474 393.609C86.338 394.407 86.412 395.159 86.2949 395.955C86.1806 396.734 86.3501 397.578 86.455 398.354C86.6904 400.124 87.0024 401.888 87.3602 403.638C88.1659 407.571 88.9137 411.515 89.636 415.463C91.2097 424.056 92.6704 432.67 94.0558 441.294C94.4136 443.517 94.7646 445.742 95.1103 447.968C95.2758 449.029 95.421 450.093 95.6066 451.15C95.6994 451.677 95.7425 452.22 95.99 452.701C96.1931 453.097 96.5509 453.373 96.8723 453.674C97.222 454.002 97.7547 453.389 97.8488 453.094C98.1797 452.045 98.4003 451.158 98.2591 450.057C98.142 449.158 97.9941 448.261 97.8542 447.365C97.5475 445.394 97.2355 443.423 96.9194 441.454C96.2334 437.181 95.5259 432.911 94.7983 428.647C93.3604 420.235 91.8473 411.831 90.135 403.47C89.7423 401.551 89.3401 399.636 88.7644 397.76C88.525 396.977 88.3179 396.027 87.8861 395.325C87.6844 394.994 87.3562 394.755 87.1692 394.41C86.9917 394.078 86.8693 393.746 86.6675 393.422C86.572 393.266 86.3501 393.491 86.3474 393.609Z" fill="#E4A709"/>
<path fill-rule="evenodd" clip-rule="evenodd" d="M62.1593 353.079C65.4681 350.641 68.6827 348.074 72.1341 345.824C75.9325 343.348 79.8465 341.049 83.7821 338.794C85.8535 337.607 87.9315 336.43 89.9975 335.233C90.5665 334.902 91.3372 334.232 91.1731 333.483C91.0009 332.701 90.1253 333.039 89.6586 333.317C81.9112 337.959 73.8772 342.311 66.7754 347.913C64.961 349.344 63.2232 350.922 61.8822 352.805C61.706 353.051 61.9064 353.266 62.1593 353.079Z" fill="#E4A709"/>
<path fill-rule="evenodd" clip-rule="evenodd" d="M89.6689 334.618C91.9313 336.023 94.3497 337.173 96.5905 338.628C99.021 340.207 101.306 342.056 103.179 344.265C103.796 344.992 105.547 343.338 104.888 342.578C102.92 340.31 100.517 338.442 97.9705 336.847C95.6315 335.383 92.9885 334.04 90.2029 333.733C89.8411 333.693 89.2587 334.361 89.6689 334.618Z" fill="#E4A709"/>
<path fill-rule="evenodd" clip-rule="evenodd" d="M103.507 343.229C102.341 344.675 101.387 346.279 100.426 347.862C99.4156 349.525 98.4512 351.212 97.5003 352.908C95.6818 356.155 93.9063 359.431 91.9654 362.609C90.9768 364.228 89.9452 365.822 88.8221 367.354C88.5584 367.713 88.3231 368.398 88.8584 368.637C89.3843 368.872 90.0783 368.287 90.35 367.913C92.4416 365.041 94.2332 361.961 95.9777 358.876C97.8567 355.552 99.6913 352.202 101.56 348.872C102.58 347.05 103.71 345.282 104.676 343.431C104.821 343.15 104.801 342.806 104.462 342.713C104.099 342.615 103.705 342.984 103.507 343.229Z" fill="#E4A709"/>
<path fill-rule="evenodd" clip-rule="evenodd" d="M144.321 414.095C145.547 416.775 146.672 419.491 147.686 422.256C148.732 425.108 149.67 427.991 150.775 430.822C151.311 432.194 151.872 433.558 152.487 434.898C152.772 435.517 153.079 436.124 153.377 436.738C153.701 437.407 153.771 438.167 154.043 438.862C154.292 439.499 154.612 440.103 154.983 440.678C155.125 440.894 155.263 441.184 155.494 441.309C155.663 441.4 155.887 441.427 156.067 441.489C157.192 441.881 158.271 442.295 159.437 442.568C160.935 442.916 162.454 443.167 163.952 443.507C165.499 443.857 167.009 444.346 168.529 444.791C168.851 444.885 169.569 444.278 169.225 443.983C167.214 442.257 164.138 442.051 161.629 441.55C160.341 441.294 159.048 441.013 157.817 440.549C157.427 440.403 157.055 440.245 156.657 440.123C156.124 439.957 155.794 439.034 155.56 438.54C155.266 437.921 155.04 437.271 154.896 436.603C154.748 435.918 154.348 435.301 154.043 434.667C153.422 433.38 152.855 432.069 152.319 430.747C151.212 428.021 150.186 425.259 149.13 422.514C147.955 419.461 146.791 416.36 145.111 413.536C144.881 413.148 144.164 413.753 144.321 414.095Z" fill="#E4A709"/>
<path fill-rule="evenodd" clip-rule="evenodd" d="M162.157 420.068C161.97 421.053 162.288 422.171 162.451 423.15C162.606 424.085 162.769 425.02 162.954 425.951C163.355 427.976 163.854 429.986 164.229 432.016C164.598 434.004 165.098 435.971 165.513 437.95C165.931 439.949 166.201 442.01 166.7 443.987C166.749 444.18 166.976 444.258 167.147 444.272L167.145 444.351C167.435 444.79 168.217 443.978 168.264 443.687C168.302 443.456 168.473 443.274 168.505 443.026C168.542 442.75 168.462 442.466 168.416 442.195C168.337 441.732 168.255 441.27 168.17 440.809C167.979 439.779 167.78 438.751 167.558 437.727C167.11 435.645 166.634 433.565 166.133 431.493C165.64 429.468 165.133 427.446 164.679 425.411C164.451 424.397 164.223 423.384 164.003 422.368C163.811 421.468 163.776 420.186 163.229 419.432C162.931 419.021 162.212 419.782 162.157 420.068Z" fill="#E4A709"/>
<path fill-rule="evenodd" clip-rule="evenodd" d="M145.923 392.343C146.35 391.793 146.764 391.273 147.126 390.674C147.519 390.026 147.863 389.346 148.229 388.682C148.591 388.024 148.955 387.367 149.329 386.715C149.515 386.391 149.715 386.072 149.852 385.725C149.934 385.516 149.969 385.352 149.899 385.14L149.828 385.03H149.855L149.782 384.895L149.59 384.861L149.445 384.91C149.088 385.077 149.61 384.856 149.332 384.986C149.055 385.114 148.837 385.262 148.64 385.504C148.385 385.817 148.188 386.177 147.991 386.528C147.614 387.2 147.245 387.874 146.881 388.553C146.541 389.185 146.191 389.813 145.863 390.453C145.719 390.735 145.588 391.024 145.466 391.317C145.341 391.61 145.275 391.917 145.163 392.212C145.095 392.391 145.058 392.626 145.302 392.678C145.543 392.73 145.791 392.514 145.923 392.343Z" fill="#E4A709"/>
<path fill-rule="evenodd" clip-rule="evenodd" d="M148.962 385.741C149.303 386.417 150.462 386.456 151.153 386.589C152.076 386.767 152.989 386.982 153.894 387.23C154.83 387.486 155.746 387.818 156.684 388.064C157.097 388.173 157.571 388.355 157.998 388.375C158.555 388.4 159.118 388.417 159.678 388.415C159.822 388.413 160.126 388.156 159.974 388.007C159.648 387.688 159.301 387.366 158.93 387.096C158.599 386.856 158.147 386.719 157.768 386.57C156.84 386.207 155.843 385.967 154.877 385.721C153.965 385.49 153.047 385.291 152.119 385.133C151.157 384.968 150.082 384.838 149.211 385.339C149.102 385.4 148.884 385.586 148.962 385.741Z" fill="#E4A709"/>
<path fill-rule="evenodd" clip-rule="evenodd" d="M160.1 388.724C160.221 388.386 159.915 388.095 159.646 387.951C159.4 387.82 159.014 388.061 158.846 388.202C158.616 388.396 158.393 388.692 158.396 389.007C158.401 389.664 158.496 390.294 158.593 390.943C158.643 391.275 158.677 391.615 158.759 391.941L158.808 392.131L158.919 392.325L158.927 392.354C159.038 392.566 159.17 392.658 159.414 392.699L159.196 392.617C159.361 392.771 159.581 392.854 159.792 392.73C160.051 392.576 160.17 392.259 160.253 391.989L160.11 392.281C160.396 391.85 160.449 391.421 160.414 390.966C160.392 390.667 160.326 390.371 160.275 390.076C160.162 389.423 160.065 388.78 159.848 388.152C159.492 388.562 159.137 388.974 158.78 389.387L158.927 389.394L158.942 389.39L158.916 389.36C158.982 389.423 158.96 389.362 158.853 389.176C158.853 389.488 159.173 389.538 159.412 389.452C159.75 389.33 159.981 389.051 160.1 388.724Z" fill="#E4A709"/>
<path fill-rule="evenodd" clip-rule="evenodd" d="M49.0541 365.797C49.4226 366.136 49.9109 366.295 50.3547 366.51C50.7354 366.696 51.1214 366.872 51.4792 367.095L51.2182 366.932C51.4832 367.099 51.7159 367.317 51.9943 367.462C52.2889 367.615 52.8256 367.459 53.0851 367.329C53.4523 367.144 53.7644 366.892 54.0307 366.583C54.2661 366.309 54.5042 365.969 54.5754 365.609C54.5916 365.487 54.6077 365.366 54.6225 365.244C54.6266 365.021 54.5526 364.828 54.4019 364.665L54.1316 364.449C53.9554 364.328 53.7725 364.213 53.5882 364.105C53.3501 363.965 53.1013 363.84 52.8471 363.735C52.566 363.618 52.2526 363.557 51.9553 363.5C51.4402 363.401 50.9479 363.391 50.4368 363.53C49.8866 363.68 49.4145 364.082 49.1267 364.56C49.007 364.757 48.9236 364.955 48.894 365.182C48.8671 365.391 48.8846 365.64 49.0541 365.797Z" fill="#E4A709"/>
<path fill-rule="evenodd" clip-rule="evenodd" d="M59.3185 370.179L59.4033 370.257C59.3643 370.046 59.3253 369.835 59.2862 369.624C59.2499 369.901 59.2123 370.155 59.4382 370.366L59.5445 370.458L59.7866 370.613C59.7274 370.457 59.6682 370.3 59.6077 370.143C59.6131 370.321 59.6709 370.532 59.8068 370.658L60.0919 370.827L60.2708 370.915C60.3932 370.973 60.5156 371.017 60.6447 371.06L60.9675 371.164L61.0375 371.186C61.2554 371.244 61.4666 371.237 61.6871 371.191C61.8418 371.159 62.0032 371.105 62.1418 371.025C62.4888 370.826 62.821 370.596 63.0483 370.26C63.2312 369.993 63.4276 369.653 63.3994 369.318C63.3819 369.105 63.3388 368.928 63.1895 368.763C63.1048 368.67 62.9864 368.6 62.8627 368.567L62.5211 368.472C62.3072 368.411 62.0933 368.369 61.8741 368.333L61.6629 368.297C61.3966 368.252 61.0913 368.322 60.8559 368.451C61.063 368.399 61.2702 368.349 61.4773 368.298L61.1357 368.277L60.9689 368.287L60.7685 368.306C60.486 368.342 60.2479 368.464 60.0179 368.629C60.2789 368.535 60.5398 368.439 60.7994 368.345L60.6461 368.361C60.4201 368.383 60.2291 368.439 60.0314 368.555C59.8095 368.686 59.5956 368.864 59.4503 369.077C59.3468 369.231 59.2567 369.397 59.2069 369.577C59.1558 369.759 59.1638 370.038 59.3185 370.179Z" fill="#E4A709"/>
<path fill-rule="evenodd" clip-rule="evenodd" d="M68.978 374.042L69.2215 374.268C69.161 374.11 69.1004 373.952 69.0399 373.794L69.1058 374.119C69.1973 374.333 69.3076 374.393 69.504 374.497L69.7084 374.606C69.851 374.684 69.9868 374.769 70.1361 374.835C70.4038 374.956 70.6661 375.092 70.9162 375.247L70.6782 375.098L70.9472 375.285C71.1341 375.424 71.27 375.475 71.4933 375.494C71.6937 375.51 72.0407 375.401 72.2102 375.315C72.5975 375.121 72.9607 374.835 73.2055 374.477C73.3548 374.255 73.492 374.015 73.5525 373.752C73.609 373.507 73.6305 373.073 73.3925 372.89C73.0643 372.636 72.6917 372.429 72.3164 372.25C72.1335 372.162 71.9573 372.088 71.7582 372.04L71.4314 371.968C71.3036 371.943 71.1462 371.902 71.0292 371.898C70.7858 371.89 70.5154 371.987 70.3002 372.085C70.5087 372.033 70.7185 371.981 70.927 371.931C70.6903 371.948 70.4562 371.977 70.2195 372.007L69.933 372.11L69.6438 372.28C69.3977 372.453 69.1959 372.677 69.0426 372.931C68.9364 373.107 68.861 373.285 68.8341 373.49C68.8113 373.673 68.8234 373.908 68.978 374.042Z" fill="#E4A709"/>
<path fill-rule="evenodd" clip-rule="evenodd" d="M78.6881 379.041L78.949 379.177L78.7486 379.051C78.9208 379.244 79.2113 379.314 79.4507 379.387C79.6363 379.445 79.8233 379.488 80.0116 379.539C80.3613 379.636 80.715 379.76 81.0257 379.95L80.7863 379.8C80.898 379.871 81.0015 379.95 81.1266 379.992C81.3607 380.075 81.5853 380.056 81.8207 379.996C81.6162 379.994 81.4131 379.991 81.2087 379.988C81.896 380.278 82.6479 379.802 83.085 379.294C83.3513 378.986 83.6042 378.557 83.5907 378.13C83.5827 377.894 83.4656 377.712 83.3231 377.531C83.3876 377.701 83.4535 377.87 83.5181 378.04C83.5598 377.377 82.7662 377.056 82.2175 376.934C81.9363 376.87 81.6498 376.821 81.3634 376.786C81.0338 376.746 80.6949 376.782 80.3694 376.823L80.6774 376.785C80.3734 376.819 80.1057 376.85 79.8206 376.971L80.0102 376.894L79.8892 376.918L79.7076 376.955C79.2099 377.057 78.684 377.534 78.4836 377.989C78.3182 378.368 78.2617 378.822 78.6881 379.041Z" fill="#E4A709"/>
<path fill-rule="evenodd" clip-rule="evenodd" d="M89.4393 382.909L89.4474 382.898L89.442 382.575C89.3708 382.832 89.3761 383.084 89.5873 383.275L89.7998 383.47C89.9948 383.667 90.2854 383.789 90.5302 383.918C90.7521 384.033 90.9821 384.108 91.2215 384.181C91.3426 384.217 91.465 384.251 91.5874 384.284L91.7716 384.33C92.007 384.384 92.1738 384.387 92.4119 384.338C92.9095 384.237 93.3669 383.804 93.6143 383.392C93.8094 383.071 93.9829 382.574 93.6816 382.255C93.4825 382.045 93.0938 382.011 92.8221 381.929C92.5787 381.854 92.3419 381.776 92.0918 381.723C91.7945 381.659 91.4946 381.569 91.1906 381.566L90.8409 381.558C90.506 381.55 90.2154 381.674 89.9558 381.877C90.0796 381.818 90.2047 381.759 90.3284 381.699C90.471 381.66 90.3741 381.697 90.3203 381.701C90.0056 381.729 89.7043 381.917 89.5268 382.177C89.3923 382.376 89.243 382.699 89.4393 382.909Z" fill="#E4A709"/>
<path fill-rule="evenodd" clip-rule="evenodd" d="M99.7943 387.23L99.8319 387.37C99.8602 387.138 99.8898 386.906 99.918 386.675L99.8723 386.757C99.7781 386.939 99.7297 387.132 99.7257 387.335C99.723 387.505 99.7795 387.652 99.8952 387.777L100.09 388.015L99.957 387.808L99.9624 387.832L99.9153 387.569L99.9207 387.613C99.918 387.8 99.9799 387.961 100.108 388.097L100.156 388.149L100.268 388.255L100.601 388.467C100.807 388.59 101.077 388.565 101.302 388.51C101.541 388.447 101.761 388.342 101.961 388.197C102.137 388.079 102.289 387.937 102.416 387.772C102.554 387.629 102.665 387.468 102.749 387.286C102.852 387.089 102.904 386.88 102.909 386.658C102.919 386.436 102.826 386.221 102.657 386.079C102.554 385.991 102.455 385.926 102.331 385.857L102.192 385.783C102.065 385.713 101.915 385.706 101.771 385.711L102.035 385.756L101.817 385.67L101.77 385.652L101.735 385.638L101.486 385.595L101.203 385.631L100.901 385.74C100.759 385.801 100.646 385.879 100.529 385.97C100.78 385.878 101.03 385.788 101.281 385.696L101.122 385.695L100.904 385.721L100.67 385.806L100.433 385.945C100.309 386.03 100.202 386.129 100.11 386.247L99.9436 386.476L99.8306 386.707L99.7741 386.931L99.7943 387.23Z" fill="#E4A709"/>
<path fill-rule="evenodd" clip-rule="evenodd" d="M108.907 391.086L109.046 391.159L109.007 390.95L109 390.974L109.044 391.212L109.187 391.339L109.121 391.168C109.111 391.329 109.204 391.404 109.309 391.501L109.23 391.291C109.227 391.499 109.306 391.595 109.458 391.708L109.801 391.941C109.979 392.04 110.166 392.133 110.358 392.201C110.618 392.291 110.886 392.362 111.163 392.364L111.512 392.348C111.998 392.297 112.411 392.043 112.695 391.647C112.829 391.46 112.953 391.224 112.945 390.987C112.956 390.841 112.896 390.732 112.766 390.661C112.689 390.529 112.574 390.471 112.422 390.483L112.075 390.491C111.841 390.483 111.605 390.491 111.371 390.476C111.134 390.464 110.898 390.44 110.661 390.428C110.54 390.421 110.417 390.42 110.296 390.414C109.986 390.4 109.758 390.534 109.53 390.735C109.68 390.646 109.831 390.557 109.982 390.468L109.964 390.467H109.889L109.575 390.552L109.803 390.496C109.597 390.496 109.421 390.489 109.249 390.621L109.425 390.537L109.382 390.544L109.526 390.546L109.329 390.502C109.159 390.468 108.993 390.58 108.898 390.714C108.822 390.817 108.75 391.018 108.907 391.086Z" fill="#E4A709"/>
<path fill-rule="evenodd" clip-rule="evenodd" d="M120.281 395.869L120.511 395.893L120.325 395.862L120.347 395.869L120.101 395.626L120.112 395.651C120.187 395.828 120.373 395.953 120.572 395.944C120.776 395.932 120.979 395.925 121.181 395.878L121.368 395.835C121.712 395.752 121.985 395.578 122.238 395.333C122.09 395.438 121.942 395.542 121.796 395.647C122.191 395.497 122.519 395.189 122.704 394.813L122.527 395.055L122.619 394.954L122.773 394.7L122.757 394.432C122.741 394.29 122.759 394.35 122.732 394.291L122.492 394.062L122.209 394.016C122.35 394.107 122.492 394.196 122.634 394.286L122.515 394.099L122.237 393.978L122.05 393.967L121.823 393.983C121.668 393.997 121.527 394.026 121.377 394.063L121.259 394.092C120.968 394.172 120.714 394.346 120.506 394.556C120.656 394.448 120.807 394.341 120.958 394.233L120.666 394.347L120.455 394.472L120.167 394.742C120.043 394.886 119.917 395.066 119.879 395.254C119.855 395.375 119.847 395.5 119.884 395.618C119.941 395.793 120.117 395.852 120.281 395.869Z" fill="#E4A709"/>
<path fill-rule="evenodd" clip-rule="evenodd" d="M9.19812 338.037C8.93583 338.592 8.73811 339.091 8.66817 339.703C8.6184 340.144 8.63723 340.569 8.71525 341.006C8.86051 341.818 9.23847 342.535 9.759 343.177C10.2701 343.806 10.8054 344.415 11.412 344.955C12.0321 345.509 12.7356 345.969 13.4242 346.431C14.168 346.931 14.9414 347.407 15.6247 347.987C16.273 348.537 17.2912 347.963 17.7795 347.456C18.1789 347.038 18.9873 345.88 18.3161 345.33C16.698 344.002 14.7262 343.231 12.9319 342.181C12.6454 342.015 12.6629 342.027 12.4222 341.863C12.2177 341.725 12.0388 341.581 11.8707 341.4C11.7133 341.23 11.5681 341.051 11.4309 340.863C11.33 340.724 11.2816 340.642 11.1659 340.396C11.0691 340.19 10.9991 339.979 10.9346 339.761L10.8956 339.595L10.8915 339.569L10.8606 339.214C10.8418 338.704 10.8902 338.241 10.9789 337.817C11.0664 337.396 10.8579 337.057 10.3925 337.11C9.88678 337.169 9.40794 337.595 9.19812 338.037Z" fill="#E4A709"/>
<path fill-rule="evenodd" clip-rule="evenodd" d="M7.34544 733.043C16.8253 743.03 27.6367 751.679 40.1617 758.626C52.4338 765.431 65.7847 770.663 79.6453 774.404C107.15 781.83 136.511 783.545 165.032 780.705C191.644 778.056 218.182 771.536 241.769 760.233C261.33 750.861 278.934 738.335 293.594 723.59C307.944 709.155 319.478 692.579 327.892 674.901C336.304 657.23 341.645 638.479 343.855 619.423C346.081 600.256 345.06 580.824 340.806 561.925C336.478 542.7 328.722 524.074 317.678 507.045C306.283 489.476 291.413 473.713 273.908 460.603C264.611 453.638 254.593 447.43 244.065 441.99C232.872 436.205 220.95 430.935 208.647 427.238C205.431 426.27 202.192 425.385 198.915 424.587C195.53 423.762 192.01 423.326 188.643 422.47C188.111 422.336 187.244 423.315 187.833 423.465C191.084 424.29 194.271 425.683 197.426 426.767C200.59 427.85 203.747 428.952 206.882 430.097C212.891 432.29 218.917 434.394 224.795 436.857C236.093 441.59 246.948 447.14 257.142 453.527C275.998 465.339 292.526 479.959 305.698 496.713C318.195 512.61 327.617 530.323 333.697 548.888C339.691 567.176 342.427 586.248 341.995 605.271C341.567 624.22 337.975 643.11 331.293 661.132C324.648 679.054 314.886 696.104 302.246 711.337C289.478 726.724 273.816 740.177 255.853 750.831C234.711 763.373 210.731 771.522 185.798 775.991C157.886 780.994 128.706 781.523 100.686 776.838C86.6704 774.495 72.9241 770.81 59.927 765.617C46.6838 760.326 34.6928 753.393 23.4563 745.309C17.9551 741.354 12.8507 737.018 8.1713 732.315C7.86194 732.003 7.0334 732.715 7.34544 733.043Z" fill="#E4A709"/>
<path fill-rule="evenodd" clip-rule="evenodd" d="M311.252 519.925C312.746 524.591 314.622 529.141 316.434 533.719C318.296 538.426 320.05 543.167 321.691 547.937C324.963 557.461 327.714 567.148 329.521 576.974C330.486 582.219 330.95 587.547 332.163 592.754C332.225 593.022 332.688 592.615 332.7 592.473C333.137 587.56 332.456 582.645 331.614 577.796C330.764 572.894 329.677 568.024 328.409 563.194C325.852 553.467 322.581 543.895 318.796 534.486C316.758 529.415 314.625 524.36 311.779 519.593C311.632 519.347 311.186 519.72 311.252 519.925Z" fill="#E4A709"/>
<path fill-rule="evenodd" clip-rule="evenodd" d="M198.256 413.755C207.849 416.738 217.452 419.635 226.73 423.335C236.55 427.25 246.061 431.804 255.023 437.081C257.558 438.574 260.049 440.124 262.489 441.732C264.928 443.341 267.369 444.973 269.957 446.389C270.139 446.488 270.488 446.138 270.34 445.993C266.73 442.412 262.075 439.643 257.612 436.958C253.132 434.262 248.51 431.747 243.78 429.403C234.562 424.839 224.924 420.942 215.019 417.684C209.666 415.923 204.222 414.381 198.643 413.281C198.406 413.235 197.958 413.664 198.256 413.755Z" fill="#E4A709"/>
<path fill-rule="evenodd" clip-rule="evenodd" d="M324.431 506.818C324.997 507.896 325.513 508.985 326.131 510.044C326.77 511.142 327.453 512.218 328.113 513.306C329.457 515.517 330.755 517.737 332.198 519.901C332.339 520.112 332.695 519.789 332.65 519.616C332.325 518.34 331.889 516.986 331.282 515.79C330.697 514.638 330.014 513.529 329.321 512.425C328.662 511.377 327.984 510.344 327.263 509.329C326.549 508.325 325.749 507.372 325.024 506.374C324.865 506.157 324.32 506.607 324.431 506.818Z" fill="#E4A709"/>
<path fill-rule="evenodd" clip-rule="evenodd" d="M179.605 770.401C190.717 768.85 201.556 765.673 211.986 762.026C223.325 758.063 234.334 753.39 245.061 748.281C248.122 746.823 251.185 745.351 254.18 743.787C257.17 742.225 260.078 740.524 262.951 738.801C263.161 738.675 263.239 738.235 262.873 738.407C252.13 743.433 241.604 748.803 230.666 753.509C219.968 758.114 208.969 762.256 197.651 765.535C191.766 767.241 185.781 768.693 179.743 769.911C179.493 769.961 179.189 770.459 179.605 770.401Z" fill="#E4A709"/>
<path fill-rule="evenodd" clip-rule="evenodd" d="M270.918 750.869C271.416 750.793 271.852 750.783 272.336 750.61C272.847 750.428 273.346 750.22 273.822 749.979C274.859 749.455 275.837 748.864 276.768 748.204C278.561 746.931 280.207 745.473 281.798 744.008C282.023 743.801 281.909 743.489 281.574 743.696C279.827 744.772 278.191 746.002 276.51 747.159C275.645 747.754 274.762 748.337 273.846 748.872C273.397 749.133 272.943 749.392 272.472 749.625C271.969 749.873 271.493 750.199 270.982 750.426C270.804 750.503 270.53 750.928 270.918 750.869Z" fill="#E4A709"/>
<path fill-rule="evenodd" clip-rule="evenodd" d="M13.4292 729.353C13.4373 729.558 13.3822 729.736 13.3714 729.939C13.3566 730.199 13.4723 730.393 13.6041 730.622C13.8798 731.102 14.2457 731.533 14.625 731.954C15.6284 733.069 16.8201 734.06 17.9956 735.033C20.7745 737.33 23.669 739.607 26.7976 741.533C28.1803 742.386 29.5455 743.261 30.9362 744.105C31.177 744.25 31.6518 743.858 31.4501 743.653C26.9886 739.073 21.139 735.741 16.4421 731.367C15.9525 730.91 15.4818 730.446 15.0258 729.962C14.859 729.786 14.7057 729.55 14.5187 729.393C14.3519 729.251 14.0816 729.25 13.9672 729.072C13.8166 728.839 13.4212 729.177 13.4292 729.353Z" fill="#E4A709"/>
</svg>
