<svg width="158" height="40" viewBox="0 0 158 40" fill="none" xmlns="http://www.w3.org/2000/svg">
<ellipse opacity="0.5" cx="23.2639" cy="4.28571" rx="4.40548" ry="4.28571" fill="#1D1D1F"/>
<path fill-rule="evenodd" clip-rule="evenodd" d="M21.4418 31.3121C20.1474 32.0101 18.1192 32.4595 15.8394 32.4595C13.5595 32.4595 11.5314 32.0101 10.237 31.3121C9.31254 31.8107 8.76221 32.4363 8.76221 33.1152C8.76221 34.745 11.9308 36.0658 15.8394 36.0658C19.748 36.0658 22.9166 34.745 22.9166 33.1152C22.9166 32.4363 22.3662 31.8107 21.4418 31.3121Z" fill="#1D1D1F"/>
<path opacity="0.5" d="M9.22174 36.993C8.94 37.115 8.60569 37.2113 8.23768 37.2776C7.86966 37.3435 7.47536 37.3772 7.07702 37.3772C6.67868 37.3772 6.28438 37.3435 5.91636 37.2776C5.54835 37.2113 5.21404 37.115 4.9323 36.993C4.65056 36.8714 4.42712 36.7268 4.2748 36.5678C4.12247 36.4085 4.04395 36.238 4.04395 36.0659C4.04395 35.8937 4.12247 35.7233 4.2748 35.5639C4.42712 35.4049 4.65056 35.2603 4.9323 35.1387L7.07702 36.0659L9.22174 36.993Z" fill="#1D1D1F"/>
<path opacity="0.5" d="M18.8723 38.6886C18.8723 39.0364 18.5528 39.3699 17.9839 39.6158C17.4151 39.862 16.6437 40 15.8392 40C15.0348 40 14.2634 39.862 13.6945 39.6158C13.1256 39.3699 12.8062 39.0364 12.8062 38.6886H15.8392H18.8723Z" fill="#1D1D1F"/>
<path d="M0 29.5089C0 29.1214 0.183064 28.7377 0.538709 28.3797C0.894421 28.0218 1.41577 27.6965 2.07294 27.4225C2.7301 27.1485 3.51028 26.9312 4.36897 26.7829C5.22733 26.6346 6.14771 26.5583 7.07717 26.5583C8.00664 26.5583 8.92701 26.6346 9.78537 26.7829C10.6441 26.9312 11.4242 27.1485 12.0814 27.4225C12.7386 27.6965 13.2599 28.0218 13.6155 28.3798C13.9714 28.7377 14.1543 29.1214 14.1543 29.5089H7.07717H0Z" fill="#1D1D1F"/>
<path d="M15.2946 24.5912H16.3845L18.1986 28.5254H13.4805L15.2946 24.5912Z" fill="#1D1D1F"/>
<path d="M15.2946 20.657H16.3845L18.1986 24.5912H13.4805L15.2946 20.657Z" fill="#1D1D1F"/>
<path d="M15.2946 16.7229H16.3845L18.1986 20.6571H13.4805L15.2946 16.7229Z" fill="#1D1D1F"/>
<path d="M15.2946 12.7887H16.3845L18.1986 16.7229H13.4805L15.2946 12.7887Z" fill="#1D1D1F"/>
<path d="M15.8396 28.5254H13.1436V29.5089H15.8396V28.5254Z" fill="#1D1D1F"/>
<path d="M6.58102 3.65448C6.44757 3.71123 6.41858 3.68487 10.158 6.90682C10.8897 7.53713 11.802 8.32393 12.1858 8.65525C12.5693 8.98661 13.2534 9.57401 13.7061 9.96058C14.1587 10.3471 14.5314 10.6821 14.5344 10.7049C14.5371 10.7277 14.2783 10.618 13.9591 10.4612C13.3097 10.1422 12.3351 9.82354 11.4616 9.64463C10.6827 9.48504 8.60509 9.48697 7.52262 9.64824C5.58348 9.937 3.81924 10.5969 2.44964 11.5456C2.2144 11.7084 2.02197 11.8627 2.02197 11.8885C2.02197 11.9142 4.69243 11.9314 7.95602 11.9265C11.2196 11.9218 14.0131 11.9341 14.1634 11.9541C14.4242 11.9885 14.4138 11.9942 13.9362 12.0743C12.9798 12.2349 11.7905 12.7022 10.8644 13.2813C10.6676 13.4044 10.2305 13.7472 9.89314 14.0433C8.49961 15.2659 7.60586 16.6694 7.18359 18.298C7.0161 18.9443 6.88669 20.0014 6.97532 20.0014C7.0252 20.0014 7.34873 19.72 10.0923 17.2903C13.7037 14.0925 15.1902 12.7886 15.2081 12.8039H16.455H16.5036L17.4981 13.6895C18.624 14.6923 21.0501 16.8403 21.7916 17.4912C22.0433 17.7121 22.779 18.3597 23.426 18.9304C24.0734 19.501 24.6359 19.9793 24.6763 19.9931C24.8772 20.0623 24.5119 18.2082 24.1499 17.3232C23.543 15.8387 22.5212 14.5491 21.1351 13.5189C20.2521 12.8625 18.6422 12.1958 17.6201 12.0631C17.432 12.0387 17.2932 11.9955 17.311 11.9671C17.3289 11.9387 20.1139 11.9199 23.5002 11.9254C26.8861 11.9308 29.6567 11.9146 29.6567 11.8893C29.6567 11.8204 28.4589 11.0501 27.9972 10.822C26.2138 9.94097 24.4047 9.54683 22.0982 9.53684C20.9258 9.53175 20.6306 9.55211 20.0334 9.67922C19.1909 9.85855 18.32 10.1528 17.5837 10.5071L17.0364 10.7703L17.4782 10.3822C18.0295 9.89812 21.584 6.82397 23.6542 5.04104C24.8671 3.99652 25.1822 3.69264 25.0895 3.65674C24.9096 3.58694 23.7324 3.59557 23.1925 3.67067C21.068 3.96626 19.3368 4.92925 17.9854 6.56704C17.1152 7.62178 16.3067 8.9832 16.0007 9.90989C15.9306 10.1213 15.8582 10.2944 15.8393 10.2945C15.8204 10.2947 15.7015 10.0313 15.5748 9.70928C15.2785 8.95717 14.8313 8.13441 14.3285 7.41691C12.5889 4.93475 10.4475 3.71802 7.66518 3.63071C7.13843 3.61425 6.65044 3.62487 6.58102 3.65448Z" fill="#1D1D1F"/>
<path fill-rule="evenodd" clip-rule="evenodd" d="M10.2365 31.3121C11.5309 32.0101 13.559 32.4595 15.8389 32.4595C18.1188 32.4595 20.1469 32.0101 21.4413 31.3121C22.3657 31.8107 22.9161 32.4363 22.9161 33.1152C22.9161 34.745 19.7475 36.0658 15.8389 36.0658C11.9303 36.0658 8.76172 34.745 8.76172 33.1152C8.76172 32.4363 9.31206 31.8107 10.2365 31.3121Z" fill="#1D1D1F"/>
<path opacity="0.5" d="M22.4565 36.993C22.7383 37.115 23.0726 37.2113 23.4406 37.2776C23.8086 37.3435 24.2029 37.3772 24.6013 37.3772C24.9996 37.3772 25.3939 37.3435 25.7619 37.2776C26.1299 37.2113 26.4642 37.115 26.746 36.993C27.0277 36.8714 27.2512 36.7268 27.4035 36.5678C27.5558 36.4085 27.6343 36.238 27.6343 36.0659C27.6343 35.8937 27.5558 35.7233 27.4035 35.5639C27.2512 35.4049 27.0277 35.2603 26.746 35.1387L24.6013 36.0659L22.4565 36.993Z" fill="#1D1D1F"/>
<path d="M31.6783 29.5089C31.6783 29.1214 31.4953 28.7377 31.1394 28.3797C30.7839 28.0218 30.2625 27.6965 29.6053 27.4225C28.9482 27.1485 28.168 26.9312 27.3093 26.7829C26.4509 26.6346 25.5306 26.5583 24.6011 26.5583C23.6716 26.5583 22.7513 26.6346 21.8929 26.7829C21.0342 26.9312 20.254 27.1485 19.5969 27.4225C18.9397 27.6965 18.4183 28.0218 18.0628 28.3798C17.7069 28.7377 17.5239 29.1214 17.5239 29.5089H24.6011H31.6783Z" fill="#1D1D1F"/>
<path d="M16.384 24.5912H15.2941L13.48 28.5254H18.1981L16.384 24.5912Z" fill="#1D1D1F"/>
<path d="M16.384 20.657H15.2941L13.48 24.5912H18.1981L16.384 20.657Z" fill="#1D1D1F"/>
<path d="M16.384 16.7229H15.2941L13.48 20.6571H18.1981L16.384 16.7229Z" fill="#1D1D1F"/>
<path d="M16.384 12.7887H15.2941L13.48 16.7229H18.1981L16.384 12.7887Z" fill="#1D1D1F"/>
<path d="M15.8391 28.5254H18.5352V29.5089H15.8391V28.5254Z" fill="#1D1D1F"/>
<path d="M25.0976 3.65448C25.2311 3.71123 25.26 3.68487 21.5206 6.90682C20.789 7.53713 19.8767 8.32393 19.4928 8.65525C19.1093 8.98661 18.4252 9.57401 17.9726 9.96058C17.52 10.3471 17.1472 10.6821 17.1442 10.7049C17.1415 10.7277 17.4003 10.618 17.7195 10.4612C18.3689 10.1422 19.3435 9.82354 20.2171 9.64463C20.9959 9.48503 23.0735 9.48697 24.156 9.64824C26.0951 9.937 27.8594 10.5969 29.229 11.5455C29.4642 11.7084 29.6567 11.8627 29.6567 11.8885C29.6567 11.9142 26.9862 11.9314 23.7226 11.9265C20.459 11.9218 17.6656 11.9341 17.5153 11.9541C17.2544 11.9885 17.2649 11.9942 17.7424 12.0743C18.6988 12.2349 19.8881 12.7022 20.8142 13.2813C21.011 13.4044 21.4481 13.7472 21.7855 14.0433C23.179 15.2659 24.0728 16.6694 24.495 18.298C24.6625 18.9443 24.7919 20.0014 24.7033 20.0014C24.6534 20.0014 24.3299 19.72 21.5863 17.2903C17.9749 14.0925 16.4884 12.7886 16.4705 12.8039H15.2236H15.1751L14.1806 13.6895C13.0546 14.6923 10.6285 16.8403 9.88707 17.4912C9.63533 17.7121 8.89964 18.3597 8.25258 18.9304C7.60519 19.501 7.04272 19.9793 7.00228 19.9931C6.80142 20.0623 7.16674 18.2082 7.52869 17.3232C8.13564 15.8387 9.15745 14.5491 10.5436 13.5189C11.4265 12.8625 13.0364 12.1958 14.0586 12.0631C14.2466 12.0387 14.3855 11.9955 14.3676 11.9671C14.3497 11.9387 11.5647 11.9199 8.17844 11.9254C4.79252 11.9308 2.02197 11.9146 2.02197 11.8893C2.02197 11.8204 3.2197 11.0501 3.6814 10.822C5.46485 9.94097 7.27391 9.54683 9.5804 9.53683C10.7528 9.53175 11.0481 9.55211 11.6452 9.67922C12.4878 9.85855 13.3586 10.1528 14.095 10.5071L14.6423 10.7703L14.2004 10.3822C13.6491 9.89812 10.0947 6.82397 8.02443 5.04104C6.81153 3.99652 6.49643 3.69264 6.58911 3.65674C6.76907 3.58694 7.94624 3.59557 8.48613 3.67067C10.6106 3.96626 12.3418 4.92924 13.6932 6.56704C14.5634 7.62178 15.3719 8.9832 15.6779 9.90989C15.748 10.1213 15.8204 10.2944 15.8393 10.2945C15.8582 10.2947 15.9772 10.0313 16.1039 9.70928C16.4001 8.95717 16.8473 8.1344 17.3501 7.41691C19.0898 4.93475 21.2311 3.71802 24.0135 3.63071C24.5402 3.61425 25.0282 3.62487 25.0976 3.65448Z" fill="#1D1D1F"/>
<path d="M49.3117 13.2772H48.8487C48.7716 12.9996 48.6944 12.7554 48.6173 12.5445C48.5511 12.3336 48.4685 12.1448 48.3693 11.9783C48.2811 11.8007 48.1819 11.6453 48.0717 11.5121C47.9614 11.3678 47.8347 11.2179 47.6914 11.0625C47.03 10.3631 46.2585 10.0134 45.3767 10.0134C44.7925 10.0134 44.3185 10.1688 43.9548 10.4797C43.602 10.7905 43.4257 11.2124 43.4257 11.7452C43.4257 12.267 43.6406 12.7554 44.0705 13.2106C44.5004 13.6657 45.2058 14.1653 46.1868 14.7092C47.4434 15.3975 48.3472 16.0691 48.8983 16.7241C49.4605 17.379 49.7416 18.095 49.7416 18.8721C49.7416 19.3606 49.6424 19.8157 49.444 20.2376C49.2455 20.6594 48.9755 21.0257 48.6338 21.3366C48.2921 21.6474 47.8843 21.8916 47.4103 22.0692C46.9363 22.2469 46.4293 22.3357 45.8892 22.3357C45.5034 22.3357 45.1231 22.3024 44.7484 22.2358C44.3736 22.1692 44.0099 22.0581 43.6572 21.9027C43.4698 21.8361 43.2989 21.7862 43.1446 21.7529C42.9903 21.7085 42.8635 21.6863 42.7643 21.6863C42.621 21.6863 42.4998 21.7473 42.4006 21.8694C42.3014 21.9915 42.2463 22.1414 42.2353 22.319H41.8219L41.2598 18.2893H41.6896C42.1636 19.4549 42.7037 20.3097 43.3099 20.8537C43.9162 21.3865 44.6492 21.653 45.5089 21.653C46.2033 21.653 46.76 21.4587 47.1788 21.0701C47.6087 20.6816 47.8236 20.171 47.8236 19.5382C47.8236 19.294 47.7961 19.0775 47.741 18.8888C47.6969 18.7001 47.6308 18.5391 47.5426 18.4059C47.3221 18.0506 46.9694 17.6843 46.4844 17.3069C46.0105 16.9294 45.4373 16.552 44.7649 16.1746C44.2358 15.897 43.7839 15.6195 43.4091 15.342C43.0344 15.0644 42.7258 14.7758 42.4833 14.4761C42.2518 14.1764 42.0809 13.8655 41.9707 13.5436C41.8605 13.2217 41.8054 12.872 41.8054 12.4945C41.8054 11.4399 42.1691 10.6184 42.8966 10.0301C43.2052 9.77476 43.5469 9.58049 43.9217 9.44728C44.2965 9.30296 44.6657 9.2308 45.0295 9.2308C45.3601 9.2308 45.6908 9.26966 46.0215 9.34737C46.3632 9.41397 46.7104 9.51388 47.0631 9.6471C47.2395 9.7248 47.3993 9.78031 47.5426 9.81361C47.6859 9.84692 47.8071 9.86357 47.9063 9.86357C48.2149 9.86357 48.4134 9.65265 48.5015 9.2308H48.8983L49.3117 13.2772Z" fill="#1D1D1F"/>
<path d="M61.6212 22.3357H57.661V22.0577C57.7971 22.0577 57.9105 22.0577 58.0012 22.0577C58.092 22.0488 58.1645 22.04 58.219 22.0312C58.2825 22.0135 58.3369 22.0003 58.3823 21.9915C58.4276 21.9738 58.473 21.9517 58.5184 21.9253C58.5909 21.8811 58.6454 21.8282 58.6817 21.7664C58.727 21.6958 58.7497 21.6252 58.7497 21.5546C58.7497 21.3074 58.6499 20.9632 58.4503 20.5219L57.7971 19.0789H53.7416L53.0203 20.8397C52.984 20.9368 52.9523 21.0382 52.9251 21.1442C52.9069 21.2412 52.8979 21.3383 52.8979 21.4354C52.8979 21.6384 52.9795 21.7929 53.1428 21.8988C53.3061 22.0047 53.5783 22.0577 53.9594 22.0577V22.3357H50.8701V22.0577C51.0606 22.0488 51.224 22.0179 51.36 21.965C51.4961 21.912 51.6322 21.8017 51.7683 21.634C51.9044 21.4575 52.0496 21.2104 52.2038 20.8926C52.3671 20.5661 52.5712 20.1248 52.8162 19.5687L56.0415 12.1549H56.3409L60.2195 20.7338C60.3465 21.0162 60.4554 21.2412 60.5461 21.4089C60.6459 21.5766 60.7457 21.709 60.8455 21.8061C60.9453 21.8944 61.0542 21.9562 61.1721 21.9915C61.2991 22.0268 61.4488 22.0488 61.6212 22.0577V22.3357ZM57.593 18.4699L55.7966 14.2996L54.0002 18.4699H57.593Z" fill="#1D1D1F"/>
<path d="M70.9706 22.5078L64.0981 14.1937V20.1115C64.0981 20.4999 64.1162 20.8176 64.1525 21.0647C64.1979 21.303 64.275 21.4928 64.3838 21.634C64.4927 21.7752 64.6424 21.8767 64.8329 21.9385C65.0235 22.0003 65.2684 22.04 65.5678 22.0577V22.3357H61.9206V22.0577C62.2382 22.0312 62.4922 21.9915 62.6827 21.9385C62.8823 21.8767 63.032 21.7752 63.1318 21.634C63.2407 21.4928 63.3133 21.303 63.3496 21.0647C63.3858 20.8176 63.404 20.4999 63.404 20.1115V13.4655C63.2498 13.289 63.1182 13.1478 63.0093 13.0419C62.9005 12.9271 62.7916 12.8433 62.6827 12.7903C62.5738 12.7286 62.4604 12.6888 62.3425 12.6712C62.2245 12.6447 62.0839 12.6315 61.9206 12.6315V12.327H64.5744L70.5487 19.6482V14.5511C70.5487 13.6332 70.399 13.0684 70.0996 12.8565C69.9817 12.7859 69.8501 12.7374 69.705 12.7109C69.5689 12.6756 69.3557 12.6491 69.0653 12.6315V12.327H72.6989V12.6315C72.4086 12.6491 72.1909 12.68 72.0457 12.7241C71.9096 12.7683 71.7917 12.8256 71.6919 12.8963C71.3834 13.0904 71.2292 13.642 71.2292 14.5511V22.5078H70.9706Z" fill="#1D1D1F"/>
<path d="M74.5498 13.9819C74.5498 13.6994 74.5361 13.4744 74.5089 13.3067C74.4817 13.139 74.4182 13.011 74.3184 12.9227C74.2277 12.8256 74.0916 12.7594 73.9101 12.7241C73.7378 12.6888 73.4973 12.6579 73.1889 12.6315V12.327H77.3804C78.3512 12.327 79.2222 12.4417 79.9934 12.6712C80.7645 12.8918 81.4132 13.214 81.9394 13.6376C82.4747 14.0613 82.883 14.582 83.1642 15.1998C83.4455 15.8177 83.5861 16.5149 83.5861 17.2916C83.5861 18.0595 83.4364 18.7744 83.137 19.4363C82.8376 20.0983 82.4158 20.6543 81.8714 21.1044C81.3905 21.4928 80.7691 21.7973 80.007 22.0179C79.2539 22.2298 78.4465 22.3357 77.5846 22.3357H73.1889V22.0577C73.4883 22.04 73.7241 22.0135 73.8965 21.9782C74.078 21.9341 74.2141 21.8635 74.3048 21.7664C74.4046 21.6605 74.4681 21.5237 74.4953 21.356C74.5316 21.1883 74.5498 20.9721 74.5498 20.7073V13.9819ZM76.1284 21.1574C76.1284 21.4045 76.1828 21.5722 76.2917 21.6605C76.4097 21.7399 76.6183 21.7796 76.9177 21.7796C77.6163 21.7796 78.2015 21.7355 78.6733 21.6472C79.1541 21.5502 79.5942 21.3869 79.9934 21.1574C81.2635 20.4513 81.8986 19.198 81.8986 17.3975C81.8986 16.5679 81.7353 15.8309 81.4087 15.1866C81.0911 14.5423 80.6194 14.0172 79.9934 13.6112C79.6123 13.364 79.1723 13.1831 78.6733 13.0684C78.1834 12.9536 77.5982 12.8963 76.9177 12.8963C76.6093 12.8963 76.4006 12.936 76.2917 13.0154C76.1828 13.0948 76.1284 13.2493 76.1284 13.4788V21.1574Z" fill="#1D1D1F"/>
<path d="M95.0857 12.6315C94.877 12.6403 94.6911 12.6712 94.5278 12.7241C94.3735 12.7771 94.2147 12.8698 94.0514 13.0022C93.8972 13.1257 93.7294 13.2978 93.5479 13.5185C93.3755 13.7303 93.1714 14.0039 92.9355 14.3393L90.6356 17.755V20.7073C90.6356 20.9897 90.6537 21.2192 90.69 21.3957C90.7263 21.5634 90.7989 21.6958 90.9078 21.7929C91.0257 21.89 91.189 21.9562 91.3977 21.9915C91.6064 22.0268 91.8831 22.0488 92.2278 22.0577V22.3357H87.4783V22.0577C87.8321 22.04 88.1134 22.0135 88.3221 21.9782C88.5307 21.9341 88.685 21.8591 88.7848 21.7532C88.8936 21.6472 88.9617 21.4972 88.9889 21.303C89.0252 21.1089 89.0433 20.8485 89.0433 20.5219V17.9006L87.0156 15.0013C86.6255 14.4629 86.3079 14.0392 86.063 13.7303C85.8271 13.4126 85.6229 13.1743 85.4506 13.0154C85.2782 12.8565 85.1194 12.755 84.9742 12.7109C84.8382 12.6579 84.6794 12.6315 84.4979 12.6315V12.327H88.8392V12.6315H88.4581C87.9773 12.6579 87.7369 12.7992 87.7369 13.0551C87.7369 13.2581 87.8276 13.4876 88.009 13.7435L90.309 17.093L92.5272 13.6774C92.6724 13.4744 92.745 13.289 92.745 13.1213C92.745 12.9448 92.6679 12.8212 92.5136 12.7506C92.3594 12.6712 92.0781 12.6315 91.6699 12.6315V12.327H95.0857V12.6315Z" fill="#1D1D1F"/>
<path d="M106.735 15.3455H106.354C106.29 15.1248 106.227 14.9306 106.163 14.763C106.109 14.5953 106.041 14.4452 105.959 14.3128C105.887 14.1716 105.805 14.048 105.714 13.9421C105.624 13.8274 105.519 13.7082 105.401 13.5847C104.857 13.0286 104.222 12.7506 103.496 12.7506C103.015 12.7506 102.625 12.8742 102.326 13.1213C102.035 13.3684 101.89 13.7038 101.89 14.1275C101.89 14.5423 102.067 14.9306 102.421 15.2925C102.775 15.6544 103.355 16.0516 104.163 16.484C105.197 17.0312 105.941 17.5652 106.395 18.0859C106.857 18.6067 107.089 19.176 107.089 19.7938C107.089 20.1821 107.007 20.544 106.844 20.8794C106.681 21.2148 106.458 21.506 106.177 21.7532C105.896 22.0003 105.56 22.1945 105.17 22.3357C104.78 22.4769 104.363 22.5475 103.918 22.5475C103.6 22.5475 103.287 22.521 102.979 22.4681C102.67 22.4151 102.371 22.3268 102.081 22.2033C101.927 22.1503 101.786 22.1106 101.659 22.0841C101.532 22.0488 101.428 22.0312 101.346 22.0312C101.228 22.0312 101.128 22.0797 101.046 22.1768C100.965 22.2739 100.919 22.393 100.91 22.5343H100.57L100.107 19.3304H100.461C100.851 20.2571 101.296 20.9368 101.795 21.3692C102.294 21.7929 102.897 22.0047 103.605 22.0047C104.177 22.0047 104.635 21.8502 104.979 21.5413C105.333 21.2324 105.51 20.8264 105.51 20.3233C105.51 20.1292 105.488 19.9571 105.442 19.807C105.406 19.657 105.351 19.529 105.279 19.4231C105.097 19.1407 104.807 18.8494 104.408 18.5493C104.018 18.2492 103.546 17.9491 102.993 17.6491C102.557 17.4284 102.185 17.2078 101.877 16.9871C101.568 16.7665 101.314 16.537 101.115 16.2987C100.924 16.0604 100.783 15.8132 100.693 15.5573C100.602 15.3013 100.557 15.0233 100.557 14.7232C100.557 13.8848 100.856 13.2316 101.455 12.7639C101.709 12.5609 101.99 12.4064 102.298 12.3005C102.607 12.1858 102.911 12.1284 103.21 12.1284C103.482 12.1284 103.755 12.1593 104.027 12.2211C104.308 12.274 104.594 12.3535 104.884 12.4594C105.029 12.5211 105.161 12.5653 105.279 12.5918C105.397 12.6182 105.497 12.6315 105.578 12.6315C105.832 12.6315 105.996 12.4638 106.068 12.1284H106.395L106.735 15.3455Z" fill="#1D1D1F"/>
<path d="M116.057 16.9209V13.9819C116.057 13.7082 116.039 13.492 116.003 13.3331C115.976 13.1654 115.912 13.0331 115.812 12.936C115.721 12.8389 115.585 12.7727 115.404 12.7374C115.222 12.6933 114.982 12.6579 114.683 12.6315V12.327H118.997V12.6315C118.697 12.6579 118.457 12.6933 118.275 12.7374C118.094 12.7727 117.953 12.8389 117.854 12.936C117.763 13.0331 117.704 13.1654 117.677 13.3331C117.649 13.492 117.636 13.7082 117.636 13.9819V20.7073C117.636 20.9721 117.649 21.1883 117.677 21.356C117.713 21.5149 117.781 21.6428 117.881 21.7399C117.981 21.837 118.117 21.9076 118.289 21.9517C118.47 21.9959 118.706 22.0312 118.997 22.0577V22.3357H114.683V22.0577C114.982 22.04 115.222 22.0135 115.404 21.9782C115.585 21.9341 115.721 21.8591 115.812 21.7532C115.912 21.6384 115.976 21.484 116.003 21.2898C116.039 21.0956 116.057 20.8397 116.057 20.5219V17.5829H111.335V20.7073C111.335 20.9721 111.348 21.1883 111.376 21.356C111.412 21.5149 111.48 21.6428 111.58 21.7399C111.68 21.837 111.82 21.9076 112.002 21.9517C112.183 21.9959 112.419 22.0312 112.709 22.0577V22.3357H108.382V22.0577C108.69 22.04 108.935 22.0135 109.117 21.9782C109.298 21.9341 109.434 21.8591 109.525 21.7532C109.625 21.6384 109.688 21.484 109.715 21.2898C109.743 21.0956 109.756 20.8397 109.756 20.5219V13.9819C109.756 13.7082 109.738 13.492 109.702 13.3331C109.675 13.1654 109.611 13.0331 109.511 12.936C109.421 12.8389 109.284 12.7727 109.103 12.7374C108.922 12.6933 108.681 12.6579 108.382 12.6315V12.327H112.709V12.6315C112.41 12.6579 112.17 12.6933 111.988 12.7374C111.807 12.7727 111.666 12.8389 111.566 12.936C111.475 13.0331 111.412 13.1654 111.376 13.3331C111.348 13.492 111.335 13.7082 111.335 13.9819V16.9209H116.057Z" fill="#1D1D1F"/>
<path d="M124.998 12.1284C125.733 12.1284 126.432 12.2784 127.094 12.5785C127.765 12.8786 128.332 13.2934 128.795 13.823C129.176 14.2731 129.471 14.7983 129.68 15.3984C129.888 15.9986 129.993 16.6429 129.993 17.3313C129.993 18.0992 129.866 18.8053 129.612 19.4496C129.367 20.085 129.017 20.6323 128.564 21.0912C128.119 21.5502 127.584 21.9076 126.958 22.1636C126.341 22.4195 125.661 22.5475 124.917 22.5475C124.164 22.5475 123.474 22.4195 122.848 22.1636C122.222 21.9076 121.687 21.5502 121.242 21.0912C120.798 20.6234 120.453 20.0674 120.208 19.4231C119.963 18.7788 119.84 18.0683 119.84 17.2916C119.84 16.5326 119.967 15.8353 120.222 15.1998C120.476 14.5644 120.829 14.0216 121.283 13.5714C121.737 13.1125 122.276 12.7594 122.902 12.5123C123.538 12.2564 124.236 12.1284 124.998 12.1284ZM124.862 12.6579C124.436 12.6579 124.027 12.755 123.637 12.9492C123.247 13.1346 122.907 13.3949 122.617 13.7303C122.462 13.9068 122.322 14.1275 122.195 14.3923C122.077 14.657 121.973 14.9483 121.882 15.266C121.791 15.5749 121.723 15.9059 121.678 16.259C121.632 16.612 121.61 16.965 121.61 17.3181C121.61 18.2272 121.732 19.0347 121.977 19.7408C122.222 20.4469 122.562 20.9765 122.998 21.3295C123.542 21.7796 124.186 22.0047 124.93 22.0047C125.32 22.0047 125.688 21.9341 126.033 21.7929C126.386 21.6517 126.695 21.4531 126.958 21.1971C127.802 20.394 128.224 19.0789 128.224 17.2519C128.224 16.3781 128.097 15.6014 127.843 14.9218C127.598 14.2422 127.253 13.7171 126.808 13.3464C126.237 12.8874 125.588 12.6579 124.862 12.6579Z" fill="#1D1D1F"/>
<path d="M140.757 22.3357H138.253L134.552 17.6755L133.694 17.7153V20.7073C133.694 20.9721 133.708 21.1883 133.735 21.356C133.772 21.5237 133.84 21.6605 133.939 21.7664C134.039 21.8635 134.18 21.9341 134.361 21.9782C134.543 22.0135 134.783 22.04 135.083 22.0577V22.3357H130.782V22.0577C131.072 22.0312 131.304 21.9959 131.476 21.9517C131.658 21.9076 131.794 21.8326 131.884 21.7267C131.975 21.6208 132.034 21.4751 132.061 21.2898C132.089 21.0956 132.102 20.8397 132.102 20.5219V13.9819C132.102 13.7171 132.089 13.5052 132.061 13.3464C132.034 13.1787 131.975 13.0463 131.884 12.9492C131.794 12.8521 131.658 12.7815 131.476 12.7374C131.304 12.6933 131.072 12.6579 130.782 12.6315V12.327H135.069C135.831 12.327 136.511 12.4285 137.11 12.6315C137.718 12.8256 138.167 13.0904 138.458 13.4258C138.648 13.6288 138.789 13.8671 138.879 14.1407C138.97 14.4055 139.016 14.6923 139.016 15.0013C139.016 15.6897 138.793 16.2325 138.349 16.6297C137.913 17.0268 137.201 17.3225 136.212 17.5167L139.41 21.356C139.628 21.6031 139.832 21.7752 140.023 21.8723C140.222 21.9694 140.467 22.0312 140.757 22.0577V22.3357ZM133.694 17.1592C134.057 17.1504 134.37 17.1372 134.633 17.1195C134.906 17.1018 135.141 17.0754 135.341 17.0401C135.55 16.9959 135.74 16.943 135.913 16.8812C136.085 16.8194 136.262 16.74 136.443 16.6429C136.725 16.4929 136.942 16.2722 137.097 15.9809C137.251 15.6809 137.328 15.3411 137.328 14.9615C137.328 14.2466 137.097 13.7259 136.634 13.3993C136.18 13.0639 135.455 12.8963 134.457 12.8963C134.148 12.8963 133.944 12.936 133.844 13.0154C133.744 13.086 133.694 13.2272 133.694 13.4391V17.1592Z" fill="#1D1D1F"/>
<path d="M149.454 22.3357H141.07V22.0577C141.352 22.04 141.579 22.0091 141.751 21.965C141.932 21.9209 142.068 21.8502 142.159 21.7532C142.259 21.6561 142.327 21.5237 142.363 21.356C142.4 21.1883 142.418 20.9721 142.418 20.7073V13.9819C142.418 13.7171 142.4 13.5008 142.363 13.3331C142.336 13.1654 142.273 13.0331 142.173 12.936C142.073 12.8389 141.932 12.7683 141.751 12.7241C141.579 12.68 141.352 12.6491 141.07 12.6315V12.327H149.318L149.345 14.4982H148.977C148.905 14.154 148.823 13.8804 148.732 13.6774C148.642 13.4655 148.51 13.3022 148.338 13.1875C148.174 13.0728 147.952 12.9977 147.671 12.9624C147.399 12.9271 147.045 12.9095 146.609 12.9095H144.514C144.305 12.9095 144.164 12.9404 144.092 13.0022C144.028 13.0639 143.996 13.2052 143.996 13.4258V16.7753H146.378C146.696 16.7753 146.954 16.7576 147.154 16.7223C147.353 16.687 147.512 16.6208 147.63 16.5237C147.757 16.4178 147.852 16.2722 147.916 16.0869C147.979 15.9015 148.038 15.6544 148.093 15.3455H148.46V18.8538H148.093C148.038 18.5361 147.979 18.2845 147.916 18.0992C147.852 17.905 147.762 17.7594 147.644 17.6623C147.526 17.5564 147.367 17.4858 147.167 17.4505C146.968 17.4152 146.705 17.3975 146.378 17.3975H143.996V21.1309C143.996 21.281 144.005 21.3913 144.024 21.4619C144.042 21.5325 144.074 21.5855 144.119 21.6208C144.191 21.6649 144.364 21.7046 144.636 21.7399C144.917 21.7664 145.248 21.7796 145.629 21.7796H146.065C146.618 21.7796 147.081 21.7532 147.453 21.7002C147.834 21.6472 148.156 21.5457 148.419 21.3957C148.692 21.2457 148.927 21.0427 149.127 20.7867C149.327 20.5308 149.522 20.1954 149.712 19.7805H150.161L149.454 22.3357Z" fill="#1D1D1F"/>
<path d="M157.646 15.3455H157.265C157.202 15.1248 157.138 14.9306 157.075 14.763C157.02 14.5953 156.952 14.4452 156.871 14.3128C156.798 14.1716 156.716 14.048 156.626 13.9421C156.535 13.8274 156.43 13.7082 156.313 13.5847C155.768 13.0286 155.133 12.7506 154.407 12.7506C153.926 12.7506 153.536 12.8742 153.237 13.1213C152.947 13.3684 152.801 13.7038 152.801 14.1275C152.801 14.5423 152.978 14.9306 153.332 15.2925C153.686 15.6544 154.267 16.0516 155.074 16.484C156.108 17.0312 156.852 17.5652 157.306 18.0859C157.769 18.6067 158 19.176 158 19.7938C158 20.1821 157.918 20.544 157.755 20.8794C157.592 21.2148 157.37 21.506 157.088 21.7532C156.807 22.0003 156.471 22.1945 156.081 22.3357C155.691 22.4769 155.274 22.5475 154.829 22.5475C154.512 22.5475 154.199 22.521 153.89 22.4681C153.582 22.4151 153.282 22.3268 152.992 22.2033C152.838 22.1503 152.697 22.1106 152.57 22.0841C152.443 22.0488 152.339 22.0312 152.257 22.0312C152.139 22.0312 152.039 22.0797 151.958 22.1768C151.876 22.2739 151.831 22.393 151.822 22.5343H151.481L151.019 19.3304H151.372C151.763 20.2571 152.207 20.9368 152.706 21.3692C153.205 21.7929 153.809 22.0047 154.516 22.0047C155.088 22.0047 155.546 21.8502 155.891 21.5413C156.245 21.2324 156.421 20.8264 156.421 20.3233C156.421 20.1292 156.399 19.9571 156.353 19.807C156.317 19.657 156.263 19.529 156.19 19.4231C156.009 19.1407 155.718 18.8494 155.319 18.5493C154.929 18.2492 154.457 17.9491 153.904 17.6491C153.468 17.4284 153.096 17.2078 152.788 16.9871C152.479 16.7665 152.225 16.537 152.026 16.2987C151.835 16.0604 151.695 15.8132 151.604 15.5573C151.513 15.3013 151.468 15.0233 151.468 14.7232C151.468 13.8848 151.767 13.2316 152.366 12.7639C152.62 12.5609 152.901 12.4064 153.21 12.3005C153.518 12.1858 153.822 12.1284 154.122 12.1284C154.394 12.1284 154.666 12.1593 154.938 12.2211C155.219 12.274 155.505 12.3535 155.795 12.4594C155.941 12.5211 156.072 12.5653 156.19 12.5918C156.308 12.6182 156.408 12.6315 156.489 12.6315C156.744 12.6315 156.907 12.4638 156.979 12.1284H157.306L157.646 15.3455Z" fill="#1D1D1F"/>
<path d="M41.0801 25.7507H44.3981V26.243H42.9998V29.5968H42.4784V26.243H41.0801V25.7507Z" fill="#1D1D1F"/>
<path d="M46.5977 28.9738L47.8775 25.7507H48.4305L46.7399 29.9507C46.5819 30.3404 46.3607 30.6404 46.0763 30.8507C45.7971 31.0661 45.4864 31.1609 45.1441 31.1353V30.6584C45.6181 30.7148 45.9788 30.4481 46.2264 29.8584L46.3291 29.6199L44.5595 25.7507H45.1125L46.5977 28.9738Z" fill="#1D1D1F"/>
<path d="M51.1778 25.6584C51.7414 25.6584 52.2206 25.8533 52.6156 26.243C53.0159 26.6327 53.216 27.1097 53.216 27.6738C53.216 28.2379 53.0159 28.7148 52.6156 29.1045C52.2206 29.4943 51.7414 29.6892 51.1778 29.6892C50.4774 29.6892 49.9454 29.4071 49.582 28.843V31.1353H49.0606V25.7507H49.582V26.5045C49.9454 25.9404 50.4774 25.6584 51.1778 25.6584ZM50.0323 28.7584C50.3325 29.0507 50.7012 29.1968 51.1383 29.1968C51.5755 29.1968 51.9441 29.0507 52.2443 28.7584C52.5445 28.4558 52.6946 28.0943 52.6946 27.6738C52.6946 27.2481 52.5445 26.8892 52.2443 26.5968C51.9441 26.2994 51.5755 26.1507 51.1383 26.1507C50.7012 26.1507 50.3325 26.2994 50.0323 26.5968C49.7321 26.8892 49.582 27.2481 49.582 27.6738C49.582 28.0943 49.7321 28.4558 50.0323 28.7584Z" fill="#1D1D1F"/>
<path d="M54.6044 28.7122L56.9586 25.7507H57.401V29.5968H56.8796V26.6353L54.5254 29.5968H54.083V25.7507H54.6044V28.7122Z" fill="#1D1D1F"/>
<path d="M60.3443 29.6892C59.7492 29.6892 59.2541 29.4968 58.8591 29.1122C58.4641 28.7174 58.2666 28.2379 58.2666 27.6738C58.2666 27.1045 58.4641 26.6276 58.8591 26.243C59.2541 25.8533 59.7492 25.6584 60.3443 25.6584C60.734 25.6584 61.0843 25.7507 61.395 25.9353C61.7057 26.1148 61.9322 26.3584 62.0744 26.6661L61.6478 26.9045C61.5425 26.6738 61.3713 26.4917 61.1343 26.3584C60.9026 26.2199 60.6392 26.1507 60.3443 26.1507C59.9072 26.1507 59.5385 26.2994 59.2383 26.5968C58.9381 26.8892 58.788 27.2481 58.788 27.6738C58.788 28.0943 58.9381 28.4558 59.2383 28.7584C59.5385 29.0507 59.9072 29.1968 60.3443 29.1968C60.634 29.1968 60.8947 29.1302 61.1264 28.9968C61.3634 28.8635 61.5477 28.6789 61.6794 28.443L62.1139 28.6892C61.9506 28.9968 61.711 29.2404 61.395 29.4199C61.079 29.5994 60.7288 29.6892 60.3443 29.6892Z" fill="#1D1D1F"/>
<path d="M62.3113 25.7507H65.6293V26.243H64.231V29.5968H63.7096V26.243H62.3113V25.7507Z" fill="#1D1D1F"/>
<path d="M66.7861 28.7122L69.1403 25.7507H69.5827V29.5968H69.0613V26.6353L66.7071 29.5968H66.2647V25.7507H66.7861V28.7122Z" fill="#1D1D1F"/>
<path d="M73.2449 27.6661V25.7507H73.7663V29.5968H73.2449V28.1353C72.9395 28.2892 72.5629 28.3661 72.1152 28.3661C71.5938 28.3661 71.1988 28.2507 70.9302 28.0199C70.6616 27.784 70.5273 27.4379 70.5273 26.9815V25.7507H71.0487V26.9815C71.0487 27.2994 71.133 27.5302 71.3015 27.6738C71.4753 27.8174 71.7413 27.8892 72.0994 27.8892C72.4997 27.8892 72.8815 27.8148 73.2449 27.6661Z" fill="#1D1D1F"/>
<path d="M76.6994 25.6584C77.2893 25.6584 77.7606 25.861 78.1135 26.2661C78.4769 26.6661 78.6586 27.1404 78.6586 27.6892C78.6586 27.7148 78.6533 27.7943 78.6428 27.9276H75.1747C75.2274 28.3122 75.3959 28.6199 75.6803 28.8507C75.9647 29.0815 76.3202 29.1968 76.7468 29.1968C77.3472 29.1968 77.7712 28.9789 78.0187 28.543L78.4769 28.8045C78.3031 29.0815 78.0635 29.2994 77.758 29.4584C77.4578 29.6122 77.1181 29.6892 76.7389 29.6892C76.1174 29.6892 75.6118 29.4994 75.2221 29.1199C74.8324 28.7404 74.6375 28.2584 74.6375 27.6738C74.6375 27.0943 74.8297 26.6148 75.2142 26.2353C75.5987 25.8507 76.0937 25.6584 76.6994 25.6584ZM76.6994 26.1507C76.2886 26.1507 75.9436 26.2686 75.6645 26.5045C75.3906 26.7404 75.2274 27.0507 75.1747 27.4353H78.1214C78.0635 27.0251 77.9028 26.7097 77.6395 26.4892C77.3656 26.2635 77.0522 26.1507 76.6994 26.1507Z" fill="#1D1D1F"/>
<path d="M81.3287 29.6892C80.7335 29.6892 80.2385 29.4968 79.8435 29.1122C79.4485 28.7174 79.251 28.2379 79.251 27.6738C79.251 27.1045 79.4485 26.6276 79.8435 26.243C80.2385 25.8533 80.7335 25.6584 81.3287 25.6584C81.7184 25.6584 82.0686 25.7507 82.3794 25.9353C82.6901 26.1148 82.9166 26.3584 83.0588 26.6661L82.6322 26.9045C82.5268 26.6738 82.3557 26.4917 82.1187 26.3584C81.8869 26.2199 81.6236 26.1507 81.3287 26.1507C80.8915 26.1507 80.5229 26.2994 80.2227 26.5968C79.9225 26.8892 79.7724 27.2481 79.7724 27.6738C79.7724 28.0943 79.9225 28.4558 80.2227 28.7584C80.5229 29.0507 80.8915 29.1968 81.3287 29.1968C81.6183 29.1968 81.879 29.1302 82.1108 28.9968C82.3478 28.8635 82.5321 28.6789 82.6638 28.443L83.0983 28.6892C82.935 28.9968 82.6954 29.2404 82.3794 29.4199C82.0634 29.5994 81.7131 29.6892 81.3287 29.6892Z" fill="#1D1D1F"/>
<path d="M84.9212 27.5968L87.0384 29.5968H86.3433L84.3682 27.743V29.5968H83.8469V25.7507H84.3682V27.4507L86.2484 25.7507H86.9594L84.9212 27.5968Z" fill="#1D1D1F"/>
<path d="M90.6672 29.1122C90.2617 29.4968 89.7719 29.6892 89.1978 29.6892C88.6132 29.6892 88.1208 29.4968 87.7205 29.1122C87.3202 28.7225 87.1201 28.243 87.1201 27.6738C87.1201 27.1045 87.3202 26.6276 87.7205 26.243C88.1208 25.8533 88.6132 25.6584 89.1978 25.6584C89.7771 25.6584 90.2669 25.8533 90.6672 26.243C91.0727 26.6276 91.2755 27.1045 91.2755 27.6738C91.2755 28.2379 91.0727 28.7174 90.6672 29.1122ZM88.0918 28.7584C88.392 29.0507 88.7607 29.1968 89.1978 29.1968C89.6349 29.1968 90.0036 29.0507 90.3038 28.7584C90.604 28.4558 90.7541 28.0943 90.7541 27.6738C90.7541 27.2481 90.604 26.8892 90.3038 26.5968C90.0036 26.2994 89.6349 26.1507 89.1978 26.1507C88.7607 26.1507 88.392 26.2994 88.0918 26.5968C87.7916 26.8892 87.6415 27.2481 87.6415 27.6738C87.6415 28.0943 87.7916 28.4558 88.0918 28.7584Z" fill="#1D1D1F"/>
<path d="M93.9729 25.6584C94.5628 25.6584 95.0342 25.861 95.387 26.2661C95.7504 26.6661 95.9321 27.1404 95.9321 27.6892C95.9321 27.7148 95.9269 27.7943 95.9163 27.9276H92.4482C92.5009 28.3122 92.6694 28.6199 92.9538 28.8507C93.2382 29.0815 93.5937 29.1968 94.0203 29.1968C94.6207 29.1968 95.0447 28.9789 95.2922 28.543L95.7504 28.8045C95.5766 29.0815 95.337 29.2994 95.0315 29.4584C94.7313 29.6122 94.3916 29.6892 94.0124 29.6892C93.391 29.6892 92.8854 29.4994 92.4956 29.1199C92.1059 28.7404 91.911 28.2584 91.911 27.6738C91.911 27.0943 92.1033 26.6148 92.4877 26.2353C92.8722 25.8507 93.3673 25.6584 93.9729 25.6584ZM93.9729 26.1507C93.5621 26.1507 93.2172 26.2686 92.938 26.5045C92.6642 26.7404 92.5009 27.0507 92.4482 27.4353H95.3949C95.337 27.0251 95.1764 26.7097 94.913 26.4892C94.6392 26.2635 94.3258 26.1507 93.9729 26.1507Z" fill="#1D1D1F"/>
<path d="M102.133 26.5045V25.7507H102.655V29.5968H102.133V28.843C101.77 29.4071 101.238 29.6892 100.538 29.6892C99.9742 29.6892 99.4923 29.4943 99.092 29.1045C98.697 28.7148 98.4995 28.2379 98.4995 27.6738C98.4995 27.1097 98.697 26.6327 99.092 26.243C99.4923 25.8533 99.9742 25.6584 100.538 25.6584C101.238 25.6584 101.77 25.9404 102.133 26.5045ZM99.4712 28.7584C99.7714 29.0507 100.14 29.1968 100.577 29.1968C101.014 29.1968 101.383 29.0507 101.683 28.7584C101.983 28.4558 102.133 28.0943 102.133 27.6738C102.133 27.2481 101.983 26.8892 101.683 26.5968C101.383 26.2994 101.014 26.1507 100.577 26.1507C100.14 26.1507 99.7714 26.2994 99.4712 26.5968C99.171 26.8892 99.0209 27.2481 99.0209 27.6738C99.0209 28.0943 99.171 28.4558 99.4712 28.7584Z" fill="#1D1D1F"/>
<path d="M103.759 25.7507H106.287V26.243H104.28V29.5968H103.759V25.7507Z" fill="#1D1D1F"/>
<path d="M108.593 25.6584C109.182 25.6584 109.654 25.861 110.007 26.2661C110.37 26.6661 110.552 27.1404 110.552 27.6892C110.552 27.7148 110.546 27.7943 110.536 27.9276H107.068C107.121 28.3122 107.289 28.6199 107.573 28.8507C107.858 29.0815 108.213 29.1968 108.64 29.1968C109.24 29.1968 109.664 28.9789 109.912 28.543L110.37 28.8045C110.196 29.0815 109.957 29.2994 109.651 29.4584C109.351 29.6122 109.011 29.6892 108.632 29.6892C108.011 29.6892 107.505 29.4994 107.115 29.1199C106.726 28.7404 106.531 28.2584 106.531 27.6738C106.531 27.0943 106.723 26.6148 107.107 26.2353C107.492 25.8507 107.987 25.6584 108.593 25.6584ZM108.593 26.1507C108.182 26.1507 107.837 26.2686 107.558 26.5045C107.284 26.7404 107.121 27.0507 107.068 27.4353H110.015C109.957 27.0251 109.796 26.7097 109.533 26.4892C109.259 26.2635 108.945 26.1507 108.593 26.1507Z" fill="#1D1D1F"/>
<path d="M114.178 27.4276V25.7507H114.699V29.5968H114.178V27.9199H111.903V29.5968H111.381V25.7507H111.903V27.4276H114.178Z" fill="#1D1D1F"/>
<path d="M115.328 25.7507H118.646V26.243H117.247V29.5968H116.726V26.243H115.328V25.7507Z" fill="#1D1D1F"/>
<path d="M120.968 29.6892C120.372 29.6892 119.877 29.4968 119.482 29.1122C119.087 28.7174 118.89 28.2379 118.89 27.6738C118.89 27.1045 119.087 26.6276 119.482 26.243C119.877 25.8533 120.372 25.6584 120.968 25.6584C121.357 25.6584 121.707 25.7507 122.018 25.9353C122.329 26.1148 122.555 26.3584 122.698 26.6661L122.271 26.9045C122.166 26.6738 121.995 26.4917 121.758 26.3584C121.526 26.2199 121.262 26.1507 120.968 26.1507C120.53 26.1507 120.162 26.2994 119.862 26.5968C119.561 26.8892 119.411 27.2481 119.411 27.6738C119.411 28.0943 119.561 28.4558 119.862 28.7584C120.162 29.0507 120.53 29.1968 120.968 29.1968C121.257 29.1968 121.518 29.1302 121.75 28.9968C121.987 28.8635 122.171 28.6789 122.303 28.443L122.737 28.6892C122.574 28.9968 122.334 29.2404 122.018 29.4199C121.702 29.5994 121.352 29.6892 120.968 29.6892Z" fill="#1D1D1F"/>
<path d="M122.935 25.7507H126.253V26.243H124.854V29.5968H124.333V26.243H122.935V25.7507Z" fill="#1D1D1F"/>
<path d="M129.4 27.6199C129.832 27.7738 130.048 28.0738 130.048 28.5199C130.048 28.8379 129.937 29.0968 129.716 29.2968C129.5 29.4968 129.197 29.5968 128.808 29.5968H126.888V25.7507H128.65C129.029 25.7507 129.324 25.8456 129.534 26.0353C129.75 26.2251 129.858 26.4738 129.858 26.7815C129.858 27.1661 129.706 27.4456 129.4 27.6199ZM128.65 26.243H127.409V27.4122H128.65C129.108 27.4122 129.337 27.2122 129.337 26.8122C129.337 26.6327 129.276 26.4943 129.155 26.3968C129.039 26.2943 128.871 26.243 128.65 26.243ZM127.409 29.1045H128.808C129.039 29.1045 129.216 29.0507 129.337 28.943C129.463 28.8353 129.527 28.684 129.527 28.4892C129.527 28.3045 129.463 28.1609 129.337 28.0584C129.216 27.9558 129.039 27.9045 128.808 27.9045H127.409V29.1045Z" fill="#1D1D1F"/>
<path d="M134.148 29.1122C133.743 29.4968 133.253 29.6892 132.679 29.6892C132.094 29.6892 131.602 29.4968 131.201 29.1122C130.801 28.7225 130.601 28.243 130.601 27.6738C130.601 27.1045 130.801 26.6276 131.201 26.243C131.602 25.8533 132.094 25.6584 132.679 25.6584C133.258 25.6584 133.748 25.8533 134.148 26.243C134.554 26.6276 134.756 27.1045 134.756 27.6738C134.756 28.2379 134.554 28.7174 134.148 29.1122ZM131.573 28.7584C131.873 29.0507 132.242 29.1968 132.679 29.1968C133.116 29.1968 133.484 29.0507 133.785 28.7584C134.085 28.4558 134.235 28.0943 134.235 27.6738C134.235 27.2481 134.085 26.8892 133.785 26.5968C133.484 26.2994 133.116 26.1507 132.679 26.1507C132.242 26.1507 131.873 26.2994 131.573 26.5968C131.272 26.8892 131.122 27.2481 131.122 27.6738C131.122 28.0943 131.272 28.4558 131.573 28.7584Z" fill="#1D1D1F"/>
</svg>
